<svg width="1144" height="1144" viewBox="0 0 1144 1144" fill="none" xmlns="http://www.w3.org/2000/svg">
<g filter="url(#filter0_f_484_1531)">
<circle cx="871.732" cy="871.732" r="61.9741" fill="#A4F3FF"/>
</g>
<g filter="url(#filter1_f_484_1531)">
<circle cx="271.732" cy="271.732" r="61.9741" fill="#DABCF0"/>
</g>
<rect x="281.439" y="263.285" width="377.293" height="74.9137" rx="15.6638" fill="#E0FBFF"/>
<rect x="281.439" y="263.285" width="377.293" height="74.9137" rx="15.6638" stroke="#B5F8FF" stroke-width="1.36207"/>
<path d="M337.805 291.321C336.039 289.551 333.941 288.149 331.631 287.194C329.32 286.239 326.844 285.751 324.344 285.758H324.276C313.8 285.794 305.275 294.442 305.275 305.02V308.914C305.275 309.636 305.562 310.329 306.073 310.84C306.584 311.351 307.277 311.638 308 311.638H340.689C341.412 311.638 342.105 311.351 342.615 310.84C343.126 310.329 343.413 309.636 343.413 308.914V304.827C343.42 302.317 342.928 299.83 341.965 297.511C341.002 295.192 339.588 293.088 337.805 291.321ZM340.689 308.914H322.933L332.256 296.093C332.469 295.801 332.557 295.436 332.501 295.079C332.444 294.722 332.249 294.402 331.957 294.19C331.664 293.977 331.3 293.889 330.943 293.945C330.586 294.001 330.266 294.197 330.053 294.489L319.563 308.914H308V305.02C308 304.495 308.025 303.978 308.073 303.465H312.086C312.447 303.465 312.793 303.322 313.049 303.066C313.304 302.811 313.448 302.464 313.448 302.103C313.448 301.742 313.304 301.395 313.049 301.14C312.793 300.885 312.447 300.741 312.086 300.741H308.556C310.313 294.125 316.048 289.123 322.982 288.54V292.569C322.982 292.93 323.126 293.276 323.381 293.532C323.637 293.787 323.983 293.931 324.344 293.931C324.706 293.931 325.052 293.787 325.307 293.532C325.563 293.276 325.706 292.93 325.706 292.569V288.539C329.085 288.823 332.293 290.15 334.885 292.336C337.478 294.522 339.327 297.459 340.178 300.741H336.603C336.242 300.741 335.895 300.885 335.64 301.14C335.384 301.395 335.241 301.742 335.241 302.103C335.241 302.464 335.384 302.811 335.64 303.066C335.895 303.322 336.242 303.465 336.603 303.465H340.633C340.669 303.916 340.689 304.369 340.689 304.827V308.914Z" fill="#1A3A5C"/>
<path d="M372.58 294.787C372.443 293.635 371.89 292.741 370.921 292.105C369.951 291.468 368.761 291.15 367.352 291.15C366.322 291.15 365.421 291.317 364.648 291.65C363.883 291.984 363.284 292.442 362.852 293.025C362.428 293.609 362.216 294.272 362.216 295.014C362.216 295.635 362.364 296.169 362.659 296.616C362.962 297.056 363.349 297.423 363.818 297.718C364.288 298.006 364.78 298.245 365.296 298.434C365.811 298.616 366.284 298.764 366.716 298.878L369.08 299.514C369.686 299.673 370.36 299.893 371.102 300.173C371.852 300.453 372.568 300.836 373.25 301.321C373.939 301.798 374.508 302.412 374.955 303.162C375.402 303.912 375.625 304.832 375.625 305.923C375.625 307.181 375.296 308.317 374.636 309.332C373.985 310.347 373.03 311.154 371.773 311.753C370.523 312.351 369.004 312.65 367.216 312.65C365.549 312.65 364.106 312.381 362.886 311.843C361.674 311.306 360.72 310.556 360.023 309.593C359.333 308.631 358.943 307.514 358.852 306.241H361.761C361.837 307.12 362.133 307.847 362.648 308.423C363.171 308.991 363.83 309.415 364.625 309.696C365.428 309.968 366.292 310.105 367.216 310.105C368.292 310.105 369.258 309.931 370.114 309.582C370.97 309.226 371.648 308.734 372.148 308.105C372.648 307.468 372.898 306.726 372.898 305.878C372.898 305.105 372.682 304.476 372.25 303.991C371.818 303.506 371.25 303.112 370.546 302.809C369.841 302.506 369.08 302.241 368.261 302.014L365.398 301.196C363.58 300.673 362.14 299.927 361.08 298.957C360.019 297.987 359.489 296.718 359.489 295.15C359.489 293.847 359.841 292.711 360.546 291.741C361.258 290.764 362.212 290.006 363.409 289.468C364.614 288.923 365.958 288.65 367.443 288.65C368.943 288.65 370.277 288.919 371.443 289.457C372.61 289.987 373.534 290.715 374.216 291.639C374.905 292.563 375.269 293.612 375.307 294.787H372.58ZM379.895 312.241V294.787H382.486V297.514H382.713C383.077 296.582 383.664 295.859 384.475 295.343C385.285 294.821 386.259 294.559 387.395 294.559C388.546 294.559 389.505 294.821 390.27 295.343C391.043 295.859 391.645 296.582 392.077 297.514H392.259C392.706 296.612 393.376 295.897 394.27 295.366C395.164 294.828 396.236 294.559 397.486 294.559C399.046 294.559 400.323 295.048 401.315 296.025C402.308 296.995 402.804 298.506 402.804 300.559V312.241H400.122V300.559C400.122 299.272 399.77 298.351 399.065 297.798C398.361 297.245 397.531 296.968 396.577 296.968C395.35 296.968 394.399 297.34 393.725 298.082C393.05 298.817 392.713 299.749 392.713 300.878V312.241H389.986V300.287C389.986 299.294 389.664 298.495 389.02 297.889C388.376 297.275 387.546 296.968 386.531 296.968C385.834 296.968 385.183 297.154 384.577 297.525C383.978 297.897 383.493 298.412 383.122 299.071C382.759 299.722 382.577 300.476 382.577 301.332V312.241H379.895ZM412.844 312.65C411.738 312.65 410.734 312.442 409.832 312.025C408.931 311.601 408.215 310.991 407.685 310.196C407.154 309.393 406.889 308.423 406.889 307.287C406.889 306.287 407.086 305.476 407.48 304.855C407.874 304.226 408.401 303.734 409.06 303.378C409.719 303.022 410.446 302.756 411.242 302.582C412.045 302.4 412.851 302.256 413.662 302.15C414.723 302.014 415.582 301.912 416.242 301.843C416.908 301.768 417.393 301.643 417.696 301.468C418.007 301.294 418.162 300.991 418.162 300.559V300.468C418.162 299.347 417.855 298.476 417.242 297.855C416.636 297.234 415.715 296.923 414.48 296.923C413.2 296.923 412.196 297.203 411.469 297.764C410.742 298.325 410.23 298.923 409.935 299.559L407.389 298.65C407.844 297.59 408.45 296.764 409.207 296.173C409.973 295.575 410.806 295.158 411.707 294.923C412.617 294.681 413.511 294.559 414.389 294.559C414.95 294.559 415.594 294.628 416.321 294.764C417.056 294.893 417.764 295.162 418.446 295.571C419.136 295.98 419.707 296.597 420.162 297.423C420.617 298.249 420.844 299.355 420.844 300.741V312.241H418.162V309.878H418.026C417.844 310.256 417.541 310.662 417.117 311.093C416.692 311.525 416.128 311.893 415.423 312.196C414.719 312.499 413.859 312.65 412.844 312.65ZM413.253 310.241C414.314 310.241 415.207 310.033 415.935 309.616C416.67 309.2 417.223 308.662 417.594 308.003C417.973 307.343 418.162 306.65 418.162 305.923V303.468C418.048 303.605 417.798 303.73 417.412 303.843C417.033 303.95 416.594 304.044 416.094 304.128C415.601 304.203 415.12 304.272 414.651 304.332C414.189 304.385 413.814 304.431 413.526 304.468C412.829 304.559 412.177 304.707 411.571 304.912C410.973 305.109 410.488 305.408 410.117 305.809C409.753 306.203 409.571 306.741 409.571 307.423C409.571 308.355 409.916 309.059 410.605 309.537C411.302 310.006 412.185 310.241 413.253 310.241ZM425.739 312.241V294.787H428.33V297.423H428.511C428.83 296.559 429.405 295.859 430.239 295.321C431.072 294.783 432.011 294.514 433.057 294.514C433.254 294.514 433.5 294.518 433.796 294.525C434.091 294.533 434.314 294.544 434.466 294.559V297.287C434.375 297.264 434.167 297.23 433.841 297.184C433.523 297.131 433.186 297.105 432.83 297.105C431.981 297.105 431.224 297.283 430.557 297.639C429.898 297.987 429.375 298.472 428.989 299.093C428.61 299.707 428.421 300.408 428.421 301.196V312.241H425.739ZM446.33 294.787V297.059H437.284V294.787H446.33ZM439.921 290.605H442.602V307.241C442.602 307.999 442.712 308.567 442.932 308.946C443.159 309.317 443.447 309.567 443.796 309.696C444.152 309.817 444.527 309.878 444.921 309.878C445.216 309.878 445.458 309.862 445.648 309.832C445.837 309.794 445.989 309.764 446.102 309.741L446.648 312.15C446.466 312.218 446.212 312.287 445.886 312.355C445.561 312.431 445.148 312.468 444.648 312.468C443.89 312.468 443.148 312.306 442.421 311.98C441.701 311.654 441.102 311.158 440.625 310.491C440.155 309.825 439.921 308.984 439.921 307.968V290.605ZM459.727 288.968H463.091L471 308.287H471.273L479.182 288.968H482.546V312.241H479.909V294.559H479.682L472.409 312.241H469.864L462.591 294.559H462.364V312.241H459.727V288.968ZM495.151 312.605C493.469 312.605 492.018 312.234 490.798 311.491C489.586 310.741 488.651 309.696 487.992 308.355C487.34 307.006 487.014 305.438 487.014 303.65C487.014 301.862 487.34 300.287 487.992 298.923C488.651 297.552 489.567 296.484 490.742 295.718C491.923 294.946 493.302 294.559 494.878 294.559C495.787 294.559 496.685 294.711 497.571 295.014C498.457 295.317 499.264 295.809 499.992 296.491C500.719 297.165 501.298 298.059 501.73 299.173C502.162 300.287 502.378 301.658 502.378 303.287V304.423H488.923V302.105H499.651C499.651 301.12 499.454 300.241 499.06 299.468C498.673 298.696 498.12 298.086 497.401 297.639C496.689 297.192 495.848 296.968 494.878 296.968C493.81 296.968 492.886 297.234 492.105 297.764C491.332 298.287 490.738 298.968 490.321 299.809C489.904 300.65 489.696 301.552 489.696 302.514V304.059C489.696 305.378 489.923 306.495 490.378 307.412C490.84 308.321 491.48 309.014 492.298 309.491C493.117 309.961 494.067 310.196 495.151 310.196C495.855 310.196 496.492 310.097 497.06 309.9C497.636 309.696 498.132 309.393 498.548 308.991C498.965 308.582 499.287 308.075 499.514 307.468L502.105 308.196C501.832 309.075 501.374 309.847 500.73 310.514C500.086 311.173 499.291 311.688 498.344 312.059C497.397 312.423 496.332 312.605 495.151 312.605ZM514.048 294.787V297.059H505.003V294.787H514.048ZM507.639 290.605H510.321V307.241C510.321 307.999 510.431 308.567 510.651 308.946C510.878 309.317 511.166 309.567 511.514 309.696C511.87 309.817 512.245 309.878 512.639 309.878C512.935 309.878 513.177 309.862 513.367 309.832C513.556 309.794 513.707 309.764 513.821 309.741L514.367 312.15C514.185 312.218 513.931 312.287 513.605 312.355C513.279 312.431 512.867 312.468 512.367 312.468C511.609 312.468 510.867 312.306 510.139 311.98C509.42 311.654 508.821 311.158 508.344 310.491C507.874 309.825 507.639 308.984 507.639 307.968V290.605ZM525.213 312.605C523.531 312.605 522.081 312.234 520.861 311.491C519.649 310.741 518.713 309.696 518.054 308.355C517.403 307.006 517.077 305.438 517.077 303.65C517.077 301.862 517.403 300.287 518.054 298.923C518.713 297.552 519.63 296.484 520.804 295.718C521.986 294.946 523.365 294.559 524.94 294.559C525.85 294.559 526.747 294.711 527.634 295.014C528.52 295.317 529.327 295.809 530.054 296.491C530.781 297.165 531.361 298.059 531.793 299.173C532.225 300.287 532.44 301.658 532.44 303.287V304.423H518.986V302.105H529.713C529.713 301.12 529.516 300.241 529.122 299.468C528.736 298.696 528.183 298.086 527.463 297.639C526.751 297.192 525.91 296.968 524.94 296.968C523.872 296.968 522.948 297.234 522.168 297.764C521.395 298.287 520.8 298.968 520.384 299.809C519.967 300.65 519.759 301.552 519.759 302.514V304.059C519.759 305.378 519.986 306.495 520.44 307.412C520.903 308.321 521.543 309.014 522.361 309.491C523.179 309.961 524.13 310.196 525.213 310.196C525.918 310.196 526.554 310.097 527.122 309.9C527.698 309.696 528.194 309.393 528.611 308.991C529.028 308.582 529.35 308.075 529.577 307.468L532.168 308.196C531.895 309.075 531.437 309.847 530.793 310.514C530.149 311.173 529.353 311.688 528.406 312.059C527.459 312.423 526.395 312.605 525.213 312.605ZM536.52 312.241V294.787H539.111V297.423H539.293C539.611 296.559 540.187 295.859 541.02 295.321C541.853 294.783 542.793 294.514 543.838 294.514C544.035 294.514 544.281 294.518 544.577 294.525C544.872 294.533 545.096 294.544 545.247 294.559V297.287C545.156 297.264 544.948 297.23 544.622 297.184C544.304 297.131 543.967 297.105 543.611 297.105C542.762 297.105 542.005 297.283 541.338 297.639C540.679 297.987 540.156 298.472 539.77 299.093C539.391 299.707 539.202 300.408 539.202 301.196V312.241H536.52ZM560.79 298.696L558.381 299.378C558.229 298.976 558.006 298.586 557.71 298.207C557.422 297.821 557.028 297.503 556.528 297.253C556.028 297.003 555.388 296.878 554.608 296.878C553.54 296.878 552.65 297.124 551.938 297.616C551.233 298.101 550.881 298.718 550.881 299.468C550.881 300.135 551.123 300.662 551.608 301.048C552.093 301.434 552.85 301.756 553.881 302.014L556.472 302.65C558.032 303.029 559.195 303.609 559.96 304.389C560.725 305.162 561.108 306.158 561.108 307.378C561.108 308.378 560.82 309.272 560.244 310.059C559.676 310.847 558.881 311.468 557.858 311.923C556.835 312.378 555.646 312.605 554.29 312.605C552.51 312.605 551.036 312.218 549.869 311.446C548.703 310.673 547.964 309.544 547.653 308.059L550.199 307.423C550.441 308.362 550.9 309.067 551.574 309.537C552.256 310.006 553.146 310.241 554.244 310.241C555.494 310.241 556.487 309.976 557.222 309.446C557.964 308.908 558.335 308.264 558.335 307.514C558.335 306.908 558.123 306.4 557.699 305.991C557.275 305.575 556.623 305.264 555.744 305.059L552.835 304.378C551.237 303.999 550.063 303.412 549.313 302.616C548.57 301.813 548.199 300.809 548.199 299.605C548.199 298.62 548.475 297.749 549.028 296.991C549.589 296.234 550.35 295.639 551.313 295.207C552.282 294.775 553.381 294.559 554.608 294.559C556.335 294.559 557.691 294.938 558.676 295.696C559.669 296.453 560.373 297.453 560.79 298.696Z" fill="#1A3A5C"/>
<circle cx="628.086" cy="300.742" r="9.53447" fill="white"/>
<circle cx="628.086" cy="300.742" r="8.53447" stroke="#1CCFE3" stroke-opacity="0.4" stroke-width="2"/>
<rect x="281.439" y="371.56" width="382.396" height="74.9137" rx="15.6638" fill="#F3EAFA"/>
<rect x="281.439" y="371.56" width="382.396" height="74.9137" rx="15.6638" stroke="#EDD6FF" stroke-width="1.36207"/>
<path d="M339.327 400.845H333.879V395.397C333.879 394.675 333.592 393.982 333.081 393.471C332.57 392.96 331.877 392.673 331.155 392.673H309.362C308.639 392.673 307.946 392.96 307.436 393.471C306.925 393.982 306.638 394.675 306.638 395.397V417.19C306.638 417.446 306.712 417.697 306.849 417.914C306.985 418.13 307.181 418.304 307.412 418.414C307.643 418.525 307.901 418.568 308.155 418.539C308.41 418.51 308.651 418.409 308.851 418.249L314.81 413.444V418.552C314.81 419.275 315.097 419.968 315.608 420.478C316.119 420.989 316.812 421.276 317.534 421.276H333.469L339.838 426.421C340.079 426.616 340.379 426.723 340.689 426.725C341.051 426.725 341.397 426.581 341.653 426.326C341.908 426.07 342.051 425.724 342.051 425.362V403.569C342.051 402.847 341.764 402.154 341.254 401.643C340.743 401.132 340.05 400.845 339.327 400.845ZM313.882 410.683L309.362 414.338V395.397H331.155V410.38H314.739C314.427 410.38 314.125 410.487 313.882 410.683ZM339.327 422.511L334.807 418.855C334.566 418.66 334.266 418.553 333.956 418.552H317.534V413.104H331.155C331.877 413.104 332.57 412.817 333.081 412.306C333.592 411.795 333.879 411.102 333.879 410.38V403.569H339.327V422.511Z" fill="#1A3A5C"/>
<path d="M378.58 404.517H375.761C375.595 403.706 375.303 402.994 374.886 402.381C374.477 401.767 373.977 401.252 373.386 400.835C372.803 400.411 372.155 400.093 371.443 399.881C370.731 399.669 369.989 399.563 369.216 399.563C367.807 399.563 366.53 399.919 365.386 400.631C364.25 401.343 363.345 402.392 362.671 403.778C362.004 405.165 361.671 406.866 361.671 408.881C361.671 410.896 362.004 412.597 362.671 413.983C363.345 415.369 364.25 416.419 365.386 417.131C366.53 417.843 367.807 418.199 369.216 418.199C369.989 418.199 370.731 418.093 371.443 417.881C372.155 417.669 372.803 417.354 373.386 416.938C373.977 416.513 374.477 415.994 374.886 415.381C375.303 414.76 375.595 414.047 375.761 413.244H378.58C378.368 414.434 377.981 415.498 377.421 416.438C376.86 417.377 376.163 418.176 375.33 418.835C374.496 419.487 373.561 419.983 372.523 420.324C371.493 420.665 370.39 420.835 369.216 420.835C367.231 420.835 365.466 420.35 363.921 419.381C362.375 418.411 361.159 417.032 360.273 415.244C359.386 413.456 358.943 411.335 358.943 408.881C358.943 406.426 359.386 404.305 360.273 402.517C361.159 400.729 362.375 399.35 363.921 398.381C365.466 397.411 367.231 396.926 369.216 396.926C370.39 396.926 371.493 397.097 372.523 397.438C373.561 397.778 374.496 398.278 375.33 398.938C376.163 399.589 376.86 400.385 377.421 401.324C377.981 402.256 378.368 403.32 378.58 404.517ZM389.861 420.881C388.285 420.881 386.903 420.506 385.713 419.756C384.531 419.006 383.607 417.956 382.94 416.608C382.281 415.26 381.952 413.684 381.952 411.881C381.952 410.063 382.281 408.475 382.94 407.119C383.607 405.763 384.531 404.71 385.713 403.96C386.903 403.21 388.285 402.835 389.861 402.835C391.437 402.835 392.815 403.21 393.997 403.96C395.187 404.71 396.111 405.763 396.77 407.119C397.437 408.475 397.77 410.063 397.77 411.881C397.77 413.684 397.437 415.26 396.77 416.608C396.111 417.956 395.187 419.006 393.997 419.756C392.815 420.506 391.437 420.881 389.861 420.881ZM389.861 418.472C391.058 418.472 392.043 418.165 392.815 417.551C393.588 416.938 394.16 416.131 394.531 415.131C394.903 414.131 395.088 413.047 395.088 411.881C395.088 410.714 394.903 409.627 394.531 408.619C394.16 407.612 393.588 406.797 392.815 406.176C392.043 405.555 391.058 405.244 389.861 405.244C388.664 405.244 387.679 405.555 386.906 406.176C386.134 406.797 385.562 407.612 385.19 408.619C384.819 409.627 384.634 410.714 384.634 411.881C384.634 413.047 384.819 414.131 385.19 415.131C385.562 416.131 386.134 416.938 386.906 417.551C387.679 418.165 388.664 418.472 389.861 418.472ZM401.864 420.517V403.063H404.455V405.79H404.682C405.046 404.858 405.633 404.135 406.443 403.619C407.254 403.097 408.227 402.835 409.364 402.835C410.515 402.835 411.474 403.097 412.239 403.619C413.011 404.135 413.614 404.858 414.046 405.79H414.227C414.674 404.888 415.345 404.172 416.239 403.642C417.133 403.104 418.205 402.835 419.455 402.835C421.015 402.835 422.292 403.324 423.284 404.301C424.277 405.271 424.773 406.782 424.773 408.835V420.517H422.091V408.835C422.091 407.547 421.739 406.627 421.034 406.074C420.33 405.521 419.5 405.244 418.546 405.244C417.318 405.244 416.368 405.616 415.693 406.358C415.019 407.093 414.682 408.025 414.682 409.153V420.517H411.955V408.563C411.955 407.57 411.633 406.771 410.989 406.165C410.345 405.551 409.515 405.244 408.5 405.244C407.803 405.244 407.152 405.43 406.546 405.801C405.947 406.172 405.462 406.688 405.091 407.347C404.727 407.998 404.546 408.752 404.546 409.608V420.517H401.864ZM429.676 420.517V403.063H432.267V405.79H432.494C432.858 404.858 433.445 404.135 434.256 403.619C435.066 403.097 436.04 402.835 437.176 402.835C438.328 402.835 439.286 403.097 440.051 403.619C440.824 404.135 441.426 404.858 441.858 405.79H442.04C442.487 404.888 443.157 404.172 444.051 403.642C444.945 403.104 446.017 402.835 447.267 402.835C448.828 402.835 450.104 403.324 451.097 404.301C452.089 405.271 452.585 406.782 452.585 408.835V420.517H449.903V408.835C449.903 407.547 449.551 406.627 448.847 406.074C448.142 405.521 447.313 405.244 446.358 405.244C445.131 405.244 444.18 405.616 443.506 406.358C442.832 407.093 442.494 408.025 442.494 409.153V420.517H439.767V408.563C439.767 407.57 439.445 406.771 438.801 406.165C438.157 405.551 437.328 405.244 436.313 405.244C435.616 405.244 434.964 405.43 434.358 405.801C433.76 406.172 433.275 406.688 432.903 407.347C432.54 407.998 432.358 408.752 432.358 409.608V420.517H429.676ZM468.489 413.381V403.063H471.171V420.517H468.489V417.563H468.307C467.898 418.449 467.261 419.203 466.398 419.824C465.534 420.438 464.443 420.744 463.125 420.744C462.034 420.744 461.064 420.506 460.216 420.028C459.368 419.544 458.701 418.816 458.216 417.847C457.731 416.869 457.489 415.638 457.489 414.153V403.063H460.171V413.972C460.171 415.244 460.527 416.26 461.239 417.017C461.958 417.775 462.875 418.153 463.989 418.153C464.655 418.153 465.333 417.983 466.023 417.642C466.72 417.301 467.303 416.778 467.773 416.074C468.25 415.369 468.489 414.472 468.489 413.381ZM478.764 410.017V420.517H476.082V403.063H478.673V405.79H478.901C479.31 404.903 479.931 404.191 480.764 403.653C481.598 403.108 482.673 402.835 483.992 402.835C485.173 402.835 486.207 403.078 487.094 403.563C487.98 404.04 488.67 404.767 489.162 405.744C489.654 406.714 489.901 407.941 489.901 409.426V420.517H487.219V409.608C487.219 408.237 486.863 407.169 486.151 406.403C485.439 405.631 484.461 405.244 483.219 405.244C482.363 405.244 481.598 405.43 480.923 405.801C480.257 406.172 479.73 406.714 479.344 407.426C478.957 408.138 478.764 409.002 478.764 410.017ZM494.801 420.517V403.063H497.483V420.517H494.801ZM496.165 400.153C495.642 400.153 495.191 399.975 494.813 399.619C494.441 399.263 494.256 398.835 494.256 398.335C494.256 397.835 494.441 397.407 494.813 397.051C495.191 396.695 495.642 396.517 496.165 396.517C496.688 396.517 497.135 396.695 497.506 397.051C497.885 397.407 498.074 397.835 498.074 398.335C498.074 398.835 497.885 399.263 497.506 399.619C497.135 399.975 496.688 400.153 496.165 400.153ZM509.486 420.881C507.85 420.881 506.44 420.494 505.259 419.722C504.077 418.949 503.168 417.885 502.531 416.528C501.895 415.172 501.577 413.623 501.577 411.881C501.577 410.108 501.903 408.544 502.554 407.188C503.213 405.824 504.13 404.76 505.304 403.994C506.486 403.222 507.865 402.835 509.44 402.835C510.668 402.835 511.774 403.063 512.759 403.517C513.743 403.972 514.55 404.608 515.179 405.426C515.808 406.244 516.198 407.199 516.35 408.29H513.668C513.463 407.494 513.009 406.79 512.304 406.176C511.607 405.555 510.668 405.244 509.486 405.244C508.44 405.244 507.524 405.517 506.736 406.063C505.956 406.6 505.346 407.362 504.906 408.347C504.475 409.324 504.259 410.472 504.259 411.79C504.259 413.138 504.471 414.313 504.895 415.313C505.327 416.313 505.933 417.089 506.713 417.642C507.501 418.195 508.425 418.472 509.486 418.472C510.183 418.472 510.815 418.35 511.384 418.108C511.952 417.866 512.433 417.517 512.827 417.063C513.221 416.608 513.501 416.063 513.668 415.426H516.35C516.198 416.456 515.823 417.385 515.225 418.21C514.634 419.028 513.85 419.68 512.872 420.165C511.903 420.642 510.774 420.881 509.486 420.881ZM525.406 420.926C524.3 420.926 523.296 420.718 522.395 420.301C521.493 419.877 520.778 419.267 520.247 418.472C519.717 417.669 519.452 416.699 519.452 415.563C519.452 414.563 519.649 413.752 520.043 413.131C520.437 412.502 520.963 412.01 521.622 411.653C522.281 411.297 523.009 411.032 523.804 410.858C524.607 410.676 525.414 410.532 526.225 410.426C527.285 410.29 528.145 410.188 528.804 410.119C529.471 410.044 529.956 409.919 530.259 409.744C530.569 409.57 530.725 409.267 530.725 408.835V408.744C530.725 407.623 530.418 406.752 529.804 406.131C529.198 405.51 528.278 405.199 527.043 405.199C525.762 405.199 524.759 405.479 524.031 406.04C523.304 406.6 522.793 407.199 522.497 407.835L519.952 406.926C520.406 405.866 521.012 405.04 521.77 404.449C522.535 403.85 523.368 403.434 524.27 403.199C525.179 402.956 526.073 402.835 526.952 402.835C527.512 402.835 528.156 402.903 528.884 403.04C529.618 403.169 530.327 403.438 531.009 403.847C531.698 404.256 532.27 404.873 532.725 405.699C533.179 406.525 533.406 407.631 533.406 409.017V420.517H530.725V418.153H530.588C530.406 418.532 530.103 418.938 529.679 419.369C529.255 419.801 528.69 420.169 527.986 420.472C527.281 420.775 526.421 420.926 525.406 420.926ZM525.815 418.517C526.876 418.517 527.77 418.309 528.497 417.892C529.232 417.475 529.785 416.938 530.156 416.278C530.535 415.619 530.725 414.926 530.725 414.199V411.744C530.611 411.881 530.361 412.006 529.975 412.119C529.596 412.225 529.156 412.32 528.656 412.403C528.164 412.479 527.683 412.547 527.213 412.608C526.751 412.661 526.376 412.706 526.088 412.744C525.391 412.835 524.74 412.983 524.134 413.188C523.535 413.385 523.05 413.684 522.679 414.085C522.315 414.479 522.134 415.017 522.134 415.699C522.134 416.631 522.478 417.335 523.168 417.813C523.865 418.282 524.747 418.517 525.815 418.517ZM545.892 403.063V405.335H536.847V403.063H545.892ZM539.483 398.881H542.165V415.517C542.165 416.275 542.275 416.843 542.494 417.222C542.722 417.593 543.01 417.843 543.358 417.972C543.714 418.093 544.089 418.153 544.483 418.153C544.778 418.153 545.021 418.138 545.21 418.108C545.4 418.07 545.551 418.04 545.665 418.017L546.21 420.426C546.028 420.494 545.775 420.563 545.449 420.631C545.123 420.706 544.71 420.744 544.21 420.744C543.453 420.744 542.71 420.581 541.983 420.256C541.263 419.93 540.665 419.434 540.188 418.767C539.718 418.1 539.483 417.26 539.483 416.244V398.881ZM549.926 420.517V403.063H552.608V420.517H549.926ZM551.29 400.153C550.767 400.153 550.316 399.975 549.938 399.619C549.566 399.263 549.381 398.835 549.381 398.335C549.381 397.835 549.566 397.407 549.938 397.051C550.316 396.695 550.767 396.517 551.29 396.517C551.813 396.517 552.26 396.695 552.631 397.051C553.01 397.407 553.199 397.835 553.199 398.335C553.199 398.835 553.01 399.263 552.631 399.619C552.26 399.975 551.813 400.153 551.29 400.153ZM564.611 420.881C563.035 420.881 561.653 420.506 560.463 419.756C559.281 419.006 558.357 417.956 557.69 416.608C557.031 415.26 556.702 413.684 556.702 411.881C556.702 410.063 557.031 408.475 557.69 407.119C558.357 405.763 559.281 404.71 560.463 403.96C561.653 403.21 563.035 402.835 564.611 402.835C566.187 402.835 567.565 403.21 568.747 403.96C569.937 404.71 570.861 405.763 571.52 407.119C572.187 408.475 572.52 410.063 572.52 411.881C572.52 413.684 572.187 415.26 571.52 416.608C570.861 417.956 569.937 419.006 568.747 419.756C567.565 420.506 566.187 420.881 564.611 420.881ZM564.611 418.472C565.808 418.472 566.793 418.165 567.565 417.551C568.338 416.938 568.91 416.131 569.281 415.131C569.653 414.131 569.838 413.047 569.838 411.881C569.838 410.714 569.653 409.627 569.281 408.619C568.91 407.612 568.338 406.797 567.565 406.176C566.793 405.555 565.808 405.244 564.611 405.244C563.414 405.244 562.429 405.555 561.656 406.176C560.884 406.797 560.312 407.612 559.94 408.619C559.569 409.627 559.384 410.714 559.384 411.881C559.384 413.047 559.569 414.131 559.94 415.131C560.312 416.131 560.884 416.938 561.656 417.551C562.429 418.165 563.414 418.472 564.611 418.472ZM579.296 410.017V420.517H576.614V403.063H579.205V405.79H579.432C579.841 404.903 580.462 404.191 581.296 403.653C582.129 403.108 583.205 402.835 584.523 402.835C585.705 402.835 586.739 403.078 587.625 403.563C588.511 404.04 589.201 404.767 589.693 405.744C590.186 406.714 590.432 407.941 590.432 409.426V420.517H587.75V409.608C587.75 408.237 587.394 407.169 586.682 406.403C585.97 405.631 584.993 405.244 583.75 405.244C582.894 405.244 582.129 405.43 581.455 405.801C580.788 406.172 580.261 406.714 579.875 407.426C579.489 408.138 579.296 409.002 579.296 410.017ZM607.696 406.972L605.287 407.653C605.136 407.252 604.912 406.862 604.617 406.483C604.329 406.097 603.935 405.778 603.435 405.528C602.935 405.278 602.295 405.153 601.514 405.153C600.446 405.153 599.556 405.4 598.844 405.892C598.139 406.377 597.787 406.994 597.787 407.744C597.787 408.411 598.029 408.938 598.514 409.324C598.999 409.71 599.757 410.032 600.787 410.29L603.378 410.926C604.939 411.305 606.101 411.885 606.867 412.665C607.632 413.438 608.014 414.434 608.014 415.653C608.014 416.653 607.726 417.547 607.151 418.335C606.582 419.123 605.787 419.744 604.764 420.199C603.742 420.653 602.552 420.881 601.196 420.881C599.416 420.881 597.942 420.494 596.776 419.722C595.609 418.949 594.87 417.82 594.56 416.335L597.105 415.699C597.348 416.638 597.806 417.343 598.48 417.813C599.162 418.282 600.052 418.517 601.151 418.517C602.401 418.517 603.393 418.252 604.128 417.722C604.87 417.184 605.242 416.54 605.242 415.79C605.242 415.184 605.029 414.676 604.605 414.267C604.181 413.85 603.529 413.54 602.651 413.335L599.742 412.653C598.143 412.275 596.969 411.688 596.219 410.892C595.476 410.089 595.105 409.085 595.105 407.881C595.105 406.896 595.382 406.025 595.935 405.267C596.495 404.51 597.257 403.915 598.219 403.483C599.189 403.051 600.287 402.835 601.514 402.835C603.242 402.835 604.598 403.214 605.582 403.972C606.575 404.729 607.279 405.729 607.696 406.972Z" fill="#1A3A5C"/>
<circle cx="633.189" cy="409.017" r="9.53447" fill="white"/>
<circle cx="633.189" cy="409.017" r="8.53447" stroke="#A258DA" stroke-opacity="0.4" stroke-width="2"/>
<rect x="281.439" y="479.836" width="208.396" height="74.9137" rx="15.6638" fill="#E0FBFF"/>
<rect x="281.439" y="479.836" width="208.396" height="74.9137" rx="15.6638" stroke="#B5F8FF" stroke-width="1.36207"/>
<path d="M325.38 521.854C325.252 521.705 325.093 521.585 324.915 521.503C324.736 521.421 324.542 521.378 324.345 521.378C324.149 521.378 323.955 521.421 323.776 521.503C323.598 521.585 323.439 521.705 323.311 521.854L315.139 531.389C314.969 531.586 314.86 531.828 314.823 532.086C314.787 532.345 314.826 532.608 314.935 532.844C315.043 533.081 315.218 533.282 315.437 533.422C315.657 533.563 315.912 533.638 316.172 533.638H332.517C332.778 533.638 333.033 533.563 333.252 533.422C333.471 533.282 333.646 533.081 333.754 532.844C333.863 532.608 333.902 532.345 333.866 532.086C333.83 531.828 333.72 531.586 333.55 531.389L325.38 521.854ZM319.133 530.913L324.345 524.834L329.556 530.913H319.133ZM342.051 506.396V525.465C342.051 526.549 341.621 527.588 340.855 528.355C340.088 529.121 339.049 529.551 337.965 529.551H336.603C336.242 529.551 335.895 529.408 335.64 529.152C335.385 528.897 335.241 528.551 335.241 528.189C335.241 527.828 335.385 527.482 335.64 527.226C335.895 526.971 336.242 526.827 336.603 526.827H337.965C338.326 526.827 338.673 526.684 338.928 526.428C339.184 526.173 339.327 525.826 339.327 525.465V506.396C339.327 506.035 339.184 505.689 338.928 505.433C338.673 505.178 338.326 505.034 337.965 505.034H310.724C310.363 505.034 310.016 505.178 309.761 505.433C309.505 505.689 309.362 506.035 309.362 506.396V525.465C309.362 525.826 309.505 526.173 309.761 526.428C310.016 526.684 310.363 526.827 310.724 526.827H312.086C312.447 526.827 312.794 526.971 313.049 527.226C313.305 527.482 313.448 527.828 313.448 528.189C313.448 528.551 313.305 528.897 313.049 529.152C312.794 529.408 312.447 529.551 312.086 529.551H310.724C309.64 529.551 308.601 529.121 307.835 528.355C307.068 527.588 306.638 526.549 306.638 525.465V506.396C306.638 505.313 307.068 504.273 307.835 503.507C308.601 502.741 309.64 502.31 310.724 502.31H337.965C339.049 502.31 340.088 502.741 340.855 503.507C341.621 504.273 342.051 505.313 342.051 506.396Z" fill="#1A3A5C"/>
<path d="M359.852 528.793V505.52H362.671V515.884H375.08V505.52H377.898V528.793H375.08V518.384H362.671V528.793H359.852ZM383.54 528.793V505.52H397.585V508.02H386.358V515.884H396.858V518.384H386.358V526.293H397.767V528.793H383.54ZM415.392 511.338C415.256 510.187 414.703 509.293 413.733 508.657C412.763 508.02 411.574 507.702 410.165 507.702C409.135 507.702 408.233 507.869 407.46 508.202C406.695 508.535 406.097 508.994 405.665 509.577C405.241 510.16 405.028 510.823 405.028 511.566C405.028 512.187 405.176 512.721 405.472 513.168C405.775 513.607 406.161 513.975 406.631 514.27C407.1 514.558 407.593 514.797 408.108 514.986C408.623 515.168 409.097 515.316 409.528 515.429L411.892 516.066C412.498 516.225 413.172 516.444 413.915 516.725C414.665 517.005 415.381 517.388 416.063 517.873C416.752 518.35 417.32 518.963 417.767 519.713C418.214 520.463 418.438 521.384 418.438 522.475C418.438 523.732 418.108 524.869 417.449 525.884C416.797 526.899 415.843 527.706 414.585 528.304C413.335 528.903 411.816 529.202 410.028 529.202C408.362 529.202 406.919 528.933 405.699 528.395C404.487 527.857 403.532 527.107 402.835 526.145C402.146 525.183 401.756 524.066 401.665 522.793H404.574C404.65 523.672 404.945 524.399 405.46 524.975C405.983 525.543 406.642 525.967 407.438 526.248C408.241 526.52 409.104 526.657 410.028 526.657C411.104 526.657 412.07 526.482 412.926 526.134C413.782 525.778 414.46 525.285 414.96 524.657C415.46 524.02 415.71 523.278 415.71 522.429C415.71 521.657 415.494 521.028 415.063 520.543C414.631 520.058 414.063 519.664 413.358 519.361C412.653 519.058 411.892 518.793 411.074 518.566L408.21 517.748C406.392 517.225 404.953 516.479 403.892 515.509C402.832 514.539 402.301 513.27 402.301 511.702C402.301 510.399 402.653 509.263 403.358 508.293C404.07 507.316 405.025 506.558 406.222 506.02C407.426 505.475 408.771 505.202 410.256 505.202C411.756 505.202 413.089 505.471 414.256 506.009C415.422 506.539 416.347 507.266 417.028 508.191C417.718 509.115 418.082 510.164 418.119 511.338H415.392Z" fill="#1A3A5C"/>
<circle cx="459.189" cy="517.293" r="9.53447" fill="white"/>
<circle cx="459.189" cy="517.293" r="8.53447" stroke="#1CCFE3" stroke-opacity="0.4" stroke-width="2"/>
<rect x="281.439" y="588.112" width="208.396" height="74.9137" rx="15.6638" fill="#F3EAFA"/>
<rect x="281.439" y="588.112" width="208.396" height="74.9137" rx="15.6638" stroke="#EDD6FF" stroke-width="1.36207"/>
<path d="M337.965 626.931H310.724C310.002 626.931 309.309 627.218 308.798 627.729C308.287 628.24 308 628.932 308 629.655V637.827C308 638.55 308.287 639.243 308.798 639.754C309.309 640.264 310.002 640.551 310.724 640.551H337.965C338.688 640.551 339.381 640.264 339.892 639.754C340.403 639.243 340.69 638.55 340.69 637.827V629.655C340.69 628.932 340.403 628.24 339.892 627.729C339.381 627.218 338.688 626.931 337.965 626.931ZM337.965 637.827H310.724V629.655H337.965V637.827ZM337.965 610.586H310.724C310.002 610.586 309.309 610.873 308.798 611.384C308.287 611.895 308 612.588 308 613.31V621.482C308 622.205 308.287 622.898 308.798 623.409C309.309 623.92 310.002 624.207 310.724 624.207H337.965C338.688 624.207 339.381 623.92 339.892 623.409C340.403 622.898 340.69 622.205 340.69 621.482V613.31C340.69 612.588 340.403 611.895 339.892 611.384C339.381 610.873 338.688 610.586 337.965 610.586ZM337.965 621.482H310.724V613.31H337.965V621.482ZM335.241 617.396C335.241 617.8 335.122 618.195 334.897 618.531C334.673 618.867 334.353 619.129 333.98 619.284C333.607 619.438 333.196 619.479 332.8 619.4C332.403 619.321 332.039 619.127 331.754 618.841C331.468 618.555 331.273 618.191 331.194 617.795C331.116 617.399 331.156 616.988 331.311 616.614C331.465 616.241 331.727 615.922 332.063 615.697C332.399 615.473 332.794 615.353 333.198 615.353C333.74 615.353 334.26 615.568 334.643 615.952C335.026 616.335 335.241 616.854 335.241 617.396ZM335.241 633.741C335.241 634.145 335.122 634.54 334.897 634.876C334.673 635.212 334.353 635.474 333.98 635.629C333.607 635.783 333.196 635.824 332.8 635.745C332.403 635.666 332.039 635.472 331.754 635.186C331.468 634.9 331.273 634.536 331.194 634.14C331.116 633.743 331.156 633.333 331.311 632.959C331.465 632.586 331.727 632.267 332.063 632.042C332.399 631.818 332.794 631.698 333.198 631.698C333.74 631.698 334.26 631.913 334.643 632.296C335.026 632.68 335.241 633.199 335.241 633.741Z" fill="#1A3A5C"/>
<path d="M359.852 613.796H363.216L371.125 633.114H371.398L379.307 613.796H382.671V637.069H380.034V619.387H379.807L372.534 637.069H369.989L362.716 619.387H362.489V637.069H359.852V613.796ZM395.503 637.069H388.321V613.796H395.821C398.079 613.796 400.011 614.262 401.617 615.194C403.223 616.118 404.454 617.447 405.31 619.182C406.166 620.91 406.594 622.978 406.594 625.387C406.594 627.811 406.162 629.898 405.298 631.648C404.435 633.391 403.177 634.731 401.526 635.671C399.874 636.603 397.867 637.069 395.503 637.069ZM391.139 634.569H395.321C397.245 634.569 398.84 634.197 400.105 633.455C401.37 632.713 402.314 631.656 402.935 630.285C403.556 628.913 403.867 627.281 403.867 625.387C403.867 623.508 403.56 621.891 402.946 620.535C402.332 619.171 401.416 618.125 400.196 617.398C398.976 616.663 397.457 616.296 395.639 616.296H391.139V634.569ZM411.321 613.796H414.685L422.594 633.114H422.867L430.776 613.796H434.139V637.069H431.503V619.387H431.276L424.003 637.069H421.457L414.185 619.387H413.957V637.069H411.321V613.796Z" fill="#1A3A5C"/>
<circle cx="459.189" cy="625.569" r="9.53447" fill="white"/>
<circle cx="459.189" cy="625.569" r="8.53447" stroke="#A258DA" stroke-opacity="0.4" stroke-width="2"/>
<rect x="281.439" y="696.388" width="311.914" height="74.9137" rx="15.6638" fill="#E0FBFF"/>
<rect x="281.439" y="696.388" width="311.914" height="74.9137" rx="15.6638" stroke="#B5F8FF" stroke-width="1.36207"/>
<path d="M339.327 721.586H332.517V720.224C332.517 719.14 332.086 718.101 331.32 717.335C330.554 716.568 329.515 716.138 328.431 716.138H320.258C319.175 716.138 318.135 716.568 317.369 717.335C316.603 718.101 316.172 719.14 316.172 720.224V721.586H309.362C308.639 721.586 307.946 721.873 307.436 722.384C306.925 722.895 306.638 723.588 306.638 724.31V746.103C306.638 746.826 306.925 747.519 307.436 748.029C307.946 748.54 308.639 748.827 309.362 748.827H339.327C340.05 748.827 340.743 748.54 341.254 748.029C341.764 747.519 342.051 746.826 342.051 746.103V724.31C342.051 723.588 341.764 722.895 341.254 722.384C340.743 721.873 340.05 721.586 339.327 721.586ZM309.362 731.12H339.327V739.293H309.362V731.12ZM318.896 720.224C318.896 719.863 319.04 719.516 319.295 719.261C319.551 719.005 319.897 718.862 320.258 718.862H328.431C328.792 718.862 329.138 719.005 329.394 719.261C329.649 719.516 329.793 719.863 329.793 720.224V721.586H318.896V720.224ZM339.327 724.31V728.396H309.362V724.31H339.327ZM339.327 746.103H309.362V742.017H339.327V746.103Z" fill="#1A3A5C"/>
<path d="M372.58 727.89C372.443 726.738 371.89 725.844 370.921 725.208C369.951 724.572 368.761 724.254 367.352 724.254C366.322 724.254 365.421 724.42 364.648 724.754C363.883 725.087 363.284 725.545 362.852 726.129C362.428 726.712 362.216 727.375 362.216 728.117C362.216 728.738 362.364 729.273 362.659 729.719C362.962 730.159 363.349 730.526 363.818 730.822C364.288 731.11 364.78 731.348 365.296 731.538C365.811 731.719 366.284 731.867 366.716 731.981L369.08 732.617C369.686 732.776 370.36 732.996 371.102 733.276C371.852 733.557 372.568 733.939 373.25 734.424C373.939 734.901 374.508 735.515 374.955 736.265C375.402 737.015 375.625 737.935 375.625 739.026C375.625 740.284 375.296 741.42 374.636 742.435C373.985 743.451 373.03 744.257 371.773 744.856C370.523 745.454 369.004 745.754 367.216 745.754C365.549 745.754 364.106 745.485 362.886 744.947C361.674 744.409 360.72 743.659 360.023 742.697C359.333 741.735 358.943 740.617 358.852 739.344H361.761C361.837 740.223 362.133 740.951 362.648 741.526C363.171 742.094 363.83 742.519 364.625 742.799C365.428 743.072 366.292 743.208 367.216 743.208C368.292 743.208 369.258 743.034 370.114 742.685C370.97 742.329 371.648 741.837 372.148 741.208C372.648 740.572 372.898 739.829 372.898 738.981C372.898 738.208 372.682 737.579 372.25 737.094C371.818 736.61 371.25 736.216 370.546 735.913C369.841 735.61 369.08 735.344 368.261 735.117L365.398 734.299C363.58 733.776 362.14 733.03 361.08 732.06C360.019 731.091 359.489 729.822 359.489 728.254C359.489 726.951 359.841 725.814 360.546 724.844C361.258 723.867 362.212 723.11 363.409 722.572C364.614 722.026 365.958 721.754 367.443 721.754C368.943 721.754 370.277 722.023 371.443 722.56C372.61 723.091 373.534 723.818 374.216 724.742C374.905 725.666 375.269 726.716 375.307 727.89H372.58ZM387.213 745.708C385.531 745.708 384.081 745.337 382.861 744.594C381.649 743.844 380.713 742.799 380.054 741.458C379.403 740.11 379.077 738.541 379.077 736.754C379.077 734.966 379.403 733.39 380.054 732.026C380.713 730.655 381.63 729.587 382.804 728.822C383.986 728.049 385.365 727.663 386.94 727.663C387.85 727.663 388.747 727.814 389.634 728.117C390.52 728.42 391.327 728.913 392.054 729.594C392.781 730.269 393.361 731.163 393.793 732.276C394.225 733.39 394.44 734.761 394.44 736.39V737.526H380.986V735.208H391.713C391.713 734.223 391.516 733.344 391.122 732.572C390.736 731.799 390.183 731.189 389.463 730.742C388.751 730.295 387.91 730.072 386.94 730.072C385.872 730.072 384.948 730.337 384.168 730.867C383.395 731.39 382.8 732.072 382.384 732.913C381.967 733.754 381.759 734.655 381.759 735.617V737.163C381.759 738.481 381.986 739.598 382.44 740.515C382.903 741.424 383.543 742.117 384.361 742.594C385.179 743.064 386.13 743.299 387.213 743.299C387.918 743.299 388.554 743.201 389.122 743.004C389.698 742.799 390.194 742.496 390.611 742.094C391.028 741.685 391.35 741.178 391.577 740.572L394.168 741.299C393.895 742.178 393.437 742.951 392.793 743.617C392.149 744.276 391.353 744.791 390.406 745.163C389.459 745.526 388.395 745.708 387.213 745.708ZM398.52 745.344V727.89H401.111V730.526H401.293C401.611 729.663 402.187 728.962 403.02 728.424C403.853 727.886 404.793 727.617 405.838 727.617C406.035 727.617 406.281 727.621 406.577 727.629C406.872 727.636 407.096 727.648 407.247 727.663V730.39C407.156 730.367 406.948 730.333 406.622 730.288C406.304 730.235 405.967 730.208 405.611 730.208C404.762 730.208 404.005 730.386 403.338 730.742C402.679 731.091 402.156 731.576 401.77 732.197C401.391 732.81 401.202 733.511 401.202 734.299V745.344H398.52ZM425.23 727.89L418.776 745.344H416.048L409.594 727.89H412.503L417.321 741.799H417.503L422.321 727.89H425.23ZM428.77 745.344V727.89H431.452V745.344H428.77ZM430.134 724.981C429.611 724.981 429.16 724.803 428.781 724.447C428.41 724.091 428.225 723.663 428.225 723.163C428.225 722.663 428.41 722.235 428.781 721.879C429.16 721.523 429.611 721.344 430.134 721.344C430.656 721.344 431.103 721.523 431.475 721.879C431.853 722.235 432.043 722.663 432.043 723.163C432.043 723.663 431.853 724.091 431.475 724.447C431.103 724.803 430.656 724.981 430.134 724.981ZM443.455 745.708C441.818 745.708 440.409 745.322 439.227 744.549C438.046 743.776 437.136 742.712 436.5 741.356C435.864 740 435.546 738.451 435.546 736.708C435.546 734.935 435.871 733.371 436.523 732.015C437.182 730.651 438.099 729.587 439.273 728.822C440.455 728.049 441.833 727.663 443.409 727.663C444.636 727.663 445.743 727.89 446.727 728.344C447.712 728.799 448.519 729.435 449.148 730.254C449.777 731.072 450.167 732.026 450.318 733.117H447.636C447.432 732.322 446.977 731.617 446.273 731.004C445.576 730.382 444.636 730.072 443.455 730.072C442.409 730.072 441.493 730.344 440.705 730.89C439.924 731.428 439.314 732.189 438.875 733.174C438.443 734.151 438.227 735.299 438.227 736.617C438.227 737.966 438.439 739.14 438.864 740.14C439.296 741.14 439.902 741.916 440.682 742.469C441.47 743.023 442.394 743.299 443.455 743.299C444.152 743.299 444.784 743.178 445.352 742.935C445.921 742.693 446.402 742.344 446.796 741.89C447.189 741.435 447.47 740.89 447.636 740.254H450.318C450.167 741.284 449.792 742.212 449.193 743.038C448.602 743.856 447.818 744.507 446.841 744.992C445.871 745.469 444.743 745.708 443.455 745.708ZM461.557 745.708C459.875 745.708 458.424 745.337 457.205 744.594C455.993 743.844 455.057 742.799 454.398 741.458C453.746 740.11 453.421 738.541 453.421 736.754C453.421 734.966 453.746 733.39 454.398 732.026C455.057 730.655 455.974 729.587 457.148 728.822C458.33 728.049 459.708 727.663 461.284 727.663C462.193 727.663 463.091 727.814 463.977 728.117C464.864 728.42 465.671 728.913 466.398 729.594C467.125 730.269 467.705 731.163 468.136 732.276C468.568 733.39 468.784 734.761 468.784 736.39V737.526H455.33V735.208H466.057C466.057 734.223 465.86 733.344 465.466 732.572C465.08 731.799 464.527 731.189 463.807 730.742C463.095 730.295 462.254 730.072 461.284 730.072C460.216 730.072 459.292 730.337 458.511 730.867C457.739 731.39 457.144 732.072 456.727 732.913C456.311 733.754 456.102 734.655 456.102 735.617V737.163C456.102 738.481 456.33 739.598 456.784 740.515C457.246 741.424 457.886 742.117 458.705 742.594C459.523 743.064 460.474 743.299 461.557 743.299C462.261 743.299 462.898 743.201 463.466 743.004C464.042 742.799 464.538 742.496 464.955 742.094C465.371 741.685 465.693 741.178 465.921 740.572L468.511 741.299C468.239 742.178 467.78 742.951 467.136 743.617C466.493 744.276 465.697 744.791 464.75 745.163C463.803 745.526 462.739 745.708 461.557 745.708ZM485.227 731.799L482.818 732.481C482.667 732.079 482.443 731.689 482.148 731.31C481.86 730.924 481.466 730.606 480.966 730.356C480.466 730.106 479.826 729.981 479.046 729.981C477.977 729.981 477.087 730.227 476.375 730.719C475.671 731.204 475.318 731.822 475.318 732.572C475.318 733.238 475.561 733.765 476.046 734.151C476.53 734.538 477.288 734.86 478.318 735.117L480.909 735.754C482.47 736.132 483.633 736.712 484.398 737.492C485.163 738.265 485.546 739.261 485.546 740.481C485.546 741.481 485.258 742.375 484.682 743.163C484.114 743.951 483.318 744.572 482.296 745.026C481.273 745.481 480.083 745.708 478.727 745.708C476.947 745.708 475.474 745.322 474.307 744.549C473.14 743.776 472.402 742.648 472.091 741.163L474.636 740.526C474.879 741.466 475.337 742.17 476.011 742.64C476.693 743.11 477.583 743.344 478.682 743.344C479.932 743.344 480.924 743.079 481.659 742.549C482.402 742.011 482.773 741.367 482.773 740.617C482.773 740.011 482.561 739.504 482.136 739.094C481.712 738.678 481.061 738.367 480.182 738.163L477.273 737.481C475.674 737.102 474.5 736.515 473.75 735.719C473.008 734.916 472.636 733.913 472.636 732.708C472.636 731.723 472.913 730.852 473.466 730.094C474.027 729.337 474.788 728.742 475.75 728.31C476.72 727.879 477.818 727.663 479.046 727.663C480.773 727.663 482.129 728.041 483.114 728.799C484.106 729.557 484.811 730.557 485.227 731.799Z" fill="#1A3A5C"/>
<circle cx="562.706" cy="733.845" r="9.53447" fill="white"/>
<circle cx="562.706" cy="733.845" r="8.53447" stroke="#1CCFE3" stroke-opacity="0.4" stroke-width="2"/>
<rect x="281.439" y="804.663" width="424.965" height="74.9137" rx="15.6638" fill="#F3EAFA"/>
<rect x="281.439" y="804.663" width="424.965" height="74.9137" rx="15.6638" stroke="#EDD6FF" stroke-width="1.36207"/>
<path d="M339.327 827.137H325.707V824.413C325.707 824.052 325.563 823.706 325.308 823.45C325.052 823.195 324.706 823.051 324.345 823.051C323.983 823.051 323.637 823.195 323.381 823.45C323.126 823.706 322.983 824.052 322.983 824.413V827.137H309.362C308.639 827.137 307.946 827.424 307.436 827.935C306.925 828.446 306.638 829.139 306.638 829.862V850.293C306.638 851.015 306.925 851.708 307.436 852.219C307.946 852.73 308.639 853.017 309.362 853.017H316.063L312.384 857.614C312.158 857.896 312.054 858.256 312.094 858.616C312.134 858.975 312.315 859.303 312.597 859.529C312.879 859.755 313.239 859.859 313.599 859.819C313.958 859.78 314.286 859.599 314.512 859.316L319.55 853.017H329.139L334.177 859.316C334.289 859.456 334.427 859.572 334.584 859.659C334.741 859.745 334.913 859.8 335.091 859.819C335.268 859.839 335.449 859.824 335.62 859.774C335.792 859.724 335.953 859.641 336.092 859.529C336.232 859.417 336.349 859.279 336.435 859.122C336.521 858.966 336.576 858.793 336.596 858.616C336.615 858.438 336.6 858.258 336.55 858.086C336.5 857.914 336.417 857.753 336.305 857.614L332.626 853.017H339.327C340.05 853.017 340.743 852.73 341.254 852.219C341.764 851.708 342.051 851.015 342.051 850.293V829.862C342.051 829.139 341.764 828.446 341.254 827.935C340.743 827.424 340.05 827.137 339.327 827.137ZM339.327 850.293H309.362V829.862H339.327V850.293ZM320.258 840.758V844.844C320.258 845.206 320.115 845.552 319.859 845.807C319.604 846.063 319.258 846.206 318.896 846.206C318.535 846.206 318.189 846.063 317.933 845.807C317.678 845.552 317.534 845.206 317.534 844.844V840.758C317.534 840.397 317.678 840.05 317.933 839.795C318.189 839.54 318.535 839.396 318.896 839.396C319.258 839.396 319.604 839.54 319.859 839.795C320.115 840.05 320.258 840.397 320.258 840.758ZM325.707 838.034V844.844C325.707 845.206 325.563 845.552 325.308 845.807C325.052 846.063 324.706 846.206 324.345 846.206C323.983 846.206 323.637 846.063 323.381 845.807C323.126 845.552 322.983 845.206 322.983 844.844V838.034C322.983 837.673 323.126 837.326 323.381 837.071C323.637 836.815 323.983 836.672 324.345 836.672C324.706 836.672 325.052 836.815 325.308 837.071C325.563 837.326 325.707 837.673 325.707 838.034ZM331.155 835.31V844.844C331.155 845.206 331.011 845.552 330.756 845.807C330.501 846.063 330.154 846.206 329.793 846.206C329.432 846.206 329.085 846.063 328.83 845.807C328.574 845.552 328.431 845.206 328.431 844.844V835.31C328.431 834.949 328.574 834.602 328.83 834.347C329.085 834.091 329.432 833.948 329.793 833.948C330.154 833.948 330.501 834.091 330.756 834.347C331.011 834.602 331.155 834.949 331.155 835.31Z" fill="#1A3A5C"/>
<path d="M360.807 853.62H357.852L366.398 830.348H369.307L377.852 853.62H374.898L367.943 834.029H367.761L360.807 853.62ZM361.898 844.529H373.807V847.029H361.898V844.529ZM383.796 843.12V853.62H381.114V836.166H383.705V838.893H383.932C384.341 838.007 384.962 837.295 385.796 836.757C386.629 836.211 387.705 835.939 389.023 835.939C390.205 835.939 391.239 836.181 392.125 836.666C393.011 837.143 393.701 837.87 394.193 838.848C394.686 839.817 394.932 841.045 394.932 842.529V853.62H392.25V842.711C392.25 841.34 391.894 840.272 391.182 839.507C390.47 838.734 389.493 838.348 388.25 838.348C387.394 838.348 386.629 838.533 385.955 838.904C385.288 839.276 384.761 839.817 384.375 840.529C383.989 841.242 383.796 842.105 383.796 843.12ZM404.969 854.029C403.863 854.029 402.859 853.821 401.957 853.404C401.056 852.98 400.34 852.37 399.81 851.575C399.279 850.772 399.014 849.802 399.014 848.666C399.014 847.666 399.211 846.855 399.605 846.234C399.999 845.605 400.526 845.113 401.185 844.757C401.844 844.401 402.571 844.136 403.367 843.961C404.17 843.779 404.976 843.636 405.787 843.529C406.848 843.393 407.707 843.291 408.367 843.223C409.033 843.147 409.518 843.022 409.821 842.848C410.132 842.673 410.287 842.37 410.287 841.939V841.848C410.287 840.726 409.98 839.855 409.367 839.234C408.761 838.613 407.84 838.302 406.605 838.302C405.325 838.302 404.321 838.582 403.594 839.143C402.867 839.704 402.355 840.302 402.06 840.939L399.514 840.029C399.969 838.969 400.575 838.143 401.332 837.552C402.098 836.954 402.931 836.537 403.832 836.302C404.742 836.06 405.636 835.939 406.514 835.939C407.075 835.939 407.719 836.007 408.446 836.143C409.181 836.272 409.889 836.541 410.571 836.95C411.261 837.359 411.832 837.976 412.287 838.802C412.742 839.628 412.969 840.734 412.969 842.12V853.62H410.287V851.257H410.151C409.969 851.636 409.666 852.041 409.242 852.473C408.817 852.904 408.253 853.272 407.548 853.575C406.844 853.878 405.984 854.029 404.969 854.029ZM405.378 851.62C406.439 851.62 407.332 851.412 408.06 850.995C408.795 850.579 409.348 850.041 409.719 849.382C410.098 848.723 410.287 848.029 410.287 847.302V844.848C410.173 844.984 409.923 845.109 409.537 845.223C409.158 845.329 408.719 845.423 408.219 845.507C407.726 845.582 407.245 845.651 406.776 845.711C406.314 845.764 405.939 845.81 405.651 845.848C404.954 845.939 404.302 846.086 403.696 846.291C403.098 846.488 402.613 846.787 402.242 847.189C401.878 847.582 401.696 848.12 401.696 848.802C401.696 849.734 402.041 850.439 402.73 850.916C403.427 851.386 404.31 851.62 405.378 851.62ZM420.546 830.348V853.62H417.864V830.348H420.546ZM427.185 860.166C426.73 860.166 426.325 860.128 425.969 860.052C425.613 859.984 425.367 859.916 425.23 859.848L425.912 857.484C426.564 857.651 427.139 857.711 427.639 857.666C428.139 857.62 428.582 857.397 428.969 856.995C429.363 856.601 429.723 855.961 430.048 855.075L430.548 853.711L424.094 836.166H427.003L431.821 850.075H432.003L436.821 836.166H439.73L432.321 856.166C431.988 857.067 431.575 857.814 431.082 858.404C430.59 859.003 430.018 859.446 429.367 859.734C428.723 860.022 427.995 860.166 427.185 860.166ZM450.861 836.166V838.439H441.815V836.166H450.861ZM444.452 831.984H447.134V848.62C447.134 849.378 447.243 849.946 447.463 850.325C447.69 850.696 447.978 850.946 448.327 851.075C448.683 851.196 449.058 851.257 449.452 851.257C449.747 851.257 449.99 851.242 450.179 851.211C450.368 851.173 450.52 851.143 450.634 851.12L451.179 853.529C450.997 853.598 450.743 853.666 450.418 853.734C450.092 853.81 449.679 853.848 449.179 853.848C448.421 853.848 447.679 853.685 446.952 853.359C446.232 853.033 445.634 852.537 445.156 851.87C444.687 851.204 444.452 850.363 444.452 849.348V831.984ZM454.895 853.62V836.166H457.577V853.62H454.895ZM456.259 833.257C455.736 833.257 455.285 833.079 454.906 832.723C454.535 832.367 454.35 831.939 454.35 831.439C454.35 830.939 454.535 830.511 454.906 830.154C455.285 829.798 455.736 829.62 456.259 829.62C456.781 829.62 457.228 829.798 457.6 830.154C457.978 830.511 458.168 830.939 458.168 831.439C458.168 831.939 457.978 832.367 457.6 832.723C457.228 833.079 456.781 833.257 456.259 833.257ZM469.58 853.984C467.943 853.984 466.534 853.598 465.352 852.825C464.171 852.052 463.261 850.988 462.625 849.632C461.989 848.276 461.671 846.726 461.671 844.984C461.671 843.211 461.996 841.647 462.648 840.291C463.307 838.927 464.224 837.863 465.398 837.098C466.58 836.325 467.958 835.939 469.534 835.939C470.761 835.939 471.868 836.166 472.852 836.62C473.837 837.075 474.644 837.711 475.273 838.529C475.902 839.348 476.292 840.302 476.443 841.393H473.761C473.557 840.598 473.102 839.893 472.398 839.279C471.701 838.658 470.761 838.348 469.58 838.348C468.534 838.348 467.618 838.62 466.83 839.166C466.049 839.704 465.439 840.465 465 841.45C464.568 842.427 464.352 843.575 464.352 844.893C464.352 846.242 464.564 847.416 464.989 848.416C465.421 849.416 466.027 850.192 466.807 850.745C467.595 851.298 468.519 851.575 469.58 851.575C470.277 851.575 470.909 851.454 471.477 851.211C472.046 850.969 472.527 850.62 472.921 850.166C473.314 849.711 473.595 849.166 473.761 848.529H476.443C476.292 849.56 475.917 850.488 475.318 851.314C474.727 852.132 473.943 852.783 472.966 853.268C471.996 853.745 470.868 853.984 469.58 853.984ZM492.727 840.075L490.318 840.757C490.167 840.355 489.943 839.965 489.648 839.586C489.36 839.2 488.966 838.882 488.466 838.632C487.966 838.382 487.326 838.257 486.546 838.257C485.477 838.257 484.587 838.503 483.875 838.995C483.171 839.48 482.818 840.098 482.818 840.848C482.818 841.514 483.061 842.041 483.546 842.427C484.03 842.814 484.788 843.136 485.818 843.393L488.409 844.029C489.97 844.408 491.133 844.988 491.898 845.768C492.663 846.541 493.046 847.537 493.046 848.757C493.046 849.757 492.758 850.651 492.182 851.439C491.614 852.226 490.818 852.848 489.796 853.302C488.773 853.757 487.583 853.984 486.227 853.984C484.447 853.984 482.974 853.598 481.807 852.825C480.64 852.052 479.902 850.923 479.591 849.439L482.136 848.802C482.379 849.742 482.837 850.446 483.511 850.916C484.193 851.386 485.083 851.62 486.182 851.62C487.432 851.62 488.424 851.355 489.159 850.825C489.902 850.287 490.273 849.643 490.273 848.893C490.273 848.287 490.061 847.779 489.636 847.37C489.212 846.954 488.561 846.643 487.682 846.439L484.773 845.757C483.174 845.378 482 844.791 481.25 843.995C480.508 843.192 480.136 842.189 480.136 840.984C480.136 839.999 480.413 839.128 480.966 838.37C481.527 837.613 482.288 837.018 483.25 836.586C484.22 836.154 485.318 835.939 486.546 835.939C488.273 835.939 489.629 836.317 490.614 837.075C491.606 837.832 492.311 838.832 492.727 840.075Z" fill="#1A3A5C"/>
<circle cx="675.758" cy="842.12" r="9.53447" fill="white"/>
<circle cx="675.758" cy="842.12" r="8.53447" stroke="#A258DA" stroke-opacity="0.4" stroke-width="2"/>
<path d="M675.836 417.758L675.836 506.413C675.836 512.431 670.957 517.31 664.939 517.31H467.758" stroke="url(#paint0_linear_484_1531)" stroke-width="3" stroke-dasharray="4 4"/>
<path d="M459.008 525.103L459.008 616.09" stroke="url(#paint1_linear_484_1531)" stroke-width="3" stroke-dasharray="4 4"/>
<path d="M468.258 625.258L493.689 625.258L551.947 625.258C557.965 625.258 562.844 630.137 562.844 636.155L562.844 725.845" stroke="url(#paint2_linear_484_1531)" stroke-width="3" stroke-dasharray="4 4"/>
<path d="M571.758 732.758H735.461C741.431 732.758 746.289 737.562 746.357 743.532L747.34 830.463C747.409 836.528 742.511 841.482 736.445 841.482H684.695" stroke="url(#paint3_linear_484_1531)" stroke-width="3" stroke-dasharray="4 4"/>
<path d="M637.758 300.758H735.827C741.845 300.758 746.724 305.637 746.724 311.655V398.362C746.724 404.38 741.845 409.258 735.827 409.258H684.194" stroke="url(#paint4_linear_484_1531)" stroke-width="3" stroke-dasharray="4 4"/>
<defs>
<filter id="filter0_f_484_1531" x="600" y="600" width="543.465" height="543.465" filterUnits="userSpaceOnUse" color-interpolation-filters="sRGB">
<feFlood flood-opacity="0" result="BackgroundImageFix"/>
<feBlend mode="normal" in="SourceGraphic" in2="BackgroundImageFix" result="shape"/>
<feGaussianBlur stdDeviation="104.879" result="effect1_foregroundBlur_484_1531"/>
</filter>
<filter id="filter1_f_484_1531" x="-0.00012207" y="-0.00012207" width="543.465" height="543.465" filterUnits="userSpaceOnUse" color-interpolation-filters="sRGB">
<feFlood flood-opacity="0" result="BackgroundImageFix"/>
<feBlend mode="normal" in="SourceGraphic" in2="BackgroundImageFix" result="shape"/>
<feGaussianBlur stdDeviation="104.879" result="effect1_foregroundBlur_484_1531"/>
</filter>
<linearGradient id="paint0_linear_484_1531" x1="628.844" y1="401.413" x2="628.844" y2="448.405" gradientUnits="userSpaceOnUse">
<stop stop-color="#DABCF0"/>
<stop offset="0.413462" stop-color="#DABCF0"/>
<stop offset="0.754808" stop-color="#A4ECF4"/>
<stop offset="1" stop-color="#A4ECF4"/>
</linearGradient>
<linearGradient id="paint1_linear_484_1531" x1="-1.72225e+13" y1="572.095" x2="-1.72225e+13" y2="525.103" gradientUnits="userSpaceOnUse">
<stop stop-color="#DABCF0"/>
<stop offset="0.336538" stop-color="#DABCF0"/>
<stop offset="0.552885" stop-color="#A4ECF4"/>
<stop offset="1" stop-color="#A4ECF4"/>
</linearGradient>
<linearGradient id="paint2_linear_484_1531" x1="543.508" y1="652.474" x2="543.508" y2="699.465" gradientUnits="userSpaceOnUse">
<stop stop-color="#DABCF0"/>
<stop offset="0.442308" stop-color="#DABCF0"/>
<stop offset="0.682692" stop-color="#A4ECF4"/>
<stop offset="1" stop-color="#A4ECF4"/>
</linearGradient>
<linearGradient id="paint3_linear_484_1531" x1="555.348" y1="808.55" x2="555.348" y2="761.947" gradientUnits="userSpaceOnUse">
<stop stop-color="#DABCF0"/>
<stop offset="0.384615" stop-color="#DABCF0"/>
<stop offset="0.596154" stop-color="#A4ECF4"/>
<stop offset="1" stop-color="#A4ECF4"/>
</linearGradient>
<linearGradient id="paint4_linear_484_1531" x1="747.384" y1="386.037" x2="747.384" y2="338.461" gradientUnits="userSpaceOnUse">
<stop stop-color="#DABCF0"/>
<stop offset="0.2" stop-color="#DABCF0"/>
<stop offset="0.8" stop-color="#A4ECF4"/>
<stop offset="1" stop-color="#A4ECF4"/>
</linearGradient>
</defs>
</svg>
