<svg width="155" height="40" viewBox="0 0 155 40" fill="none" xmlns="http://www.w3.org/2000/svg">
<path d="M3.9082 18.2834V19.2834H18.0415C18.0638 18.9501 18.0971 18.6168 18.1415 18.2834H3.9082Z" fill="#4B0082"/>
<path d="M18.7248 15.95H2.1665V16.95H18.4165C18.5054 16.6111 18.6082 16.2777 18.7248 15.95Z" fill="#4B0082"/>
<path d="M18.0333 20.6167H0V21.6167H18.1333C18.0917 21.2917 18.05 20.9584 18.0333 20.6167Z" fill="#4B0082"/>
<path d="M18.3832 22.95H5.9082V23.95H18.6915C18.5749 23.6222 18.4721 23.2888 18.3832 22.95Z" fill="#4B0082"/>
<path fill-rule="evenodd" clip-rule="evenodd" d="M30.0166 27.75C25.7499 27.75 22.2666 24.275 22.2666 20C22.2666 15.725 25.7499 12.25 30.0166 12.25C34.2916 12.25 37.7666 15.725 37.7666 20C37.7666 24.275 34.2916 27.75 30.0166 27.75ZM30.0166 13.5833C26.4833 13.5833 23.5999 16.4667 23.5999 20C23.5999 23.5417 26.4833 26.4167 30.0166 26.4167C33.5583 26.4167 36.4333 23.5417 36.4333 20C36.4333 16.4667 33.5583 13.5833 30.0166 13.5833Z" fill="#4B0082"/>
<path fill-rule="evenodd" clip-rule="evenodd" d="M46.1667 25.3333C47.4834 25.3333 48.6834 24.8417 49.5917 24.0333C47.725 33.15 39.6667 40 30 40C20.6584 40 12.8167 33.6 10.6167 24.95H19.0917C20.975 29.1083 25.1584 32 30.0167 32C34.7334 32 38.8084 29.2833 40.7667 25.3333H46.1667ZM19.1417 14.95H10.65C12.8834 6.35 20.7 0 30 0C38.3917 0 45.5834 5.175 48.55 12.5H39.3917C37.1917 9.75833 33.8167 8 30.025 8C25.2 8 21.0417 10.85 19.1417 14.95ZM50 20C50 20.1278 50 20.2556 50 20.3833C49.8834 22.4 48.2167 24 46.1667 24H46.15H30.025C27.8167 24 26.025 22.2083 26.025 20C26.025 17.7917 27.8167 16 30.025 16H49.6C49.8667 17.2917 50 18.6333 50 20ZM32.525 20C32.525 18.625 31.4084 17.5 30.025 17.5C28.6417 17.5 27.525 18.625 27.525 20C27.525 21.3833 28.6417 22.5 30.025 22.5C31.4084 22.5 32.525 21.3833 32.525 20Z" fill="url(#paint0_linear_383_1450)"/>
<path fill-rule="evenodd" clip-rule="evenodd" d="M65.125 16.6584H68.6417V22.4751C67.0167 23.6334 64.7833 24.2584 62.7417 24.2584C58.2667 24.2584 55 21.2251 55 16.9584C55 12.6834 58.2667 9.65843 62.825 9.65843C65.45 9.65843 67.575 10.5584 68.9583 12.2251L66.4333 14.5084C65.4667 13.4501 64.3667 12.9501 63.025 12.9501C60.6167 12.9501 59.0083 14.5334 59.0083 16.9584C59.0083 19.3251 60.6167 20.9668 62.9833 20.9668C63.725 20.9668 64.425 20.8251 65.125 20.5084V16.6584ZM78.2667 12.9251V16.3584C77.925 16.3168 77.6833 16.3001 77.4 16.3001C75.8583 16.3001 74.7917 17.0751 74.7917 18.9834V23.9751H70.9833V13.1084H74.6167V14.4084C75.4 13.4251 76.6583 12.9251 78.2667 12.9251ZM79.4083 9.8751C79.4083 8.73343 80.3333 7.8501 81.7333 7.8501C83.1417 7.8501 84.0583 8.6751 84.0583 9.81676C84.0583 11.0251 83.1417 11.9001 81.7333 11.9001C80.3333 11.9001 79.4083 11.0251 79.4083 9.8751ZM79.8333 13.1084H83.6417V23.9751H79.8333V13.1084ZM97.6583 9.1001V23.9834H94.025V22.9001C93.3083 23.7584 92.2417 24.1584 90.8417 24.1584C87.875 24.1584 85.4833 21.9918 85.4833 18.5251C85.4833 15.0751 87.875 12.9334 90.8417 12.9334C92.1 12.9334 93.125 13.2918 93.85 14.0501V9.1001H97.6583ZM93.9083 18.5251C93.9083 16.8834 92.925 15.9584 91.6417 15.9584C90.3333 15.9584 89.35 16.8834 89.35 18.5251C89.35 20.1918 90.3333 21.1334 91.6417 21.1334C92.925 21.1334 93.9083 20.1918 93.9083 18.5251ZM99.5583 16.9584C99.5583 12.6918 102.833 9.65843 107.283 9.65843C109.875 9.65843 111.958 10.6001 113.317 12.3084L110.792 14.5918C109.908 13.5334 108.825 12.9501 107.483 12.9501C105.175 12.9501 103.575 14.5584 103.575 16.9584C103.575 19.3668 105.175 20.9751 107.483 20.9751C108.825 20.9751 109.908 20.3918 110.792 19.3251L113.317 21.6168C111.958 23.3168 109.875 24.2584 107.283 24.2584C102.833 24.2584 99.5583 21.2334 99.5583 16.9584ZM122.183 12.9334V16.3584C121.842 16.3168 121.6 16.3001 121.325 16.3001C119.775 16.3001 118.717 17.0834 118.717 18.9834V23.9834H114.908V13.1084H118.533V14.4168C119.317 13.4334 120.583 12.9334 122.183 12.9334ZM134.7 19.5084H126.8C127.117 20.6084 128.058 21.2501 129.467 21.2501C130.525 21.2501 131.233 20.9501 131.975 20.3084L133.975 22.4001C132.933 23.5584 131.408 24.1584 129.342 24.1584C125.475 24.1584 122.967 21.7751 122.967 18.5251C122.967 15.2584 125.517 12.9334 128.942 12.9334C132.15 12.9334 134.758 14.9751 134.758 18.5668C134.758 18.8501 134.717 19.2084 134.7 19.5084ZM126.742 17.5001H131.192C130.992 16.3584 130.15 15.6418 128.967 15.6418C127.783 15.6418 126.958 16.3584 126.742 17.5001ZM135.667 23.0418L136.808 20.4334C137.808 21.0501 139.275 21.4334 140.6 21.4334C141.883 21.4334 142.3 21.1501 142.3 20.6918C142.3 19.2251 135.883 20.8918 135.883 16.5418C135.883 14.4918 137.767 12.9334 141.175 12.9334C142.7 12.9334 144.392 13.2501 145.475 13.8501L144.325 16.4418C143.242 15.8418 142.158 15.6418 141.2 15.6418C139.917 15.6418 139.458 16.0001 139.458 16.4001C139.458 17.9001 145.85 16.2834 145.85 20.5918C145.85 22.6001 144.008 24.1584 140.475 24.1584C138.633 24.1584 136.725 23.7001 135.667 23.0418ZM155 23.5418C154.333 23.9584 153.35 24.1584 152.35 24.1584C149.567 24.1584 147.942 22.8001 147.942 20.0084V16.3584H146.35V13.5084H147.942V10.6834H151.75V13.5084H154.233V16.3584H151.75V19.9668C151.75 20.7751 152.208 21.2168 152.892 21.2168C153.317 21.2168 153.733 21.0918 154.058 20.8751L155 23.5418Z" fill="url(#paint1_linear_383_1450)"/>
<path d="M58.0707 28.3543H56.604V27.6543H60.3623V28.3543H58.8957V32.0876H58.0707V28.3543Z" fill="#222222"/>
<path d="M68.5208 31.4043V32.0876H65.1958V27.6543H68.4291V28.346H66.0208V29.5043H68.1541V30.1793H66.0208V31.4043H68.5208Z" fill="#222222"/>
<path d="M73.354 29.8668C73.354 28.5501 74.3707 27.5918 75.729 27.5918C76.454 27.5918 77.0707 27.8501 77.479 28.3335L76.954 28.8335C76.629 28.4835 76.229 28.3168 75.7707 28.3168C74.8457 28.3168 74.1873 28.9585 74.1873 29.8668C74.1873 30.7835 74.8457 31.4251 75.7707 31.4251C76.229 31.4251 76.629 31.2585 76.954 30.9001L77.479 31.4085C77.0707 31.8918 76.454 32.1501 75.7207 32.1501C74.3707 32.1501 73.354 31.1918 73.354 29.8668Z" fill="#222222"/>
<path d="M86.2458 27.6543V32.0876H85.4208V30.1876H83.1292V32.0876H82.3125V27.6543H83.1292V29.4876H85.4208V27.6543H86.2458Z" fill="#222222"/>
<path d="M95.0124 27.6543V32.0876H94.3374L91.8958 29.0876V32.0876H91.0791V27.6543H91.7541L94.1958 30.6626V27.6543H95.0124Z" fill="#222222"/>
<path fill-rule="evenodd" clip-rule="evenodd" d="M99.8457 29.8668C99.8457 28.5585 100.862 27.5918 102.229 27.5918C103.604 27.5918 104.621 28.5501 104.621 29.8668C104.621 31.1918 103.604 32.1501 102.229 32.1501C100.862 32.1501 99.8457 31.1835 99.8457 29.8668ZM103.787 29.8668C103.787 28.9668 103.129 28.3168 102.229 28.3168C101.337 28.3168 100.671 28.9668 100.671 29.8668C100.671 30.7751 101.337 31.4251 102.229 31.4251C103.129 31.4251 103.787 30.7751 103.787 29.8668Z" fill="#222222"/>
<path d="M109.454 27.6543H110.271V31.396H112.587V32.0876H109.454V27.6543Z" fill="#222222"/>
<path fill-rule="evenodd" clip-rule="evenodd" d="M117.421 29.8668C117.421 28.5585 118.438 27.5918 119.813 27.5918C121.188 27.5918 122.196 28.5501 122.196 29.8668C122.196 31.1918 121.188 32.1501 119.813 32.1501C118.438 32.1501 117.421 31.1835 117.421 29.8668ZM121.371 29.8668C121.371 28.9668 120.704 28.3168 119.813 28.3168C118.921 28.3168 118.254 28.9668 118.254 29.8668C118.254 30.7751 118.921 31.4251 119.813 31.4251C120.704 31.4251 121.371 30.7751 121.371 29.8668Z" fill="#222222"/>
<path d="M130.37 29.8168H131.154V31.5835C130.687 31.9585 130.045 32.1501 129.412 32.1501C128.037 32.1501 127.029 31.1918 127.029 29.8668C127.029 28.5501 128.037 27.5918 129.429 27.5918C130.17 27.5918 130.787 27.8418 131.204 28.3168L130.687 28.8168C130.337 28.4751 129.937 28.3168 129.462 28.3168C128.52 28.3168 127.854 28.9501 127.854 29.8668C127.854 30.7668 128.52 31.4251 129.462 31.4251C129.779 31.4251 130.087 31.3668 130.37 31.2001V29.8168Z" fill="#222222"/>
<path d="M136.038 27.6543H136.863V32.0876H136.038V27.6543Z" fill="#222222"/>
<path d="M145.021 31.4043V32.0876H141.696V27.6543H144.929V28.346H142.521V29.5043H144.662V30.1793H142.521V31.4043H145.021Z" fill="#222222"/>
<path d="M149.854 31.6168L150.137 30.9751C150.496 31.2668 151.062 31.4668 151.604 31.4668C152.296 31.4668 152.587 31.2168 152.587 30.8918C152.587 29.9335 149.954 30.5585 149.954 28.9168C149.954 28.2001 150.521 27.5918 151.737 27.5918C152.271 27.5918 152.829 27.7335 153.212 27.9835L152.954 28.6251C152.554 28.3918 152.112 28.2751 151.729 28.2751C151.046 28.2751 150.771 28.5418 150.771 28.8751C150.771 29.8168 153.396 29.2085 153.396 30.8335C153.396 31.5418 152.821 32.1501 151.604 32.1501C150.912 32.1501 150.221 31.9335 149.854 31.6168Z" fill="#222222"/>
<defs>
<linearGradient id="paint0_linear_383_1450" x1="10.6167" y1="40" x2="50.6119" y2="0.621422" gradientUnits="userSpaceOnUse">
<stop stop-color="#CCFF00"/>
<stop offset="0.283654" stop-color="#00E5FF"/>
<stop offset="1" stop-color="#4B0082"/>
</linearGradient>
<linearGradient id="paint1_linear_383_1450" x1="31" y1="18.7751" x2="46.387" y2="-25.892" gradientUnits="userSpaceOnUse">
<stop stop-color="#CCFF00"/>
<stop offset="0.246235" stop-color="#00E5FF"/>
<stop offset="0.673789" stop-color="#2B63B8"/>
<stop offset="1" stop-color="#4B0082"/>
</linearGradient>
</defs>
</svg>
