<svg width="262" height="309" viewBox="0 0 262 309" fill="none" xmlns="http://www.w3.org/2000/svg">
<path d="M16.2162 49.4863C29.1124 55.3863 42.7621 61.0619 55.7972 66.72L141.095 104.158C141.018 92.8147 141.213 81.3113 141.032 69.9913C151.314 70.2277 162.341 70.0312 172.679 70.0283L180.56 70.0154C186.366 69.9979 186.151 70.0111 191.526 72.3814L200.37 76.2995L235.568 91.7559L235.664 97.8724C235.781 106.971 235.592 116.109 235.362 125.205C234.797 147.6 235.367 172.529 218.61 189.72C215.07 193.46 207.864 197.572 203.044 199.447C197.768 201.503 192.719 202.936 187.132 203.855C186.394 203.977 183.399 204.587 182.914 204.408C176.505 202.029 167.865 197.976 161.758 195.279L109.562 172.397C109.707 175.439 109.565 178.754 109.61 181.827C109.729 189.963 109.419 198.392 109.663 206.497C106.942 206.336 104.131 206.481 101.356 206.401C75.6704 205.705 40.987 206.848 25.0809 182.336C12.3225 162.676 14.8954 134.301 14.056 111.777C13.9456 108.815 13.7324 105.529 13.7844 102.606C13.8569 98.5316 14.0884 94.4793 14.1372 90.3915C14.1624 81.2007 14.4221 72.0118 14.9164 62.8344C15.1872 58.1437 15.2483 54.1129 16.2162 49.4863ZM109.687 135.874C105.18 135.711 100.185 135.815 95.6497 135.816L70.8694 135.819C66.9021 135.819 61.3945 135.995 57.56 135.773L56.6407 137.754C60.5686 139.305 64.6587 141.259 68.5572 142.952L101.554 157.464L125.172 167.793C129.583 169.699 136.929 172.687 141.088 174.914L141.068 152.399C141.068 148.875 141.208 144.029 141.022 140.624C152.892 140.821 165.22 140.653 177.122 140.651L187.091 140.651C188.858 140.651 191.403 140.584 193.087 140.736C193.397 139.982 193.586 139.503 194.008 138.791C191.61 137.825 188.787 136.443 186.323 135.375C178.754 132.104 171.204 128.786 163.675 125.422L109.592 101.702L109.61 123.012C109.609 126.584 109.427 132.539 109.687 135.874Z" fill="#D1136A"/>
<path d="M141.023 0C145.619 0.248694 150.493 -0.0509851 155.073 0.243461C162.273 0.706286 170.077 0.473384 177.206 1.21084C191.178 2.65601 207.237 6.48169 217.946 16.1888C228.258 25.5348 232.614 40.8283 234.166 54.2138C235.33 64.8161 234.94 75.7991 235.52 86.3681C234.343 85.6816 232.51 84.9508 231.211 84.3877L223.465 81.0196L191.29 67.0374L109.569 31.0955C109.72 33.3268 109.545 37.5256 109.579 39.9636C109.862 48.0738 109.512 56.9966 109.657 65.2506L78.0784 65.2446L69.9139 65.2736C63.5239 65.2997 64.0231 65.1266 58.1116 62.5838C54.399 60.9979 50.6967 59.3886 47.0047 57.7556L17.0127 44.6431C19.1938 34.8698 23.1548 24.8262 30.2681 17.5569C39.8524 7.76233 54.5301 3.40598 67.7939 1.8914C68.4824 1.81278 69.0977 1.97058 69.7191 2.23245C73.0971 3.65587 76.4177 5.21673 79.7808 6.67286L110.078 19.9608L129.112 28.2303C132.561 29.7228 137.882 31.9162 141.087 33.5925L141.071 10.8631C141.071 7.33909 141.143 3.50394 141.023 0Z" fill="#D1136A"/>
<path d="M77.6328 225.558C77.7556 225.547 77.8786 225.538 78.0015 225.529C84.336 225.065 92.4626 226.496 97.2415 230.85C105.433 238.313 103.345 247.055 103.943 256.163C103.249 256.089 102.518 256.092 101.818 256.095C97.4635 256.117 93.0539 255.975 88.7061 256.179C88.732 251.663 89.1551 246.144 87.7047 241.834C86.2268 237.303 80.0256 236.309 76.1368 237.928C70.3656 240.333 71.4239 249.084 71.4313 254.094L71.4482 268.378L71.4359 280.935C71.4273 286.025 70.4732 293.726 76.5691 295.844C80.9036 297.35 84.8816 296.008 88.8206 294.136C88.5679 292.402 88.6568 288.931 88.6573 287.056C88.6343 283.267 88.6547 279.477 88.719 275.689C85.8096 275.654 82.6564 275.639 79.7651 275.748C79.6748 271.928 79.7511 267.824 79.7211 263.964L83.3815 263.927C90.2241 263.967 97.067 263.953 103.909 263.886C103.626 275.295 104.021 286.841 103.863 298.264C103.823 301.214 103.803 304.359 103.934 307.292C102.253 307.086 98.4795 307.212 96.7464 307.241C96.0205 304.933 95.0502 302.18 94.4545 299.884C94.1087 300.447 93.7184 300.982 93.2868 301.483C89.9235 305.462 85.1054 307.846 79.913 308.185C74.1491 308.54 67.1998 307.757 62.6645 303.865C55.6342 297.83 56.167 287.533 56.169 279.166L56.1804 264.805L56.1699 253.214C56.1666 249.465 56.019 246.073 56.7028 242.348C58.7705 231.088 66.8266 226.327 77.6328 225.558Z" fill="#D1136A"/>
<path d="M0 226.609C4.90281 226.746 10.3112 226.569 15.2972 226.617C15.0178 234.067 15.2248 242.804 15.2265 250.369L15.2162 287.087C15.2535 293.098 16.9747 296.926 23.8767 296.638C28.1033 296.461 30.7494 294.009 31.057 289.766C31.3011 286.401 31.2096 282.992 31.2086 279.599L31.1998 261.355L31.2049 238.878C31.2053 235.264 31.3618 230.113 31.1181 226.631C35.8395 226.557 41.9414 226.456 46.5985 226.647C46.4647 230.216 46.533 234.133 46.5341 237.73L46.5382 271.068L46.5456 281.43C46.546 288.543 46.6036 296.631 41.237 302.104C33.1722 310.329 13.9695 310.317 5.64031 302.574C0.117977 297.442 0.0409423 290.112 0.00816693 283.176L0.0237793 270.93L0.0106388 242.554C0.00836679 237.3 0.095793 231.837 0 226.609Z" fill="#D1136A"/>
<path d="M147.323 226.656C152.025 226.465 158.903 226.499 163.63 226.64C162.959 229.051 162.308 234.302 161.732 237.044C159.092 252.989 156.017 269.321 153.151 285.252L150.57 299.614C150.185 301.767 149.474 305.161 149.279 307.266C145.326 307.104 140.99 307.183 137.014 307.177C133.149 307.171 128.851 307.096 125.025 307.295C121.153 283.703 116.618 260.158 112.627 236.581C112.065 233.263 111.488 229.915 110.871 226.606C114.44 226.702 118.211 226.531 121.799 226.594C123.593 226.625 125.33 226.507 127.126 226.717C127.342 229.75 128.284 234.951 128.758 238.166L131.873 259.403L135.547 284.599C136.087 288.281 136.552 292.43 137.238 296.047C138.006 289.736 139.024 283.333 139.954 277.033L144.498 246.301C145.374 240.386 146.792 232.457 147.323 226.656Z" fill="#D1136A"/>
<path d="M190.741 225.579C197.703 224.893 206.135 226.427 211.33 231.38C218.723 238.429 217.299 249.045 217.446 258.34C212.641 258.311 207.003 258.169 202.242 258.39C202.19 255.784 202.201 252.672 202.248 250.15C202.362 244.002 201.689 237.258 193.868 237.255C191.69 237.255 189.295 237.551 187.674 239.258C183.977 243.146 184.973 250.892 184.978 255.982L184.982 272.455L184.975 282.181C184.976 286.01 184.577 291.193 187.411 294.151C190.377 297.269 196.891 297.223 199.81 294.094C202.824 290.862 202.25 284.577 202.233 280.398L202.202 275.224C207.041 275.406 212.555 275.291 217.431 275.242C217.208 283.932 218.72 293.342 212.753 300.703C205.136 310.1 186.088 310.401 176.917 303.212C169.537 297.427 169.68 287.912 169.683 279.372L169.691 267.32L169.68 254.119C169.677 246.487 169.293 239.039 174.527 232.78C178.728 227.755 184.461 226.116 190.741 225.579Z" fill="#D1136A"/>
<path d="M227.751 226.653C232.226 226.484 238.612 226.502 243.098 226.638C242.857 232.298 243.012 238.917 243.013 244.64L243.019 276.315L243.018 288.077C243.018 289.594 243.099 293.064 242.912 294.384C249.148 294.172 255.693 294.396 261.989 294.284C261.909 297.843 262.026 301.43 261.994 304.992C261.987 305.73 262.04 306.515 261.918 307.241C255.164 307.164 248.409 307.142 241.654 307.176C237.353 307.176 231.856 307.026 227.651 307.288C227.504 301.471 227.703 294.536 227.705 288.625V247.535L227.7 232.402C227.698 231.55 227.574 227.21 227.751 226.653Z" fill="#D1136A"/>
</svg>
