<svg width="589" height="250" viewBox="0 0 589 250" fill="none" xmlns="http://www.w3.org/2000/svg">
<path d="M463.859 28.2749L523.821 28.2582C535.67 28.2521 546.73 27.905 558.705 28.9672C588.027 31.5678 595.583 61.0482 582.173 84.022C574.859 96.5515 565.023 103.843 550.817 107.601C552.851 108.237 554.803 108.953 556.783 109.66C581.396 118.462 576.79 145.301 566.213 163.484C563.049 168.923 559.788 172.883 555.444 177.5C555.274 177.691 555.098 177.877 554.919 178.058C536.52 196.293 502.316 193.495 478.304 193.498L423.255 193.503C427.791 176.243 431.98 158.143 436.246 140.761L463.859 28.2749ZM515.301 154.132C522.925 149.451 528.484 140.863 523.869 132.09C522.084 128.696 516.92 127.039 513.313 126.88C504.405 126.489 495.394 126.687 486.468 126.696C484.091 136.708 481.65 146.705 479.151 156.688C488.341 156.665 507.632 157.98 515.301 154.132ZM529.297 89.0933C535.442 85.0195 541.426 76.0329 537.134 68.3387C535.816 65.977 532.079 64.5552 529.495 64.1603C520.66 63.2357 510.854 64.0215 501.964 63.7536C499.745 72.8101 497.167 82.5063 495.169 91.553C500.558 91.5154 505.947 91.5117 511.339 91.5427C517.864 91.56 523.292 92.1016 529.297 89.0933Z" fill="#1A3C65"/>
<path d="M405.066 0L405.303 0.341471C400.858 9.66841 396.362 18.97 391.814 28.2456L455.483 28.2082C452.684 40.9039 449.183 53.7945 446.217 66.5257C426.07 66.1846 404.681 66.5029 384.449 66.5057C382.761 73.7114 380.605 83.3438 378.537 90.3038L426.054 90.268C423.176 102.542 419.825 114.906 417.104 127.187C401.347 126.91 385.362 127.33 369.569 127.1C367.638 135.83 365.155 145.325 362.975 153.993L424.652 153.958C422.326 165 418.82 178.279 415.996 189.336C415.729 190.679 415.261 192.306 414.912 193.656C412.013 193.418 406.387 193.569 403.354 193.572L381.121 193.611L310.931 193.741C308.639 196.68 305.314 200.294 302.825 203.159L287.11 221.326C291.4 212.189 296.228 202.606 300.754 193.579C295.994 193.449 290.693 193.573 285.893 193.579L326.451 28.227L382.284 28.261C389.321 18.9103 397.822 9.39306 405.066 0Z" fill="#1A3C65"/>
<path d="M390.232 23.3672C390.602 25.3474 354.977 91.9645 351.094 100.16C358.165 100.948 365.618 100.615 372.735 100.776C375.221 100.832 378.597 100.582 380.929 101.345L380.966 101.726C378.828 105.014 374.131 110.496 371.469 113.8L353.611 135.922L321.89 175.036C319.243 178.272 303.179 198.262 301.294 199.107C301.913 195.939 310.004 181.627 312.084 177.685L340.119 124.809C333.725 124.804 314.042 125.327 309.084 123.758C311.404 120.074 316.307 114.121 319.088 110.605L337.906 87.0994C354.549 66.4598 372.811 43.2452 390.232 23.3672Z" fill="#62BF3E"/>
<path d="M134.016 28.2659L179.535 28.2422C177.966 30.2375 174.913 33.3205 173.088 35.2709L160.906 48.2754L122.958 88.7899C125.26 96.6075 127.438 106.485 129.435 114.501L141.519 163.066L149.128 193.512L93.472 193.515C88.8506 172.886 84.9818 151.721 80.2122 131.174L65.5706 146.599C55.5407 157.143 57.3396 155.164 53.8703 169.37L47.9734 193.518C32.1869 193.282 15.8327 193.504 0 193.506C3.66559 179.875 7.02104 165.129 10.3992 151.362L29.8334 72.1088C33.3926 57.5889 36.8819 42.6978 40.6423 28.2604L88.4553 28.2549C87.0029 35.3997 84.6038 44.1764 82.8423 51.3664L71.7753 96.3602L134.016 28.2659Z" fill="#1A3C65"/>
<path d="M241.797 25.9741C256.789 24.8074 276.443 26.6598 288.904 35.4945C300.077 43.4162 304.433 53.3666 306.823 66.3363C292.307 70.025 276.172 74.993 261.605 79.0389C260.892 75.1069 259.492 71.2193 256.585 68.2438C250.36 60.9366 229.503 60.1991 223.17 67.3778C211.201 80.9452 232.325 83.6817 239.411 85.5716C253.433 89.3122 274.228 92.4721 284.558 102.227C303.538 120.148 293.218 153.237 276.749 169.355C257.507 188.239 233.005 195.701 206.87 196.004C184.994 196.055 160.343 191.812 149.305 170.263C145.13 162.112 144.114 154.555 143.479 145.652L192.68 137.155C193.425 142.679 194.479 147.732 199.128 151.652C207.685 158.866 229.843 159.65 237.731 151.046C242.268 146.098 240.398 139.542 234.287 136.861C229.03 134.555 223.809 133.642 218.184 132.452C205.325 129.223 186.989 125.253 176.713 116.201C158.254 99.9391 167.867 68.8941 181.879 53.243C198.312 34.887 218.101 27.6895 241.797 25.9741Z" fill="#1A3C65"/>
<path d="M197.998 217.305C212.038 216.997 203.235 232.888 199.33 239.098L194.548 239.078C197.67 234.891 202.115 227.997 200.841 222.361C200.572 221.174 198.762 220.348 197.617 220.857C197.885 222 198.602 223.499 198.533 224.615C198.084 231.18 194.415 239.476 186.648 239.137C183.47 238.998 181.627 237.663 181.785 234.216C182.062 228.189 184.417 224.157 188.81 220.204C183.54 221.2 182.345 222.452 180.803 227.762C179.707 231.536 178.616 235.387 177.494 239.156L172.786 239.126C174.039 235.432 175.247 231.079 176.398 227.302C177.121 224.974 178.159 220.55 174.192 220.657C173.672 221.041 173.809 221.421 174.021 222.16C175.584 227.585 172.254 235.749 167.112 238.303C162.856 240.417 155.936 238.819 157.82 232.46C158.644 229.68 159.168 227.051 160.979 224.586C161.756 223.446 163.465 221.655 163.915 220.595C162.55 220.533 160.551 221.325 159.674 222.404C155.458 227.596 155.325 232.85 155.372 239.227C154.154 239.123 152.228 239.135 150.953 239.105C151.144 224.004 156.154 215.079 169.995 217.96C171.523 218.278 175.472 216.775 177.406 217.468C178.323 217.796 180.397 218.904 181.347 219.46C187.36 215.972 191.387 218.495 197.998 217.305ZM164.158 236.315C166.133 235.396 166.598 234.97 167.754 233.002C169.171 230.588 172.037 222.53 168.157 221.318C164.713 223.77 158.169 235.033 164.158 236.315ZM188.145 236.286C190.436 235.245 191.248 234.161 192.284 231.902C193.514 229.222 195.704 222.815 192.069 221.27C190.34 222.642 189.196 223.86 188.167 225.852C186.856 228.39 183.501 235.369 188.145 236.286Z" fill="#1A3C65"/>
<path d="M381.991 230.288C375.2 228.651 379.153 221.45 383.358 218.652C387.301 216.026 395.805 218.555 394.582 219.033C414.359 211.312 405.849 235.931 391.54 234.179C389.588 233.941 380.835 233.091 379.739 234.735C381.791 238.568 397.047 235.268 400.448 233.227C406.058 229.858 406.468 226.923 409.018 221.46C410.381 218.534 417.03 216.63 419.881 217.55C420.895 217.782 422.562 218.835 423.676 218.873C427.022 217.751 431.828 215.742 434.384 219.547C435.96 221.894 434.199 228.218 431.877 229.874C430.659 230.741 430.607 230.134 430.122 231.591C430.938 232.73 431.379 233.036 431.321 234.485C431.124 239.348 420.094 241.972 420.88 235.683C417.619 236.388 404.81 243.797 404.446 235.814C404.373 234.194 407.266 231.583 408.869 231.499C415.364 230.346 424.696 233.778 429.366 227.724C430.872 225.772 431.281 222.026 428.935 220.591C428.361 220.244 427.669 220.151 427.025 220.334C424.047 221.189 422.941 227.227 422.143 229.983L418.199 229.982C419.298 226.523 422.689 218.064 414.756 220.851C414.049 221.099 412.695 221.677 412.188 222.174C413.49 222.088 416.463 221.887 416.988 222.777C419.99 227.891 413.73 231.017 409.21 229.815C408.463 229.616 407.953 229.996 407.546 230.577C402.585 237.681 392.873 239.332 384.766 239.479C382.787 239.515 375.476 239.349 375.461 235.954C375.506 232.874 377.474 231.665 380.215 230.88L384.8 230.873C389.612 231.466 393.298 231.676 397.348 230.078C405.648 226.804 400.517 215.276 395.374 222.968C394.87 223.724 393.486 228.998 393.191 229.995L389.275 229.972C389.982 227.44 393.273 220.736 388.783 220.475C386.476 220.342 384.87 220.893 383.166 222.389L383.218 222.761C389.336 218.975 391.652 227.765 383.673 230.176L381.991 230.288ZM409.176 233.919C408.69 235.195 408.566 234.951 408.803 236.108C410.482 237.103 414.116 235.458 415.949 234.841L418.333 233.892L409.176 233.919ZM426.822 236.624C427.638 235.495 427.69 235.773 427.769 234.565C426.958 233.81 426.436 233.808 425.27 233.848L425.067 233.857C424.444 234.561 424.05 234.877 423.995 235.808C424.745 236.991 425.504 236.729 426.822 236.624ZM413.329 227.62C413.946 226.818 414.532 226.243 414.553 225.245C413.934 224.343 413.59 224.378 412.446 224.323C411.836 225.157 411.383 225.619 411.307 226.646C411.824 227.547 412.258 227.626 413.329 227.62ZM384.484 227.567C385.046 226.76 385.58 226.196 385.534 225.226C384.879 224.254 384.42 224.337 383.288 224.44C382.787 225.28 382.338 225.827 382.407 226.796C382.999 227.602 383.464 227.626 384.484 227.567Z" fill="#1A3C65"/>
<path d="M266.703 209.699C275.282 209.091 275.811 213.825 270.987 219.778C274.382 224.895 271.838 232.603 267.714 236.605C264.122 240.145 255.456 240.649 256.603 233.466C257.568 227.419 259.02 224.283 263.747 220.532C256.597 221.012 256.845 225.85 255.016 231.546C254.159 234.214 253.517 236.878 252.602 239.548L252.033 239.354C255.625 241.319 253.539 246.099 251.532 248.62C251.008 249.277 250.108 249.243 249.35 249.204C247.767 247.669 251.488 244.491 250.555 242.395C250.035 241.229 249.136 241.194 248.129 241.494C246.499 242.887 246.137 244.34 245.624 246.313C245.535 248.16 245.108 250.031 242.734 249.321C242.438 248.884 241.985 248.33 242.121 247.66C242.591 245.359 243.517 241.604 245.548 240.22C246.172 239.795 247.12 240.075 248.018 239.33C249.089 235.151 250.641 230.998 251.772 226.828C252.309 224.846 253.3 222.172 251.3 220.83C244.029 220.374 243.631 234.112 243.08 239.102L238.201 239.114C239.504 232.819 239.156 225.396 244.34 220.242C245.445 218.612 251.557 216.443 253.41 217.452C257.588 219.729 258.343 218.137 262.62 217.296C263.897 217.045 265.932 217.718 267.381 217.798C268.851 217.879 270.063 215.063 270.036 213.856C268.83 212.537 267.753 213.846 265.874 212.657C265.634 211.717 266.285 210.628 266.703 209.699ZM262.352 236.105C267.009 234.682 270.098 225.332 266.966 222.05C263.751 224.267 261.56 227.681 260.884 231.528C260.562 233.308 260.404 235.315 262.352 236.105Z" fill="#1A3C65"/>
<path d="M85.6589 217.284C92.2389 216.91 92.8734 220.593 93.0024 225.656C93.0185 226.296 93.8729 226.383 94.4877 226.516C101.72 228.083 97.1761 235.308 94.6929 239.069L89.9279 239.088C91.6013 237.273 94.0578 233.98 93.9958 231.412C93.518 230.442 93.7976 230.675 92.912 230.207C90.9977 230.625 89.8899 234.632 86.7525 237.075C80.729 240.698 79.5564 238.683 74.1043 237.827C72.6625 237.601 68.3866 241.19 65.1863 237.366C62.5841 234.257 64.6477 231.597 66.6925 229.15C68.9889 226.922 71.1354 226.45 74.2024 226.481C76.5723 220.665 79.4101 218.166 85.6589 217.284ZM78.4185 226.371L83.6199 226.37C84.9527 226.382 87.0849 226.517 88.2787 226.112C90.4425 223.778 87.3284 220.759 83.9806 221.113C83.649 221.148 83.3187 221.194 82.9905 221.251C80.4496 222.632 79.6147 223.635 78.4185 226.371ZM84.9451 233.516C86.0505 232.089 86.3693 231.588 87.1863 229.98L77.4221 229.966C77.0299 235.854 80.6394 237.326 84.9451 233.516ZM70.9517 236.077C73.7002 235.004 74.3059 230.914 72.3662 229.942L70.8807 230.002C68.137 231.708 66.7838 235.153 70.9517 236.077Z" fill="#1A3C65"/>
<path d="M138.927 217.567C139.442 217.527 139.957 217.493 140.472 217.468C149.486 217.037 154.051 221.226 146.434 228.654C148.36 231.313 146.98 234.39 145.38 236.832C141.541 242.69 134.826 240.208 129.115 241.05C128.401 241.155 127.514 241.32 127.076 241.956L127.263 242.501C127.771 242.891 128.68 243.405 129.29 243.409C134.023 243.44 139.291 243.381 143.985 243.369L143.021 246.649C138.015 246.621 115.729 249.177 125.552 239.082C126.451 238.158 128.553 237.824 129.804 237.661C134.143 237.746 140.84 238.864 142.778 234.072C143.945 231.184 141.83 231.442 141.164 229.828C142.592 223.868 143.234 228.795 145.638 224.225C145.934 223.662 145.706 223.034 145.522 222.464C142.366 218.857 133.218 221.387 132.615 225.066C135.101 223.862 139.123 223.631 139.651 226.582C141.256 235.537 125.323 243.845 127.209 229.595C128.038 223.325 132.466 218.906 138.927 217.567ZM133.058 233.596C134.715 232.02 137.354 228.189 133.55 227.395C131.782 228.543 130.105 231.078 131.403 233.109C132.093 233.594 132.222 233.585 133.058 233.596Z" fill="#1A3C65"/>
<path d="M368.579 209.69C375.061 209.261 377.809 210.717 374.609 217.208C374.184 218.069 373.494 218.876 372.878 219.6C375.617 225.499 373.968 232.508 369.177 236.965C365.012 240.843 357.185 240.136 358.5 232.765C359.504 227.115 361.098 223.939 365.701 220.466C363.597 220.567 362.079 220.717 360.09 221.392C353.958 225.327 354.021 232.774 353.575 239.243L349.258 239.242C350.05 229.024 352.078 216.959 365.252 217.522C366.536 217.577 368.846 218.093 369.936 217.619C374.836 211.689 369.129 214.224 367.693 212.481C367.553 211.545 368.157 210.571 368.579 209.69ZM364.374 236.237C366.017 235.565 366.378 235.255 367.404 233.767C368.931 231.56 371.861 224.096 368.746 222.316L368.336 222.245C366.824 223.501 365.801 224.407 364.836 226.175C363.524 228.579 360.564 234.883 364.374 236.237Z" fill="#1A3C65"/>
<path d="M311.92 217.562C324.043 216.637 323.581 225.38 319.522 233.302C315.162 241.809 309.53 240.705 301.458 241.16C300.799 241.197 300.41 241.847 300.14 242.398L300.416 242.791C302.59 243.829 313.322 243.391 316.352 243.368L315.408 246.663C311.124 246.608 297.474 248.147 295.902 243.852C295.792 240.002 299.76 238.075 303.048 237.624C305.96 237.713 309.986 238.26 312.363 236.471C315.897 233.81 319.577 226.167 316.935 222.102C314.913 218.995 306.078 221.293 305.79 225.024C308.386 223.626 311.659 223.315 312.73 226.733C314.789 233.309 303.179 241.379 300.125 233.676C299.229 231.417 301.3 225.884 302.651 223.778C304.955 220.19 307.791 218.499 311.92 217.562ZM306.163 233.456C307.727 232.02 309.87 229.627 308.015 227.675C307.575 227.588 306.974 227.45 306.543 227.408C304.995 228.823 303.319 231.314 304.907 233.237C305.356 233.365 305.702 233.51 306.163 233.456Z" fill="#1A3C65"/>
<path d="M114.344 217.567C120.904 216.994 125.838 218.566 124.428 226.568C123.347 232.704 119.24 240.257 111.847 238.941C105.906 237.883 109.317 227.669 113.102 226.004C115.953 224.703 116.965 224.578 119.777 225.314L120.168 224.839C118.905 216.926 109.821 221.135 107.847 226.902C106.211 231.682 106.176 234.25 105.839 239.241L101.521 239.243C102.313 229.428 103.299 220.12 114.344 217.567ZM115.318 235.892C116.968 234.325 119.268 231.142 117.759 228.904C116.962 228.264 116.606 228.337 115.58 228.354C113.815 229.995 111.887 232.891 113.047 235.33C113.907 235.963 114.198 236.068 115.318 235.892Z" fill="#1A3C65"/>
<path d="M229.23 217.316C242.524 218.046 235.697 232.386 231.552 239.107L227.12 239.105C229.8 234.311 238.663 218.565 225.627 221.113C223.767 221.476 222.353 222.549 220.99 223.793C220.479 224.506 219.453 225.724 219.411 226.526C221.031 225.828 224.485 224.176 225.81 225.788C233.901 235.624 211.765 247.649 213.998 230.918C215.082 222.799 220.675 217.922 229.23 217.316ZM220.546 235.667C222.316 234.312 224.388 231.581 223.104 229.305C222.007 228.56 222.42 228.764 220.949 228.694C219.052 229.979 217.27 232.441 218.4 234.766C219.392 235.621 219.096 235.369 220.546 235.667Z" fill="#1A3C65"/>
<path d="M60.164 217.322C66.6526 217.724 65.5044 224.35 61.8757 226.343C57.6584 228.659 53.6894 227.359 55.3382 221.842L55.3941 221.658L55.0437 221.668C50.9758 226.081 50.4463 230.117 50.4545 235.909C52.0068 231.182 52.5108 229.812 57.6371 229.137C62.0233 229.684 61.9741 233.076 59.807 236.22C58.4289 238.12 56.3656 238.803 54.1724 239.1C42.4378 240.685 45.7756 227.035 50.3916 221.642C53.2443 218.309 56.059 217.631 60.164 217.322ZM56.1844 235.99C56.9045 234.95 57.196 234.615 57.4887 233.401C57.2631 232.348 57.4884 232.692 56.6817 232.08L55.5641 231.946C54.6348 233.179 53.2516 234.795 54.8355 236.008L56.1844 235.99ZM59.7757 224.816C60.7415 223.56 61.9805 222.217 60.6228 220.857L59.5006 220.632C58.7556 221.714 58.3864 222.138 58.1666 223.445C58.4368 224.411 58.6068 224.802 59.7757 224.816Z" fill="#1A3C65"/>
<path d="M334.933 217.316C335.64 217.373 338.585 218.312 338.409 218.374C349.339 214.549 350.729 223.362 345.292 231.77C341.02 238.376 332.346 241.757 324.805 236.778L325.998 232.688C330.825 236.402 334.884 237.127 339.824 233.095C342.065 230.828 346.351 222.787 342.705 220.553C339.183 220.577 338.045 226.825 337.231 229.6C335.859 229.462 334.635 229.521 333.266 229.557C333.882 227.628 335.452 223.509 335.264 221.515C335.227 221.107 334.857 221.004 334.45 220.747C329.981 220.261 329.802 226.559 329.541 229.592L325.57 229.578C326.411 223.248 327.501 218.051 334.933 217.316Z" fill="#1A3C65"/>
<path d="M443.897 223.938C445.297 223.828 446.851 223.721 448.157 224.31C449.225 224.779 450.051 225.672 450.437 226.774C451.678 230.342 448.739 235.957 445.688 237.881C445.099 238.253 443.921 238.678 443.241 238.925C431.276 240.195 436.028 226.53 443.897 223.938ZM442.27 236.141C445.294 234.475 449.304 228.443 444.459 227.192C441.031 228.546 437.919 234.653 442.27 236.141Z" fill="#1A3C65"/>
<path d="M208.825 209.697C210.13 209.571 211.651 209.359 212.924 209.72C214.023 210.032 214.961 210.728 215.492 211.754C217.337 215.318 210.339 234.667 208.962 239.149C207.762 239.109 206.298 239.426 205.251 238.958C204.868 238.005 205.154 237.903 205.552 236.65C207.11 231.047 209.115 225.476 210.689 219.866C211.226 217.954 211.784 216.031 210.801 214.178C208.416 212.351 205.62 214.503 203.605 216.059C204.798 211.871 204.582 211.233 208.825 209.697Z" fill="#1A3C65"/>
<path d="M381.992 230.288L383.674 230.176L384.8 230.873L380.216 230.88L381.992 230.288Z" fill="#050E1A" fill-opacity="0.192157"/>
</svg>
