<svg width="320" height="313" viewBox="0 0 320 313" fill="none" xmlns="http://www.w3.org/2000/svg">
<path d="M154.788 0.148838C159.368 -0.0404124 164.882 -0.128414 169.402 0.380336C192.73 3.00634 213.402 19.4878 225.985 38.7126C258.232 87.9918 255.94 163.072 216.397 207.774C204.745 220.947 185.237 233.077 167.467 233.982C166.825 234.082 166.18 234.154 165.532 234.197C145.83 235.437 127.052 228.159 112.264 214.629C56.8151 163.894 60.0079 49.9636 126.29 9.29884C133.745 4.72509 145.968 0.610088 154.788 0.148838ZM76.9606 124.975C77.1966 125.884 77.2644 128.922 77.3546 130.163C80.5889 174.572 108.313 227.312 157.648 230.989C175.7 232.079 194.445 224.057 207.527 211.747C255.615 166.504 257.13 77.1316 213.577 28.3946C201.65 15.0471 182.622 3.88333 164.582 3.20333C109.763 1.13708 78.3556 61.6706 77.0356 109.474C76.9754 113.025 77.2461 121.909 76.9606 124.975Z" fill="#100DC3"/>
<path d="M155.885 25.4367C191.15 21.232 214.727 59.3752 220.485 89.6327C222.707 101.324 223.815 114.26 223.035 126.123C220.957 157.711 206.337 195.953 173.872 207.026C172.312 207.558 167.43 208.231 165.597 208.978C164.065 211.583 163.275 214.538 161.524 217.256C164.017 216.811 167.082 216.288 169.577 216.066C165.972 220.133 161.538 223.831 157.619 227.721C156.833 228.556 155.839 229.326 154.948 230.063C155.874 227.201 160.213 221.031 160.48 219.736L154.381 219.821C157.224 216.323 161.645 212.176 164.75 208.798C152.522 209.108 141.412 206.521 131.795 198.501C90.5383 164.093 88.4346 88.488 120.13 47.3032C128.794 36.0455 141.902 27.0582 155.885 25.4367ZM168.09 87.367C169.072 92.4605 168.657 97.522 169.042 102.417C169.607 109.603 169.777 116.505 170.152 123.647L171.185 144.291C171.287 146.597 171.75 149.984 171.57 152.1C180.935 154.648 185.717 156.332 194.017 162.031C197.142 164.318 203.68 169.986 205.872 173.148C208.51 167.583 210.565 163.668 212.687 157.68C221.955 131.327 221.95 102.6 212.672 76.2502C211.692 73.5097 207.27 62.8035 205.827 60.808L205.415 60.7625C200.287 64.9992 194.307 68.5117 189.11 72.6802C188.507 73.163 188.4 73.6862 188.347 74.3927C187.687 74.519 185.825 74.8297 185.335 75.1857C181.762 77.7832 178.225 80.4547 174.605 82.9885C172.552 84.4277 170.307 86.2202 168.09 87.367ZM161.47 205.076C172.79 205.118 185.487 198.031 193.282 190.181C197.745 185.686 200.387 181.816 203.87 176.701C201.307 174.236 199.275 171.798 196.48 169.421C186.33 160.781 175.28 155.783 161.97 155.158C145.686 156.123 131.972 163.406 121.178 175.511C120.343 176.446 119.536 177.406 118.758 178.391C121.107 181.213 123.029 184.306 125.466 187.066C134.536 197.343 147.468 205.071 161.47 205.076ZM103.056 134.091C103.935 137.516 104.426 141.008 105.211 144.48C106.847 151.925 109.257 159.178 112.401 166.123C113.456 168.356 115.703 172.723 116.487 174.806C127.526 162.371 135.805 156.533 151.959 152.292C151.807 147.366 154.435 98.072 154.08 97.521C149.408 101.235 143.494 105.258 138.58 108.767L113.085 126.974C110.049 129.136 105.92 131.89 103.056 134.091ZM165.485 97.3102C164.46 96.0545 162.78 94.1137 161.904 92.8332L161.52 92.7037C160.231 94.2542 158.799 95.868 157.557 97.4215C159.312 98.9235 160.192 99.6745 161.7 101.355C162.975 99.9312 164.13 98.656 165.485 97.3102ZM154.419 92.074C154.356 90.3035 154.292 90.2235 154.787 88.4735C152.253 89.7377 142.149 97.3485 139.078 99.4815C126.771 108.03 114.579 116.953 102.218 125.442C102.612 127.554 102.805 128.816 102.82 130.987L139.526 104.642C144.071 101.355 148.725 98.2202 153.249 94.9082C154.522 93.9767 154.38 93.5732 154.419 92.074ZM155.567 121.933C156.545 120.998 157.332 120.275 158.19 119.212C159.229 117.957 159.845 117.384 161.034 116.284C160.309 115.643 156.685 112.289 156.077 111.924C155.961 114.655 156.002 119.593 155.567 121.933ZM176.787 69.4095C178.032 68.5235 180.865 66.612 181.88 65.6677C181.01 65.5277 174.73 65.8672 172.675 65.7245C171.625 66.2927 171.372 66.2077 170.83 67.0722C171.607 68.1195 175.122 68.8187 176.787 69.4095ZM182.475 71.2975C183.475 71.8002 183.77 72.0647 184.837 72.01C186.292 71.2965 187.602 70.2842 188.922 69.3475C193.947 65.7797 198.847 62.042 204.002 58.6595C204.017 57.705 202.68 55.2012 201.902 54.741C199.95 56.4482 188.842 64.0055 188.68 64.9082L189.16 65.5362L188.942 65.8007C184.98 65.592 182.87 68.8532 179.492 70.738C180.397 70.9065 181.607 71.0917 182.475 71.2975ZM155.244 126.672C155.624 129.459 155.106 133.517 155.147 136.626C155.826 135.868 156.669 134.868 157.403 134.198L160.246 131.444C159.503 130.721 155.845 127.007 155.244 126.672ZM157.241 147.79C158.175 146.862 158.856 146.223 159.875 145.362C158.983 144.579 155.747 141.632 154.949 141.161C154.962 143.926 155.107 147.385 154.402 150.009L154.54 150.327C155.302 150.017 156.521 148.485 157.241 147.79ZM162.707 116.203C163.757 117.341 164.8 118.487 165.83 119.643C166.43 120.338 167.042 121.075 167.665 121.746C167.407 118.99 167.342 115.169 167.12 112.325C166.997 112.203 166.872 112.082 166.75 111.96C165.375 113.538 164.202 114.73 162.707 116.203ZM163.667 131.489C164.757 132.497 165.887 133.513 166.942 134.554L167.722 135.477L168.132 135.489C168.625 133.979 168.032 129.066 167.872 127.197L167.485 126.958C166.4 128.261 164.545 130.238 163.667 131.489ZM156.195 43.7412C156.78 41.5967 158.82 38.5765 161.105 38.2312C162.31 38.0495 163.225 38.8577 164.152 39.4735C164.885 39.544 176.287 33.636 177.002 32.9067C175.612 31.3265 164.76 29.021 162.682 28.9937C143.24 28.739 126.322 42.3185 117.256 58.7127C115.859 61.2372 114.324 64.258 112.683 66.5867C115.025 65.2185 130.585 57.435 130.995 56.6822C130.368 56.3732 130.108 56.3697 129.422 56.2442L129.494 55.97C131.966 54.547 137.354 53.7292 138.933 52.8215C141.085 51.5837 155.471 44.7317 156.195 43.7412ZM155.933 47.0147C155.158 47.4412 152.496 48.7057 152.174 49.2187L152.363 49.4335L152.506 49.4347C153.837 49.0422 155.801 48.6782 156.524 47.5895C156.207 47.05 156.432 47.195 155.933 47.0147ZM160.103 103.049C159.355 102.335 157.328 100.295 156.578 99.8627C156.656 101.415 155.967 105.723 156.618 106.46C157.207 106.18 157.301 105.914 157.681 105.371C158.492 104.611 159.333 103.847 160.103 103.049ZM172.635 56.9732L169.97 58.679C172.622 59.134 173.107 59.3205 175.592 60.2892C177.007 59.376 179.575 57.8612 180.6 56.717C179.642 56.6837 173.455 56.8155 172.635 56.9732ZM167.545 148.878C168.295 149.608 168.802 150.353 169.427 151.19C168.987 149.115 168.757 141.892 168.132 141.239C166.785 142.625 165.425 143.996 164.05 145.352C165.18 146.473 166.485 147.711 167.545 148.878ZM183.165 54.0337C183.495 54.075 184.21 54.1805 184.51 54.0242C188.337 52.0385 192.025 48.5525 195.835 46.6492C195.067 45.7602 193.712 43.8537 192.655 43.7575C188.222 46.7212 183.285 49.8277 178.992 52.8625C180.715 53.1627 181.57 53.2435 183.165 54.0337ZM156.274 67.9757C155.598 67.6 155.775 67.7865 155.305 67.229C158.626 66.3632 156.093 72.6392 160.734 71.0847C161.337 69.6757 159.279 69.394 159.343 68.0497C159.907 67.3937 160.822 67.078 161.633 66.7077C161.18 65.1845 159.14 65.611 158.923 63.1565C159.263 62.2487 159.235 62.4882 160.146 61.7937C161.092 61.5337 162.525 60.6992 162.725 59.668C162.837 59.0852 162.47 58.8095 162.144 58.2832L161.997 57.6202C161.506 57.3842 160.938 57.3112 160.436 57.4417C158.895 57.8427 155.939 56.3497 154.715 56.661L154.993 57.0257C153.637 58.3442 148.977 58.7385 147.234 59.5295C143.653 61.155 140.083 59.0385 138.751 63.7057L138.958 63.7972L139.466 63.4117L139.776 63.5677C139.747 64.5447 139.937 64.236 139.492 64.873C136.185 64.7002 133.6 64.265 130.747 66.4127C130.009 66.9682 129.252 67.2765 128.881 68.1637C122.728 72.575 114.067 75.3682 108.062 80.0547C107.278 80.6662 106.598 84.5275 105.985 85.7572C105.264 86.8167 105.438 88.2035 105.64 89.4595C104.117 91.9612 104.599 95.0275 103.681 97.6702C103.429 98.3977 103.444 98.0542 103.336 99.0305L103.643 99.26C104.081 99.0265 106.562 97.1865 107.248 96.7267L117.204 90.1595L135.072 78.4015C136.954 77.1485 139.276 75.8042 141.04 74.5105L140.936 74.1177L140.416 73.3227L140.804 72.9275C141.897 72.8902 142.717 72.8965 143.45 72.1565C144.775 72.0535 144.985 71.962 146.224 71.4565C147.284 71.2217 147.402 70.9942 148.189 71.3387C148.374 71.8465 148.486 72.1635 148.62 72.6857C148.521 73.259 148.44 73.588 148.429 74.1745C147.561 74.198 146.822 74.194 146.069 74.644C143.082 76.4302 140.157 78.4065 137.253 80.3247L121.603 90.6602L109.523 98.6385C107.859 99.7257 104.439 101.776 103.068 102.913C102.774 105.272 102.441 108.854 102.013 111.104C113.07 102.857 125.195 95.2072 136.478 87.218C138.768 85.597 153.433 75.2682 154.897 74.851C155.213 74.9057 155.015 74.9055 155.466 74.683C155.789 73.8995 156.21 69.091 156.274 67.9757ZM152.305 51.6082C150.759 52.0725 143.515 53.9732 142.758 54.3937L142.732 54.635L143.345 54.6325C146.637 54.5652 150.523 53.891 153.114 51.6465C152.724 51.594 152.674 51.5425 152.305 51.6082ZM185.007 63.467C190.287 60.041 195.392 55.9215 200.747 52.6642C199.282 50.9742 198.812 50.3147 197.757 48.3727C196.2 49.4287 188.9 54.258 187.957 55.435L188.08 55.8185L189.342 56.3007L189.297 56.5867C188.145 57.1287 188.417 56.9412 186.882 56.6415C184.572 57.272 180.877 59.892 178.89 61.3982C180.05 61.8587 181.135 62.086 182.342 62.3837C183.04 62.7205 184.252 63.1627 185.007 63.467ZM163.4 103.009C164.195 103.958 164.697 104.497 165.59 105.353L166.31 106.257L166.707 106.281C167.035 105.125 166.65 100.887 166.04 99.9852C165.187 100.926 164.147 102.005 163.4 103.009ZM167.217 59.9297C166.975 60.9762 166.832 61.2982 166.957 62.336C167.985 63.9055 170.38 63.729 171.825 62.9845L172.807 62.2065L172.842 61.7292C171.785 60.8782 168.815 60.4217 167.217 59.9297ZM173.535 72.1357C173.847 71.673 173.845 71.6825 174.015 71.151C172.517 70.317 169.507 69.2702 167.812 68.8632C167.267 69.517 167.442 69.5097 167.335 70.5405C167.435 71.6785 167.237 71.4862 167.865 72.127C170.137 72.795 171.482 71.987 173.535 72.1357ZM158.068 86.5792C158.909 87.2505 160.218 88.0395 160.895 88.6462L161.296 88.8672C161.992 88.8147 164.047 87.2037 164.927 86.6307C163.825 85.55 162.727 84.4632 161.636 83.3707C160.435 84.3557 159.035 85.3945 158.068 86.5792ZM161.845 151.292C164.047 151.255 164.522 151.396 166.742 151.942C165.845 151.1 162.532 147.362 161.901 146.96C159.842 149.443 159.222 150.016 156.679 151.942C158.861 151.458 159.58 151.271 161.845 151.292ZM165.335 47.829C166.42 48.2337 167.572 48.6302 168.615 49.1265C172.982 46.3897 181.522 41.3287 186.367 38.5965C186.42 38.4652 186.472 38.3337 186.527 38.2025C185.91 37.5237 185.287 37.4315 184.38 37.4442C180.125 40.0977 169.722 45.938 165.335 47.829ZM161.792 80.2542C162.937 78.9947 163.962 78.1297 164.265 76.4682C163.667 76.0935 162.642 74.8182 161.842 74.1872C160.229 74.947 159.696 75.5185 158.606 76.9397C159.232 77.846 160.905 79.6212 161.792 80.2542ZM138.68 56.563C135.646 57.341 127.456 62.0757 124.15 63.7827C120.49 65.6725 114.846 68.3395 111.393 70.3755L108.983 76.2847C110.338 75.3965 111.584 74.6002 112.978 73.7765C119.69 70.1197 126.383 66.4285 133.057 62.7025C136.055 61.0467 141.311 58.4192 143.872 56.5592L144.212 56.3165C141.968 56.737 141.003 56.9395 138.68 56.563ZM166.887 138.669C166.427 138.193 162.101 133.511 161.908 133.423C160.015 135.465 158.665 136.958 156.554 138.792C158.682 140.312 160.267 141.967 162.23 143.568C163.665 141.878 165.327 140.254 166.887 138.669ZM188.815 40.2857C183.57 43.5112 177.032 47.6902 171.575 50.336C172.727 50.5422 173.755 50.6742 174.857 51.0805C175.725 51.307 176.082 51.3892 176.917 50.8007C178.987 49.3412 189.46 42.8372 190.625 41.539C190.277 40.8095 189.62 40.593 188.815 40.2857ZM166.067 42.0042C165.955 43.0015 165.915 43.0902 166.147 44.0427L166.492 44.2012C169.082 42.757 171.7 41.2522 174.347 39.9277C176.51 38.532 180.607 36.72 182.045 35.563L182.115 35.1775C181.492 34.7007 180.872 34.6562 180.115 34.7842C179.18 34.942 167.245 41.1875 166.067 42.0042ZM161.552 104.977C160.115 106.535 158.619 108.121 156.937 109.42C158.135 110.41 160.807 112.499 161.746 113.557C163.095 112.16 164.44 110.702 165.94 109.475C165.22 108.687 162.205 105.168 161.552 104.977ZM161.758 119.195C160.065 121.277 158.658 122.671 156.77 124.553C158.229 125.742 160.606 127.622 161.641 129.158C162.807 128.546 165.18 125.586 166.49 124.412C164.75 122.781 163.215 120.491 161.758 119.195ZM174.89 74.3927C173.222 74.9852 169.51 77.8767 167.88 79.062C167.92 81.0162 167.947 82.3225 168.217 84.2477C169.76 82.9172 180.002 75.5445 181.677 74.6752C180.825 74.1042 176.852 74.6492 174.89 74.3927ZM155.101 77.7292C143.015 86.3732 130.28 94.8672 118.01 103.311L108.172 110.043C106.926 110.89 102.094 113.689 102.09 115.064C102.085 117.029 101.876 120.349 102.089 122.256L136.908 97.573L147.915 89.802C148.981 89.0505 154.675 85.456 154.635 84.2675C154.592 83.0005 155.28 78.5515 155.101 77.7292Z" fill="#100DC3"/>
<path d="M168.582 167.726C170.122 167.029 172.557 167.244 174.292 167.291L176.35 168.571C177.537 171.169 177.89 174.756 174.835 176.146C174.185 176.204 173.437 176.334 172.822 176.231C171.41 176.404 170.375 176.726 169.18 176.026C167.91 174.514 169.23 170.774 168.787 168.324L168.582 167.726ZM174.587 173.231C174.417 172.349 174.445 171.054 174.422 170.116C173.475 169.606 173.472 169.581 172.44 169.344C170.875 169.864 171.572 172.679 171.327 174.426C173.07 174.374 173.552 174.679 174.587 173.231Z" fill="#100DC3"/>
<path d="M176.349 168.57C177.537 171.168 177.889 174.755 174.834 176.145C174.747 174.685 175.157 174.268 174.587 173.23C174.417 172.348 174.444 171.053 174.422 170.115C174.972 169.503 175.674 169.055 176.349 168.57Z" fill="#2121B8"/>
<path d="M174.587 173.23C175.157 174.268 174.747 174.685 174.835 176.145C174.185 176.203 173.437 176.333 172.822 176.23C171.925 176.045 171.595 176.04 170.817 175.53L170.772 175.058L171.327 174.425C173.07 174.373 173.552 174.678 174.587 173.23Z" fill="#2121B8"/>
<path d="M154.083 186.623C154.17 185.258 152.991 183.841 153.744 181.271C154.393 179.054 155.418 177.418 158.204 178.776C160.016 179.816 159.75 180.681 160.636 182.566L160.704 184.051L160.25 184.524C160.055 185.246 159.98 185.728 159.638 186.388C158.144 188.301 155.727 188.471 154.083 186.623ZM156.638 186.073C157.736 184.688 157.722 181.823 156.958 180.278C156.045 181.133 156.099 181.286 156.034 182.746C155.984 183.888 155.981 185.153 156.638 186.073Z" fill="#2B2BB3"/>
<path d="M158.204 178.775C160.016 179.815 159.75 180.68 160.636 182.565L160.704 184.05L160.25 184.523L159.735 184.493L159.587 184.725C159.053 185.548 159.031 185.668 158.23 186.153C157.476 186.183 157.368 186.21 156.638 186.073C157.736 184.688 157.722 181.823 156.958 180.278C157.152 179.385 157.524 179.215 158.204 178.775Z" fill="#2121B8"/>
<path d="M154.084 186.623L154.647 186.24C156.197 186.91 158.044 186.73 159.639 186.388C158.144 188.3 155.727 188.47 154.084 186.623Z" fill="#2121B8"/>
<path d="M154.006 167.365C155.988 167.103 159.157 166.725 159.719 169.298C159.871 169.995 159.975 169.708 159.617 170.303C157.96 170.608 156.3 168.953 155.028 169.24C154.904 170.468 159.563 170.778 160.061 172.723C160.671 175.098 159.34 175.805 157.449 176.543C155.473 176.588 151.336 176.32 152.254 173.228C153.895 172.645 154.151 173.65 156.081 174.383C157.066 174.27 156.739 174.495 157.337 173.968C156.533 172.858 153.675 172.438 152.599 171.23C152.238 169.303 152.162 168.443 154.006 167.365Z" fill="#2121B8"/>
<path d="M144.155 167.15C147.111 167.32 148.768 167.23 151.735 167.76L151.86 168.513C150.331 169.05 146.805 169.545 146.393 169.838L146.335 170.47C147.909 170.49 149.725 170.38 151.136 170.97L151.404 171.503C150.23 174.34 146.488 170.913 146.196 173.653C147.824 175.508 150.458 172.713 151.886 175.4L151.665 175.89C150.063 176.738 146.089 176.488 144.277 176.255C143.836 175.215 144.137 168.798 144.155 167.15Z" fill="#100DC3"/>
<path d="M146.335 170.471C147.909 170.491 149.725 170.381 151.137 170.971L151.404 171.503C149.149 171.503 147.874 172.133 146.335 170.471Z" fill="#2121B8"/>
<path d="M160.636 182.566C160.945 181.061 161.356 179.144 162.755 178.556C166.685 176.904 168.152 183.526 166.979 185.996C166.027 188.009 163.877 188.249 162.16 187.494C161.253 187.009 160.942 185.061 160.704 184.051L160.636 182.566ZM164.074 185.976C164.657 184.531 165.282 181.459 163.847 180.389C162.73 181.629 162.642 184.916 164.074 185.976Z" fill="#100DC3"/>
<path d="M168.787 168.324C167.502 169.739 167.217 168.869 165.892 169.677C165.327 172.252 167.229 174.804 165.149 176.529C164.147 176.699 164.617 176.754 163.684 176.379C162.469 174.597 163.599 171.997 163.059 169.607C161.964 169.417 160.547 169.332 159.911 168.364C160.692 166.614 167.094 167.037 168.582 167.727L168.787 168.324Z" fill="#2121B8"/>
<path d="M168.912 178.624C171.107 178.522 172.57 178.594 174.727 178.884C173.807 180.602 172.905 182.319 172.147 184.119C171.495 185.674 171.34 186.769 170.427 188.214C167.102 186.782 169.777 183.429 170.925 181.182C170.25 180.549 169.65 181.257 168.087 180.757C167.51 180.044 167.72 180.454 167.612 179.404C168.057 178.774 168.042 178.942 168.912 178.624Z" fill="#2B2BB3"/>
<path d="M148.34 183.856C149.057 183.153 150.116 182.243 150.48 181.351C149.023 180.941 147.588 182.466 146.406 181.261C146.377 180.588 146.275 180.463 146.871 179.831C148.871 177.716 153.331 177.916 153.156 181.533C153.113 182.428 151.393 184.276 150.635 185.066C150.635 185.581 150.578 185.396 150.677 185.651C150.292 185.913 150.499 185.806 149.92 185.801C149.056 185.133 148.936 184.808 148.34 183.856Z" fill="#2B2BB3"/>
<path d="M148.34 183.855C148.936 184.808 149.056 185.133 149.92 185.8C150.499 185.805 150.292 185.913 150.677 185.65C151.716 185.368 151.754 185.243 152.647 185.523C153.154 186.095 153.14 186.043 153.213 186.803C151.973 188.535 146.565 188.378 146.257 186.598C147.037 185.368 147.368 184.943 148.34 183.855Z" fill="#2121B8"/>
<path d="M128.881 68.163C129.252 67.2757 130.009 66.9675 130.747 66.412C133.6 64.2642 136.185 64.6995 139.492 64.8722C139.936 64.2352 139.747 64.544 139.776 63.567L139.466 63.411L138.958 63.7965L138.751 63.705C140.082 59.0377 143.653 61.1542 147.234 59.5287C148.977 58.7377 153.637 58.3435 154.993 57.025L154.715 56.6602C155.939 56.349 158.895 57.842 160.436 57.441C160.938 57.3105 161.506 57.3835 161.996 57.6195L162.144 58.2825L161.529 58.2075C160.147 59.3165 159.002 60.1702 160.146 61.793C159.235 62.4875 159.263 62.248 158.923 63.1557C159.14 65.6102 161.18 65.1837 161.633 66.707C160.822 67.0772 159.907 67.393 159.343 68.049C159.279 69.3932 161.336 69.675 160.733 71.084C156.093 72.6385 158.625 66.3625 155.304 67.2282C155.774 67.7857 155.598 67.5992 156.273 67.975C156.21 69.0902 155.789 73.8987 155.466 74.6822C155.015 74.9047 155.212 74.905 154.897 74.8502L154.871 74.428C154.242 73.9797 150.144 74.2997 148.937 74.2132L148.429 74.1737C148.439 73.5872 148.521 73.2582 148.62 72.685C148.485 72.1627 148.374 71.8457 148.188 71.338C147.402 70.9935 147.283 71.221 146.224 71.4557C145.182 70.9335 143.895 70.8232 143.45 72.1557C142.716 72.8957 141.897 72.8895 140.804 72.9267L140.415 73.322L140.936 74.117C131.036 73.949 132.387 73.8625 123.933 78.769C118.42 81.9682 111.307 86.7225 105.64 89.4587C105.438 88.2027 105.264 86.816 105.985 85.7565L106.38 85.8805C108.139 85.0967 114.168 81.29 116.33 80.0147C124.724 74.9902 133.159 70.0357 141.635 65.152C134.701 65.7387 135.275 64.6422 128.881 68.163ZM155.381 72.3302C155.359 71.0225 155.418 69.7025 155.458 68.394C154.075 69.1245 151.068 70.86 150.087 71.986C150.98 72.3757 154.205 72.311 155.381 72.3302ZM138.204 70.8527C141.975 69.766 151.757 67.4475 154.488 65.8405L154.508 65.5607C154.37 65.5265 154.005 65.4207 153.883 65.426C151.871 65.5632 149.765 65.5247 147.958 65.5842C145.164 65.6762 140.682 68.865 138.019 70.3877L137.77 70.7992C138.209 70.8727 138.108 70.869 138.204 70.8527Z" fill="#2121B8"/>
<path d="M156.273 67.9766C156.209 69.0918 155.789 73.9003 155.466 74.6838C155.014 74.9063 155.212 74.9066 154.896 74.8518L154.871 74.4296C154.241 73.9813 150.144 74.3013 148.936 74.2148L148.429 74.1753C148.439 73.5888 148.521 73.2598 148.62 72.6866L148.856 72.8196C149.595 72.8073 149.547 72.7853 150.194 72.4063L150.087 71.9876C150.98 72.3773 154.205 72.3126 155.381 72.3318C155.359 71.0241 155.418 69.7041 155.458 68.3956L156.273 67.9766Z" fill="#2B2BB3"/>
<path d="M161.842 74.1878C163.058 74.185 163.223 71.6448 165.083 71.1103C165.768 70.9128 166.515 70.6998 167.335 70.541C167.435 71.679 167.238 71.4868 167.865 72.1275C170.138 72.7955 171.483 71.9875 173.535 72.1363C172.45 73.0628 171.303 72.3843 171.108 72.9633C169.9 76.5543 165.995 74.4828 164.265 76.4688C163.668 76.094 162.643 74.8188 161.842 74.1878Z" fill="#2B2BB3"/>
<path d="M172.675 65.7247C174.045 65.2229 175.145 65.2892 175.152 63.6929C176.402 62.3272 177.96 63.4057 178.89 61.3984C180.05 61.8589 181.135 62.0862 182.342 62.3839C181.467 62.7047 181.357 62.6189 180.5 62.4027L179.95 62.6119C179.83 63.4652 181.092 65.0052 181.825 65.3984L181.88 65.6679C181.01 65.5279 174.73 65.8674 172.675 65.7247Z" fill="#2B2BB3"/>
<path d="M154.787 88.473C154.811 88.1365 154.915 88.0515 155.087 87.7137C155.978 87.2472 157.061 86.5057 157.955 86.5197L158.067 86.5787C158.909 87.25 160.217 88.039 160.895 88.6457C160.621 89.7365 160.903 89.328 160.16 90.0002C159.016 90.206 158.041 89.241 157.209 88.5637C156.976 89.2677 156.899 89.4517 156.972 90.218C156.428 91.2737 156.611 91.0647 155.349 91.0087C154.78 91.4275 154.807 91.4662 154.418 92.0735C154.356 90.303 154.292 90.223 154.787 88.473Z" fill="#2121B8"/>
<path d="M157.954 86.5195L158.067 86.5785C158.909 87.2498 160.217 88.0388 160.895 88.6455C160.62 89.7363 160.903 89.3278 160.16 90C159.016 90.2058 158.041 89.2408 157.209 88.5635L156.595 88.5735L156.547 88.1813C157.082 87.4705 157.343 87.1695 157.954 86.5195Z" fill="#2B2BB3"/>
<path d="M156.195 43.7411C156.78 41.5966 158.821 38.5764 161.106 38.2311C162.31 38.0494 163.225 38.8576 164.153 39.4734L163.688 39.4196C162.975 39.3309 162.745 39.2241 162.075 38.9764L161.567 39.3126C161.836 40.5798 162.445 39.1304 162.004 40.6546C160.691 42.0901 158.201 43.6054 156.195 43.7411Z" fill="#2B2BB3"/>
<path d="M174.347 39.9277C173.99 40.844 167.127 44.8197 166.22 44.889C165.532 44.4402 165.445 43.7615 165.172 42.9407L165 42.9797L164.667 43.674L165.232 43.0357C164.572 43.745 164.597 43.697 164.375 44.637C164.667 45.4177 165.095 45.6135 165.775 46.11C164.747 46.2247 163.717 46.3285 162.687 46.4212C162.422 45.9645 162.162 45.5315 161.818 45.1295C160.44 45.248 160.984 45.9955 159.831 46.0327C160.068 45.1192 160.383 44.9645 161.265 44.4497L162.78 43.5585C163.272 44.4317 162.972 44.2745 163.665 44.639L164.01 44.3517L163.995 43.924C163.977 43.4225 163.997 43.177 164.055 42.669C164.765 42.0645 165.027 42.0182 166.067 42.0042C165.955 43.0015 165.915 43.0902 166.147 44.0427L166.492 44.2012C169.082 42.757 171.7 41.2522 174.347 39.9277Z" fill="#2B2BB3"/>
<path d="M157.868 50.2715C159.045 50.3217 159.618 50.3225 160.448 51.2735C160.804 52.9945 159.787 54.244 158.239 54.9375C157.43 55.0292 156.787 55.022 156.007 54.7867L155.826 54.3372C156.033 53.2875 157.178 51.748 157.757 50.5137L157.868 50.2715Z" fill="#2B2BB3"/>
<path d="M172.635 56.9737C174.25 54.7244 178.362 52.7759 180.812 54.7547L180.655 55.2099C179.495 55.3584 177.865 55.3094 177.28 56.3794C177.932 56.6264 179.342 55.7742 180.715 56.0599L180.6 56.7174C179.642 56.6842 173.455 56.8159 172.635 56.9737Z" fill="#2B2BB3"/>
<path d="M174.89 74.3932L175.012 74.0337L174.915 73.5487C175.127 73.0077 175.075 72.6814 175.595 72.5009C176.777 72.0912 180 71.4067 180.722 72.7199C180.18 73.5334 179.16 73.5249 178.23 73.6212C179.492 73.6304 181.672 73.4994 182.692 73.9962L182.712 74.3859C182.057 74.7507 182.395 74.6707 181.677 74.6757C180.825 74.1047 176.852 74.6497 174.89 74.3932Z" fill="#2B2BB3"/>
<path d="M158.605 76.9395C159.232 77.8457 160.904 79.621 161.791 80.254C161.127 80.8462 160.635 81.134 159.818 81.4487C158.848 80.347 157.847 80.3392 156.9 79.3327L157.01 78.9595C158.304 78.3057 158.417 78.3802 158.605 76.9395Z" fill="#2121B8"/>
<path d="M143.45 72.1574C143.896 70.8249 145.183 70.9352 146.225 71.4574C144.986 71.9629 144.775 72.0544 143.45 72.1574Z" fill="#A290FA" fill-opacity="0.0313725"/>
<path d="M101.437 45.2168C102.423 45.7203 103.161 45.9306 103.626 46.8858C103.656 49.2921 100.468 49.7543 102.204 52.1665L102.655 52.2601C104.28 51.0753 104.59 48.8686 106.476 48.6533C107.284 48.8911 107.291 49.0286 107.825 49.6798C108.093 51.3433 106.864 52.4336 105.838 53.9313C106.812 54.6396 106.872 54.9241 107.899 55.0548C109.47 54.4026 109.946 52.2761 111.094 50.7446L113.437 52.0936C112.959 54.0391 110.848 58.4346 109.102 59.3986C109.166 60.9978 106.87 66.0783 105.463 66.6873C103.301 65.6176 94.202 61.6571 93.3545 59.9091C93.5532 58.8726 93.5652 59.1333 94.3975 58.2183C95.4722 57.9666 102.698 62.0926 104.282 62.9361C105.508 60.6026 105.493 58.7323 108.429 58.9846C105.272 56.7171 100.507 54.3735 96.9837 52.0285C98.5552 49.7235 99.6472 47.3583 101.437 45.2168Z" fill="#100DC3"/>
<path d="M93.4545 129.527C93.2435 127.963 92.6865 124.833 94.6037 124.121C97.1495 124.931 97.025 130.656 96.657 132.728C97.128 133.581 97.1845 133.562 97.1662 134.573C96.569 135.771 95.3632 136.082 94.1165 136.605C94.3522 137.51 94.6635 138.581 94.858 139.477C96.5707 139.866 97.9825 140.082 98.5345 142.037C97.9782 142.602 97.9472 142.797 97.0757 142.764C96.0922 142.483 96.019 142.515 94.9772 142.611C92.8575 142.495 90.4702 141.936 88.2982 141.756C86.577 141.614 83.1972 141.402 83.1705 139.197C84.291 137.055 93.3742 133.667 95.9935 132.741C93.6697 131.428 79.4037 135.823 82.6687 130.902C84.7932 129.852 90.4575 130.095 93.4545 129.527Z" fill="#100DC3"/>
<path d="M133.192 202.143C135.045 202.815 135.609 203.608 135.004 205.558C134.34 207.7 133.322 209.635 132.657 211.828C134.018 210.22 137.039 205.605 138.763 205.343C139.373 205.64 140.696 206.25 140.382 207.15C139.679 209.168 136.791 219.928 134.594 219.918C132.101 217.85 134.357 215.68 135.435 212.86C135.284 212.685 135.393 212.775 135.049 212.683C133.685 214.23 132.799 215.633 131.324 217.153C130.017 217.598 128.596 216.738 128.497 215.765C128.379 214.613 130.586 209.933 131.044 208.808C129.292 210.595 127.557 214.845 125.146 214.39C124.33 213.605 124.552 214.055 124.3 213.085C124.899 211.378 131.666 203.663 133.192 202.143Z" fill="#2121B8"/>
<path d="M230.955 108.585C233.545 108.465 235.675 108.241 238.007 109.749C240.172 111.149 241.155 113.939 239.522 116.152C238.32 117.784 236.795 118.34 234.847 118.697C229.512 119.525 226.19 118.529 225.145 113.033C226.635 109.999 227.797 109.311 230.955 108.585ZM234.812 115.823C236.272 115.243 237.55 114.84 236.965 113.01C235.837 111.918 234.807 111.491 233.22 111.496C232.6 111.501 231.98 111.529 231.362 111.58C229.897 111.947 228.52 112.187 228.667 113.993C230.032 116.225 232.555 116.162 234.812 115.823Z" fill="#100DC3"/>
<path d="M228.913 72.8633C232.903 73.2313 233.62 73.5163 234.955 77.435L234.93 77.5185C233.568 82.2863 231.125 82.866 226.623 83.9838C224.145 84.087 223.35 83.9575 221.26 82.6893C220.803 81.8315 220.343 80.7398 219.933 79.84C220.773 74.4915 224.268 73.9435 228.913 72.8633ZM226.215 81.0245C228.308 80.6005 232.013 79.5073 231.45 76.7003C230.72 75.9183 230.253 75.8418 229.205 75.8163C229.013 75.812 228.818 75.8113 228.623 75.8135C226.743 76.4473 222.898 77.37 223.483 79.9085C224.33 80.953 224.825 81.151 226.215 81.0245Z" fill="#100DC3"/>
<path d="M105.32 171.543C107.247 171.406 107.704 171.763 108.802 173.113C109.881 174.441 112.148 177.341 110.138 178.876C107.704 180.733 104.032 182.361 101.288 183.768L98.6737 185.011C95.95 179.923 93.7305 176.173 100.941 174.823C100.898 174.831 102.269 173.336 102.369 173.211C103.059 172.338 104.313 171.956 105.32 171.543Z" fill="#100DC3"/>
<path d="M216.57 40.2949C217.72 40.6312 219.71 43.6129 219.978 44.7999C220.793 48.4269 218.823 49.4397 215.858 50.1674C214.345 52.8129 212.813 54.7299 209.433 54.1497C207.765 52.8027 206.15 50.0627 204.95 48.1934C208.725 45.4194 212.6 42.7847 216.57 40.2949ZM211.185 51.2047C212.873 50.5047 213.075 48.9369 211.83 47.6587L211.055 47.5817C209.793 48.1202 209.818 47.8557 209.343 48.7924C209.42 49.7179 210.43 50.7212 211.185 51.2047Z" fill="#100DC3"/>
<path d="M172.892 10.0645L173.775 10.2757C176.497 10.9392 178.25 11.04 179.742 13.5042C180.552 15.433 180.085 18.699 179.29 20.6022C178.367 23.601 177.465 24.6057 174.475 25.446C172.992 25.0597 170.622 24.9024 169.53 23.9819C169.257 21.9119 172.022 12.2545 172.892 10.0645ZM175.287 21.9967C177.137 19.841 178.77 14.9222 174.862 13.6737C174.202 15.3105 173.11 19.7955 172.922 21.5642L173.115 21.964C174.152 22.0935 174.237 22.085 175.287 21.9967Z" fill="#100DC3"/>
<path d="M186.572 203.018C188.122 203.508 193.217 213.293 194.377 215.38C192.47 216.733 190.992 217.515 188.772 218.245C184.127 217.703 182.097 212.545 180.992 208.558C182.27 205.238 183.502 204.883 186.572 203.018ZM188.935 215.07C189.932 214.378 189.797 214.703 189.977 213.793C189.405 212.028 187.372 207.65 185.602 207.128C184.897 208.008 184.445 208.288 184.592 209.51C184.87 211.818 186.377 214.818 188.935 215.07Z" fill="#100DC3"/>
<path d="M226.932 120.042C229.669 119.711 237.042 120.167 240.157 120.293L239.827 124.149C238.414 124.379 236.357 124.774 234.982 124.811C234.112 124.933 234.002 124.796 233.442 125.275C233.919 125.726 233.702 125.586 234.382 125.749C235.804 125.975 238.512 126.23 239.572 127.136C239.974 128.079 240.039 128.137 239.947 129.124C239.664 129.671 239.267 130.278 238.627 130.387C234.962 131.017 230.439 129.952 226.514 130.011C225.947 130.047 225.897 130.025 225.329 129.925C223.822 126.285 227.552 127.679 228.904 126.896C227.317 126.526 226.179 126.523 225.289 125.215C225.192 123.877 226.154 123.288 227.349 123.081L228.932 122.796C230.449 123.112 232.109 122.606 233.642 123.075C234.552 123.352 234.914 123.187 235.752 122.89L235.902 122.542C234.139 121.325 231.244 122.764 228.964 122.125C229.099 120.33 228.352 120.409 226.932 120.042Z" fill="#100DC3"/>
<path d="M228.904 126.894C229.724 126.584 231.164 126.732 231.819 127.334C231.237 128.065 228.774 128.366 227.769 128.486C227.249 128.548 226.729 128.589 226.207 128.609C226.512 129.851 227.092 128.927 226.522 129.861C226.519 129.911 226.517 129.96 226.514 130.01C225.947 130.046 225.897 130.024 225.329 129.924C223.822 126.284 227.552 127.678 228.904 126.894Z" fill="#2B2BB3"/>
<path d="M122.873 22.8379C127.608 23.4524 126.271 26.2714 127.606 29.0721C127.903 29.6951 132.975 30.7021 132.616 32.8064C129.607 35.5541 126.359 30.8679 124.615 32.0426C124.781 32.8261 125.368 33.3254 125.919 33.9489C126.907 35.0169 127.902 36.5779 126.826 37.9084C124.534 37.9529 118.266 29.2131 116.75 27.1751C118.36 25.1171 120.287 23.3879 122.873 22.8379Z" fill="#100DC3"/>
<path d="M100.047 153.288L100.527 153.268C101.153 153.646 101.594 154.59 101.99 155.265C99.714 157.958 97.6832 159.248 94.846 161.315C97.0377 160.763 100.942 158.493 102.883 159.46C103.229 160.063 103.089 160.515 103.016 161.22C102.048 162.158 92.3607 164.773 90.2937 165.48C85.5667 163.873 94.399 158.578 95.848 157.497C93.4977 158.068 89.6082 160.375 87.615 159.085C87.3015 158.145 87.3317 158.608 87.5035 157.645C88.9667 156.472 97.5625 154.126 100.047 153.288Z" fill="#100DC3"/>
<path d="M222.055 148.266L222.807 148.234L223.05 148.507C225.57 149.836 234.48 150.352 235.935 152.83C235.17 155.62 229.097 155.177 226.49 155.623C228.507 156.018 231.34 156.443 233.217 157.234C233.962 157.549 233.977 157.923 234.195 158.562C234.015 159.319 234.2 158.994 233.54 159.522C231.512 159.972 220.895 157.38 219.965 156.072C219.847 152.579 225.94 153.086 228.647 152.75C226.195 152.055 222.765 152.09 221.465 150.258C221.375 149.215 221.51 149.374 222.055 148.266Z" fill="#100DC3"/>
<path d="M95.1982 143.408C96.0052 143.321 95.9267 143.259 96.6942 143.411L97.543 144.036C104.555 149.117 94.7297 157.561 86.5549 153.35C85.6247 151.909 84.2785 149.752 85.241 147.935C85.7805 146.916 86.9967 145.641 88.1192 145.27C88.9117 145.34 88.9709 145.484 89.6044 145.968C90.2864 147.931 88.4607 147.877 88.187 149.776C89.2887 153.118 98.1757 150.836 96.2025 147.291C95.8537 146.665 95.38 146.573 94.783 146.391C94.0347 147.042 94.6495 147.702 94.3425 148.265C92.2465 152.104 89.9367 146.908 91.1864 144.594C92.0324 143.91 94.0347 143.65 95.1982 143.408Z" fill="#100DC3"/>
<path d="M87.7616 76.0137C88.6363 76.0614 88.9993 75.9892 89.6826 76.5292C90.6608 78.1929 89.4658 79.9429 89.5436 82.1249L89.8913 82.4187C90.4441 82.3232 90.4181 82.2642 90.9423 81.9892C91.4711 80.5654 92.4071 77.3704 94.2361 77.6444C95.9341 79.4894 94.9313 81.0302 94.1936 83.1639L96.8268 84.3294C97.3901 81.5477 97.3348 78.3842 100.952 79.2414C101.402 80.8932 99.9508 86.3957 98.7378 87.5509C96.2756 87.5484 88.3016 84.2169 85.0283 83.6084C86.0528 81.2642 86.3268 77.7309 87.7616 76.0137Z" fill="#100DC3"/>
<path d="M103.396 162.131C104.435 162.953 106.548 168.241 106.748 169.363C105.886 170.451 95.7488 174.583 93.742 175.473C92.6795 173.491 91.502 170.393 90.5713 168.221C94.2345 164.943 94.1003 169.993 96.202 171.601C98.1535 170.701 96.3308 168.163 95.65 166.588C96.7175 165.638 96.9815 165.056 98.401 165.453C99.805 166.826 99.134 168.791 101.095 169.201C101.944 168.908 101.974 168.946 102.664 168.318C102.763 167.536 101.228 164.411 100.816 163.438L103.396 162.131Z" fill="#100DC3"/>
<path d="M92.3748 62.6113C97.7446 63.9291 93.058 66.0286 93.563 68.6476C94.3145 69.2083 93.912 69.0726 94.7818 69.1503C96.2003 68.1956 95.4788 66.1031 97.627 65.2536C98.61 65.2331 99.0076 65.6508 99.8311 66.2148C99.1931 67.9523 98.8953 68.9211 97.8956 70.4811L98.1738 70.5986C102.697 72.4783 100.849 68.4081 103.041 66.8531L103.711 66.9728C104.775 67.2593 104.663 67.0466 105.204 67.7423C105.401 69.8046 103.677 73.1141 102.829 75.2078C100.654 74.7301 90.0228 71.0056 89.4873 69.2781C89.8971 67.5513 91.4718 64.1178 92.3748 62.6113Z" fill="#100DC3"/>
<path d="M193.76 197.98C196.03 198.48 201.108 206.808 203.075 208.925C201.033 210.99 198.873 212.508 196.418 214.023C195.843 213.228 195.173 212.433 194.555 211.663C195.79 210.628 197.805 209.325 198.748 208.165C198.565 207.64 198.505 207.543 198.228 207.058L197.68 206.92C196.593 207.315 195.013 208.713 193.795 209.533L191.813 207.308C192.91 206.173 197.02 203.73 193.963 202.108C193.235 202.393 190.76 204.303 189.553 205.018C188.945 204.168 188.545 203.463 188.018 202.555C189.823 200.66 191.643 199.488 193.76 197.98Z" fill="#100DC3"/>
<path d="M119.37 190.094C120.182 190.346 121.121 190.979 121.87 191.429C123.173 193.939 123.603 196.079 121.107 198.211C119.958 198.399 120.445 198.506 119.53 198.144C118.486 196.429 120.503 194.441 118.819 193.326C117.931 193.334 117.984 193.304 117.189 193.684C116.921 194.474 118.023 197.771 118.306 198.834C118.202 199.091 118.095 199.349 117.984 199.601C117.047 201.739 116.23 202.289 114.135 203.119C107.482 202.951 109.064 196.021 111.811 195.306C113.265 196.206 112.378 198.814 113.647 200.204L114.139 199.996C115.555 197.259 110.095 191.184 119.37 190.094Z" fill="#100DC3"/>
<path d="M86.1675 114.627C85.8665 114.978 85.5602 115.324 85.249 115.666C84.667 116.313 84.691 116.099 84.5175 116.882L84.931 117.382C85.1517 117.416 85.3725 117.451 85.5932 117.485C87.2137 115.884 87.7797 112.801 90.372 112.072C91.3437 111.798 92.8785 112.12 93.687 112.565C94.9187 113.198 95.7277 113.657 96.1455 115.078C96.5022 116.339 96.3377 117.689 95.689 118.827C94.6055 120.707 91.4885 121.799 90.0845 120.029C90.4857 117.932 93.31 117.803 92.9962 115.78C92.3255 115.06 92.1507 115.055 91.2422 114.74C90.1655 116.53 89.9667 117.77 88.5942 119.742L85.775 120.737C84.7612 120.519 83.4922 120.096 82.4777 119.789C81.282 117.474 81.0377 116.717 81.7725 114.24C82.9342 113.01 85.1657 111.528 86.5545 113.217C86.481 113.972 86.53 113.979 86.1675 114.627Z" fill="#100DC3"/>
<path d="M81.7725 114.241C82.9342 113.012 85.1657 111.53 86.5545 113.218C86.481 113.974 86.53 113.98 86.1675 114.629C83.5755 114.695 84.8085 115.885 81.7725 114.241Z" fill="#2121B8"/>
<path d="M222.135 49.7227C222.932 49.7569 223.38 49.8819 223.892 50.4984C223.692 53.5819 216.577 54.7904 214.767 58.1367C214.792 58.8827 214.65 58.5882 215.16 59.0719C215.497 59.1479 216.22 59.3229 216.512 59.1834C219.335 57.8399 222.537 55.7567 225.39 54.5477L225.715 54.4127C226.2 55.1414 226.54 55.5354 226.755 56.3922C226.412 57.3087 226.432 57.0682 225.475 57.7577C223.037 58.9814 216.435 63.3814 214.535 62.3877C204.652 57.2149 219.352 51.0664 222.135 49.7227Z" fill="#2121B8"/>
<path d="M190.1 16.8164C194.038 17.2759 196.153 20.9189 193.225 23.6342C191.713 23.5967 191.863 21.3092 190.358 19.9249C189.618 19.8402 189.97 19.7684 189.295 20.2649C189.273 21.2622 191.563 24.2557 192.275 25.3157C191.48 28.7129 191.103 30.0077 187.68 31.2354C186.973 31.1002 186.04 31.0252 185.303 30.9449C183.368 29.2359 182.69 27.6279 183.195 24.8287C183.303 24.2294 183.708 24.0734 184.18 23.8472C185.08 23.8987 185.08 23.8509 185.883 24.3392C186.288 25.0579 186.125 25.9677 186.08 26.8282C186.535 27.6627 186.218 27.3242 187.148 27.7924C188.198 27.7062 187.74 27.8772 188.588 27.2877C189.775 24.3532 183.59 24.2757 187.383 18.0254C188.558 17.2569 188.743 17.1804 190.1 16.8164Z" fill="#100DC3"/>
<path d="M206.407 28.1211C207.902 29.6196 211.097 32.2503 211.059 34.3513C211.012 37.0108 208.062 39.2881 205.432 38.5573L205.727 38.4701C204.482 37.8601 203.649 37.3593 202.444 36.7246L202.167 36.3923C201.252 36.8181 199.192 39.1993 197.807 40.1321C197.162 39.4616 196.447 38.7566 195.859 38.0446C199.319 34.7928 202.894 31.2798 206.407 28.1211Z" fill="#100DC3"/>
<path d="M95.9786 94.9016C96.6909 94.7024 96.6376 94.7044 97.3569 94.8791C99.1739 97.4951 94.9109 97.7239 94.1204 98.4171C93.8989 99.3869 93.9276 99.7989 93.9161 100.809C94.5874 102.266 96.7699 101.623 96.9967 103.774C96.7237 104.432 96.7274 104.635 96.1426 105.022C95.1174 105.028 91.0309 103.204 89.7192 102.679C87.4904 101.779 83.7127 100.825 82.6084 98.8294C82.5977 95.7339 93.2781 95.2251 95.9786 94.9016Z" fill="#2121B8"/>
<path d="M222.055 148.265C222.115 146.904 222.04 146.458 222.962 145.54C224.235 145.195 225.05 145.358 225.877 144.612C227.602 141.006 222.582 141.223 223.375 138.638C224.082 138.161 224.07 138.222 224.937 138.145C226.372 138.822 238.652 143.947 237.525 145.721C235.605 148.745 225.207 147.117 223.05 148.506L222.807 148.233L222.055 148.265Z" fill="#100DC3"/>
<path d="M225.042 130.996C227.912 131.329 236.472 131.437 238.707 132.503C239.805 134.136 238.82 137.879 237.59 139.414C236.427 140.07 235.142 140.345 233.827 140.236C229.997 139.92 229.405 137.069 229.68 134.072C227.897 134.026 225.917 134.441 224.732 133.065C224.555 132.079 224.66 131.974 225.042 130.996Z" fill="#100DC3"/>
<path d="M135.84 14.1035C137.586 14.3708 139.905 15.504 140.031 17.461C138.952 19.5008 137.14 17.4528 135.238 18.306C134.034 20.0923 136.516 25.457 138.282 25.4928C140.092 24.239 139.422 21.4033 141.633 21.4575C142.538 21.982 142.545 22.0735 143.08 23.0188C142.966 24.847 142.666 27.6913 140.599 28.4473C135.336 30.3723 130.078 21.1808 131.998 16.8793C132.706 15.2918 134.253 14.6025 135.84 14.1035Z" fill="#2121B8"/>
<path d="M231.067 98.3483C234.667 98.1081 236.062 98.1101 239 100.444L239.832 103.082L238.715 105.653C237.322 106.678 236.582 107.497 234.91 106.781C234.142 105.312 235.545 104.618 236.107 102.515C235.707 100.691 233.34 101.196 231.855 101.308C230.475 101.533 228.287 101.616 228.167 103.324C228.965 104.951 231.027 105.374 231.1 107C229.527 109.09 225.177 106.889 224.72 104.898C223.802 100.899 228.02 98.9168 231.067 98.3483Z" fill="#100DC3"/>
<path d="M107.212 37.8394C108.819 37.6577 110.466 37.6562 111.421 39.0672C111.408 40.9502 108.697 40.3385 107.532 42.3565C107.568 44.5275 111.805 47.1215 113.669 47.2452C115.058 46.3862 113.506 44.5754 114.095 42.5417C114.797 41.9519 114.393 42.1544 115.4 42.0352C116.274 42.2799 116.472 42.6569 117.069 43.3477C118.242 45.3014 118.206 48.1362 116.166 49.35C110.684 52.612 98.7185 42.4392 107.212 37.8394Z" fill="#2121B8"/>
<path d="M207.81 182.473C207.91 181.556 207.865 181.351 208.443 180.613C208.908 180.406 209.355 180.168 209.908 180.468C213.473 182.418 217.8 185.801 221.01 188.153C218.63 191.678 217.933 191.298 214.293 189.136C213.688 188.696 213.703 188.656 212.995 188.461L212.603 188.831C211.683 188.868 210.64 188.783 209.865 188.251L209.893 188.483C209.965 189.173 210.038 189.381 209.785 190.038L209.33 189.236C208.69 187.726 207.338 186.783 206.043 185.783C205.573 184.823 205.655 185.306 205.718 184.291C206.215 183.458 206.52 183.368 207.345 182.878C208.343 183.766 211.093 185.041 212.418 185.711C211.11 184.148 209.708 183.233 207.81 182.473Z" fill="#2B2BB3"/>
<path d="M230.435 86.9927C228.602 87.4337 224.147 89.2354 222.727 88.4642C222.31 87.7364 221.97 86.9764 222.552 86.2767C225.012 85.3777 234.227 83.0382 236.527 84.0879C238.095 86.2649 232.022 88.9807 230.435 90.3559C229.432 90.2749 229.765 90.1014 229.185 90.5479C229.085 91.4134 229.667 92.5247 230.072 93.3252C228.597 93.6177 223.59 95.2344 223.197 93.1444C224.04 90.7282 228.232 88.5924 230.435 86.9927Z" fill="#100DC3"/>
<path d="M121.189 200.156C122.466 201.111 123.7 202.169 124.928 203.189C125.625 202.696 126.369 202.109 127.057 201.591C127.828 202.144 128.444 202.534 128.931 203.371C126.506 205.991 124.591 208.839 121.875 211.594C120.173 210.484 118.607 209.036 117.049 207.739C115.719 206.629 116.049 205.724 117.245 204.631C119.502 204.171 119.944 206.931 121.853 207.071C122.683 206.524 122.314 206.861 122.848 205.844C122.613 205.294 120.26 203.586 119.473 202.631L121.189 200.156Z" fill="#100DC3"/>
<path d="M161.701 10.4917C162.322 9.20921 163.092 8.46671 164.585 8.87321C165.455 10.0027 164.902 10.5205 164.375 11.83L163.41 14.1465C161.685 18.1297 162.565 18.674 161.838 22.632C161.702 23.3685 161.34 23.7265 160.735 24.05C160.341 23.8957 159.831 23.7117 159.627 23.2157C159.122 21.9817 159.714 20.1495 159.431 18.9067C158.864 16.422 157.426 14.2372 156.437 11.921C156.032 10.9717 155.694 10.2872 156.068 9.32096C158.69 7.78196 159.695 12.0605 160.643 13.7217C161.041 12.654 161.362 11.5795 161.701 10.4917Z" fill="#100DC3"/>
<path d="M161.701 10.4917C162.322 9.20921 163.092 8.46671 164.584 8.87321C165.454 10.0027 164.902 10.5205 164.374 11.83C163.202 11.468 162.557 11.3262 161.701 10.4917Z" fill="#2121B8"/>
<path d="M161.701 10.4922C162.557 11.3267 163.202 11.4684 164.375 11.8304L163.41 14.1469C163.092 13.8884 162.732 13.6604 162.395 13.4294C161.469 13.2759 161.473 13.3462 160.643 13.7222C161.041 12.6544 161.362 11.5799 161.701 10.4922Z" fill="#100DC3"/>
<path d="M197.737 21.6797C200.13 22.2642 204.597 25.4247 203.925 28.3832C202.617 29.7009 201.477 28.2322 200.552 27.2559L195.66 33.6309C195.335 34.0157 193.912 35.7939 193.485 35.7327C188.972 35.0832 197.03 27.0527 198.39 25.4079C197.437 24.8482 196.917 24.4034 196.047 23.7059L197.737 21.6797Z" fill="#100DC3"/>
<path d="M115.008 184.488C115.688 184.513 115.743 184.606 116.374 184.901C116.949 185.681 116.825 185.253 116.724 186.243C114.981 188.838 108.523 191.533 108.166 193.388C108.558 194.251 108.727 194.476 108.737 195.438C108.399 196.266 107.754 196.588 107.011 197.131L105.603 195.418C104.4 193.786 102.018 191.368 102.851 189.388C103.572 188.846 103.509 188.861 104.407 188.796C105.282 189.068 105.783 189.838 106.396 190.556C108.329 188.903 112.791 185.878 115.008 184.488Z" fill="#2121B8"/>
<path d="M204.779 203.094C203.299 201.341 197.179 196.819 197.029 195.291C197.379 194.166 197.119 194.449 197.929 193.811C200.519 193.459 204.349 199.784 206.699 200.809C208.204 199.576 208.177 199.139 209.887 199.766C210.672 200.621 210.492 200.146 210.627 201.149C210.047 202.664 208.619 203.789 207.417 204.949C206.827 205.626 206.154 206.224 205.632 206.824L205.034 206.996C204.312 206.726 203.632 205.799 203.084 205.176C203.869 204.354 204.142 204.034 204.779 203.094Z" fill="#100DC3"/>
<path d="M209.887 199.766C210.672 200.621 210.492 200.146 210.627 201.148C210.047 202.663 208.62 203.788 207.417 204.948L207.335 204.251C207.78 203.868 207.552 204.071 208.015 203.641C208.372 202.248 207.79 201.958 208.07 200.983C208.762 200.296 209.04 200.203 209.887 199.766Z" fill="#100DC3"/>
<path d="M152.883 9.38435C153.473 9.2686 153.237 9.28185 153.854 9.44935C154.291 10.2056 154.272 10.9071 154.361 11.7871C153.776 12.5736 153.486 12.4096 152.267 12.7481C150.949 14.1211 154.117 21.5851 153.041 24.1686C152.517 24.5116 152.038 24.4339 151.395 24.4409C150.631 23.8761 150.836 23.8964 150.45 22.8074C150.194 21.2489 149.408 14.1776 148.704 13.4836C146.868 13.8741 145.28 13.9441 145.619 11.4171C146.601 10.1003 150.833 9.7771 152.883 9.38435Z" fill="#100DC3"/>
<path d="M82.6118 102.78C83.6766 102.749 84.458 102.681 85.2703 103.241C85.5645 104.49 84.8653 104.752 85.4093 105.761C87.5991 106.808 94.8616 105.118 96.4966 107.52C96.5006 108.609 96.6016 108.074 95.9938 109.141C95.0366 109.578 94.5451 109.294 93.3548 109.116C91.6878 109.082 86.1978 108.403 85.2605 108.952C85.0895 109.782 85.0201 110.033 84.7376 110.832C84.1161 111.485 84.154 111.431 83.2728 111.66C80.6568 111.145 81.9356 104.561 82.6118 102.78Z" fill="#100DC3"/>
<path d="M214.505 169.574C216.64 170.064 225.622 174.207 227.005 175.809C227.09 176.822 227.217 176.599 226.822 177.382C224.887 178.332 218.31 174.467 216.442 173.302C215.752 174.742 215.365 176.034 214.14 176.959C213.422 177.102 213.355 177.102 212.62 177.092L212.487 177.019C211.937 176.289 211.62 176.189 211.77 175.444C212.155 173.539 213.545 171.307 214.505 169.574Z" fill="#2121B8"/>
<path d="M203.319 187.916C203.967 186.983 204.162 186.553 205.102 186.273C206.307 187.131 208.119 188.503 209.329 189.236L209.784 190.038C210.037 189.381 209.964 189.173 209.892 188.483L209.864 188.251C210.639 188.783 211.682 188.868 212.602 188.831C213.079 189.288 213.804 190.026 214.289 190.423C215.367 191.423 216.234 192.276 217.244 193.341C216.687 194.418 216.407 195.176 215.487 195.958C214.342 196.176 209.049 192.726 208.629 192.031C207.107 191.141 204.574 189.116 203.319 187.916Z" fill="#2121B8"/>
<path d="M203.319 187.916C203.967 186.983 204.162 186.553 205.102 186.273C206.307 187.131 208.119 188.503 209.329 189.236L209.784 190.038L210.282 190.791C209.297 190.511 209.379 190.366 208.584 190.841C208.617 191.341 208.537 191.086 208.912 191.566L208.629 192.031C207.107 191.141 204.574 189.116 203.319 187.916Z" fill="#2121B8"/>
<path d="M108.899 34.6676C110.386 33.1196 114.313 27.9906 116.451 29.1041C117.321 30.7928 116.522 31.5496 115.277 32.5608L120.168 37.4763C119.346 38.3106 118.787 38.4708 117.814 39.0901C116.378 37.7303 115.021 35.7106 113.429 35.2868C112.433 35.5241 112.234 35.981 111.414 36.7798L108.899 34.6676Z" fill="#100DC3"/>
<path d="M224.184 165.498C222.359 163.963 215.144 163.293 218.609 160.243C219.572 160.17 222.999 161.805 224.579 161.975C226.574 162.19 231.914 160.27 232.934 161.833C232.894 165.208 229.624 164.503 227.069 164.52C225.747 165 225.849 164.348 224.184 165.498Z" fill="#1E19BC"/>
<path d="M184.057 13.6621C185.287 13.9141 185.56 13.8524 186.095 15.0126C185.927 16.6971 181.827 26.7389 180.765 28.0416C180.235 27.9034 178.497 27.3609 178.69 26.6421C179.415 23.9316 182.375 15.4984 184.057 13.6621Z" fill="#100DC3"/>
<path d="M213.637 36.1738C214.304 36.7633 214.914 37.1448 215.147 37.9703C214.859 39.6261 205.362 47.0378 204.099 47.0048C203.229 46.5508 203.324 46.5106 202.887 45.6746L202.364 44.6958L203.129 44.2508C204.177 44.3543 212.107 37.3458 213.637 36.1738Z" fill="#2B2BB3"/>
<path d="M212.62 177.092C213.51 178.814 221.482 181.214 222.962 184.114C222.992 185.082 223.097 184.634 222.59 185.499C220.455 186.084 211.29 180.329 209.992 178.374C209.935 177.507 209.8 177.854 210.3 177.254C211.242 176.779 211.385 176.872 212.487 177.019L212.62 177.092Z" fill="#2121B8"/>
<path d="M202.292 189.203C203.885 189.586 212.302 196.921 213.105 198.371C212.995 199.238 212.867 199.103 212.127 199.903C210.292 199.718 201.515 192.536 201.1 190.783C201.35 189.791 201.372 190.033 202.292 189.203Z" fill="#100DC3"/>
<path d="M142.593 11.4043C142.732 11.4703 142.878 11.5243 143.011 11.6021C144.17 12.2808 147.104 22.646 147.731 24.6208C147.217 25.263 146.958 25.6255 146.506 26.315C146.264 26.1663 145.54 25.722 145.394 25.5003C143.999 23.3913 141.104 14.8025 141.138 12.6908C141.381 12.0228 141.956 11.8008 142.593 11.4043Z" fill="#2121B8"/>
<path d="M228.679 68.5828C229.782 68.179 230.017 68.0085 231.144 68.1005C231.792 68.5053 232.074 68.6738 232.179 69.555C231.262 71.1105 221.349 74.5443 219.409 74.8735C218.609 74.6383 218.602 74.7038 218.064 74.09C217.829 71.5278 226.449 69.2845 228.679 68.5828Z" fill="#100DC3"/>
<path d="M228.68 68.5828C229.782 68.179 230.017 68.0085 231.145 68.1005C231.792 68.5053 232.075 68.6738 232.18 69.555C231.342 68.9258 230.017 69.2715 228.68 68.5828Z" fill="#2121B8"/>
<path d="M126.729 18.8887L127.758 19.0729C129.19 20.0594 134.493 28.4962 135.302 30.2847C135.16 31.1307 134.979 31.0844 134.316 31.8589C134.018 31.9147 133.617 32.0707 133.452 31.8792C130.872 28.8807 127.702 24.2517 126.09 20.6404C125.831 20.0584 126.455 19.3277 126.729 18.8887Z" fill="#2121B8"/>
<path d="M87.4998 88.127C90.4013 88.919 93.1445 89.4894 96.099 90.0322C97.3503 90.2622 97.8458 90.6072 98.5961 91.6032L98.6971 92.2424C96.7278 94.7319 89.2163 90.3907 86.9993 91.4797C86.7518 92.1417 86.6763 92.4132 86.5148 93.103L86.3113 91.4022C86.0865 89.6007 86.2306 89.4722 87.4998 88.127Z" fill="#100DC3"/>
<path d="M225.949 62.5293C225.944 63.4845 226.027 64.7886 225.489 65.4288C225.477 65.5086 225.467 65.5881 225.457 65.6678C224.612 66.3038 218.567 69.1813 217.267 69.1123C216.379 69.0653 216.389 68.9503 215.892 68.4185C215.844 68.0615 215.699 67.5886 215.884 67.3818C217.502 65.5658 223.787 63.401 225.949 62.5293Z" fill="#100DC3"/>
<path d="M225.95 62.53C225.41 61.4662 225.222 61.269 225.175 60.1207C225.775 58.8072 226.117 58.8817 227.495 58.5957C228.997 61.3402 230.025 63.6185 231.21 66.5227C230.285 66.848 229.482 67.2512 228.537 67.0682C227.635 66.454 227.597 66.2592 227.03 65.28C226.27 65.0687 226.39 65.216 225.457 65.6685C225.467 65.5887 225.477 65.5092 225.49 65.4295C226.027 64.7892 225.945 63.4852 225.95 62.53Z" fill="#100DC3"/>
<path d="M127.058 201.59C125.503 200.073 122.812 198.62 123.643 196.405C125.491 194.665 129.585 199.125 131.099 200.413C130.403 201.725 130.063 202.385 128.931 203.37C128.445 202.533 127.829 202.143 127.058 201.59Z" fill="#2121B8"/>
<path d="M83.249 92.7828C83.8373 90.5808 84.139 86.5153 85.6685 85.1991C86.8033 84.9038 87.7508 85.2053 88.0738 86.4076C87.8488 86.9761 87.6543 87.5346 87.4993 88.1271C86.23 89.4723 86.086 89.6008 86.3108 91.4023L86.5143 93.1031C86.2295 93.8231 86.4583 93.5403 85.7833 93.9628C84.8688 93.8938 84.059 93.2761 83.249 92.7828Z" fill="#100DC3"/>
<path d="M230.435 90.3563C232.108 90.7523 235.43 88.3673 237.753 89.5831C238.183 90.4221 238.06 89.9628 237.928 91.0471C237.065 92.0991 231.773 93.0079 230.073 93.3256C229.668 92.5251 229.085 91.4139 229.185 90.5484C229.765 90.1019 229.433 90.2753 230.435 90.3563Z" fill="#2B2BB3"/>
<path d="M202.445 36.7246C203.65 37.3594 204.482 37.8601 205.727 38.4701L205.432 38.5574C204.73 40.4824 203.717 42.5636 203.13 44.2494L202.365 44.6944C201.405 44.1796 201.157 43.6034 200.582 42.6746C201.24 40.7026 201.86 38.7189 202.445 36.7246Z" fill="#2121B8"/>
<path d="M224.185 165.499C225.85 164.349 225.747 165.001 227.07 164.521C228.41 165.879 229.905 166.889 231.055 168.244C230.745 169.024 230.482 169.984 229.857 170.474C228.935 170.316 224.787 166.311 224.185 165.499Z" fill="#2121B8"/>
<path d="M120.167 37.4766C121.538 38.6963 122.621 39.2898 122.811 41.0653L122.586 41.6228C120.546 42.4616 119.126 40.4353 117.813 39.0903C118.787 38.4711 119.346 38.3108 120.167 37.4766Z" fill="#100DC3"/>
<path d="M228.933 122.795C227.853 122.154 227.315 122.389 226.123 122.087C225.465 121.321 225.67 121.759 225.558 120.696C225.968 119.864 225.66 120.119 226.408 119.795L226.933 120.041C228.353 120.407 229.1 120.329 228.965 122.124C231.245 122.763 234.14 121.323 235.903 122.541L235.753 122.889C234.915 123.185 234.553 123.351 233.643 123.073C232.11 122.605 230.45 123.111 228.933 122.795Z" fill="#100DC3" fill-opacity="0.980392"/>
<path d="M206.043 185.783C207.338 186.783 208.69 187.726 209.33 189.236C208.12 188.503 206.308 187.131 205.103 186.273L206.043 185.783Z" fill="#A290FA" fill-opacity="0.0156863"/>
<path d="M207.81 182.473C209.707 183.233 211.11 184.148 212.417 185.71C211.092 185.04 208.342 183.765 207.345 182.878L207.81 182.473Z" fill="#A290FA" fill-opacity="0.0313725"/>
<path d="M94.9776 142.611C96.0193 142.515 96.0925 142.484 97.076 142.765L96.6945 143.411C95.927 143.259 96.0055 143.322 95.1985 143.409C94.6745 143.271 93.9641 143.231 93.3623 143.092C93.7716 142.714 94.3181 142.737 94.9776 142.611Z" fill="#C1B6EE" fill-opacity="0.0156863"/>
<path d="M212.603 188.831L212.995 188.461C213.703 188.656 213.688 188.696 214.293 189.136C214.363 189.861 214.403 189.731 214.29 190.423C213.805 190.026 213.08 189.288 212.603 188.831Z" fill="#C1B6EE" fill-opacity="0.027451"/>
<path d="M234.382 125.748C233.702 125.585 233.92 125.725 233.442 125.274C234.002 124.795 234.112 124.932 234.982 124.811L235.892 125.216L235.452 124.957L235.707 125.394L234.382 125.748Z" fill="#C1B6EE" fill-opacity="0.0235294"/>
<path d="M76.9612 124.974C75.7059 124.021 76.1715 109.308 76.773 108.277L77.0362 109.473C76.9759 113.024 77.2467 121.908 76.9612 124.974Z" fill="#2121B8"/>
<path d="M16.534 282.392C19.9867 276.179 25.4462 270.647 28.7772 264.387C29.7967 262.469 29.069 255.977 29.746 253.654C29.992 252.899 44.2972 253.304 45.6225 253.202C45.4785 258.127 45.4175 263.054 45.4397 267.982C45.444 271.414 45.6392 276.122 45.1022 279.332C50.3967 272.132 56.2902 264.744 61.756 257.619C62.9527 256.347 64.3162 253.464 66.2332 253.417C78.7812 253.109 91.4675 253.059 104.018 253.437C106.614 253.517 110.063 258.329 111.286 260.474C115.93 268.614 107.631 277.702 100.578 281.322C104.466 286.974 105.328 288.587 105.111 295.519C104.91 301.907 92.833 311.409 88.1458 311.212C83.9865 311.034 49.857 311.847 48.2397 310.934C48.2672 309.242 59.0045 275.852 60.2448 272.699C60.8183 271.409 61.2652 270.087 61.736 268.757L59.4052 272.069C51.9267 283.927 42.5837 295.282 34.8695 307.042C34.1135 308.194 32.6517 310.414 31.502 311.039L31.2012 310.899C30.792 306.682 30.6827 299.897 30.57 295.609C30.4065 289.394 30.072 282.852 29.993 276.674C28.8765 277.472 28.366 278.594 27.6755 279.282C24.3912 282.552 6.28025 309.557 3.58549 310.902C2.37499 309.759 2.23275 294.814 2.10325 292.309L0 253.179L16.1407 253.274C16.1355 259.157 16.2205 265.037 16.3955 270.917C16.4805 274.107 16.7732 279.357 16.534 282.392ZM78.778 304.077C85.0335 299.159 87.1935 294.354 85.3073 286.442C82.5625 283.512 79.0995 284.592 75.3127 284.564C74.6227 288.164 70.7563 301.029 69.2895 304.442C70.629 304.907 77.571 304.779 78.778 304.077ZM77.7878 277.069C80.4763 277.079 85.903 277.324 88.1517 276.582C93.0527 273.392 94.438 270.082 94.4897 264.394C91.3852 259.707 88.872 260.219 83.7595 260.072C82.9182 261.479 82.628 263.112 82.072 264.639C80.7442 268.289 79.4963 273.672 77.7878 277.069Z" fill="#100DC3"/>
<path d="M203.092 253.333C204.302 253.191 205.47 253.221 206.68 253.226C217.825 253.283 229.122 253.143 240.25 253.283C245.837 253.353 249.315 259.761 248.287 264.626C247.702 267.391 245.935 271.316 244.872 274.001L239.04 288.768L234.587 300.006C232.395 305.513 231.415 309.783 224.862 311.303L195.445 311.271C193.707 311.276 180.532 311.633 179.895 310.781C180.682 308.018 182.402 304.076 183.512 301.336L190.182 285.013C194.232 275.128 198.727 262.783 203.092 253.333ZM211.1 303.436C213.115 302.891 216.04 295.931 216.532 294.023C218.095 287.961 227.92 267.246 227.297 262.431C226.057 261.058 221.622 261.111 219.607 260.996C216.395 270.101 212.522 279.378 209.07 288.413C207.985 291.253 204.535 300.721 203.187 302.948L203.225 303.438C205.195 303.136 209.117 303.218 211.1 303.436Z" fill="#100DC3"/>
<path d="M193.935 253.19C194.11 253.223 194.283 253.255 194.455 253.288C194.603 254.803 192.228 259.313 191.353 260.69C187.853 260.883 183.505 261.16 180.095 260.71L179.98 261.1C179.178 263.823 175.018 273.275 173.425 275.778C176.945 275.555 181.993 275.688 185.295 275.17C184.703 277.75 183.578 280.525 182.633 283.028C179.873 283.273 174.28 283.268 171.495 282.83C170.648 284.578 162.38 304.338 162.44 304.633C166.27 304.313 171.628 304.333 175.533 304.233C174.775 306.823 173.805 308.993 172.575 311.378C170.453 311.258 168.228 311.285 166.095 311.278C157.052 311.24 148.009 311.27 138.967 311.368L161.759 253.318C164.64 253.058 169.84 253.21 172.903 253.21L193.935 253.19Z" fill="#100DC3"/>
<path d="M130.899 253.339C138.015 252.912 148.064 253.219 155.421 253.262C153.123 254.894 142.577 261.772 141.541 263.354C134.311 274.389 147.141 288.574 140.132 301.317C136.764 307.439 131.58 310.044 125.4 312.117C117.885 313.424 108.952 313.299 101.753 310.469C100.698 310.054 100.15 308.157 100.736 307.664C102.018 306.587 105.186 306.447 106.917 306.087C114.903 304.419 119.344 297.462 119.091 289.587C118.202 279.767 115.336 269.844 121.269 260.739C123.434 257.417 126.76 254.264 130.899 253.339Z" fill="#100DC3"/>
<path d="M314.603 253.203L314.845 253.293C315.343 254.425 313.508 258.235 312.99 259.62L303.97 283.678C302.56 287.425 298.425 297.368 298.22 300.92C298.28 300.975 298.335 301.04 298.4 301.09C300.505 302.67 316.03 301.47 319.355 301.168C318.703 304.54 318.183 307.998 317.43 311.343C310.96 311.055 303.165 311.25 296.595 311.253C293.005 311.228 277.055 311.93 274.983 310.628C274.575 310.373 274.515 310.15 274.435 309.668C274.288 308.763 274.655 307.688 274.94 306.835C278.138 297.248 282.273 287.308 285.855 277.775L290.693 264.888C291.938 261.565 293.405 257.043 295.31 254.173C298.083 252.463 310.308 253.36 314.603 253.203Z" fill="#100DC3"/>
<path d="M260.902 253.356C270.147 252.646 282.339 253.928 291.242 253.123C290.129 254.871 288.544 258.588 287.262 260.828C284.417 260.781 278.632 260.586 276.244 261.523C274.012 262.398 271.027 271.898 270.114 274.293L262.189 295.048C261.454 296.981 259.409 301.778 260.229 303.606C261.344 304.446 269.127 304.223 270.832 304.083C271.017 305.243 269.192 310.013 268.687 311.426C261.127 311.133 253.509 311.341 245.939 311.298C243.249 311.283 241.262 311.376 238.617 310.748C237.802 309.683 237.649 309.348 237.087 308.118C237.519 305.656 240.014 299.531 240.992 296.961L248.624 276.888L253.509 263.993C255.177 259.593 255.959 254.858 260.902 253.356Z" fill="#100DC3"/>
<path d="M61.736 268.756C61.2653 270.086 60.8183 271.408 60.2448 272.698L59.4053 272.068L61.736 268.756Z" fill="#C1B6EE" fill-opacity="0.0352941"/>
</svg>
