<svg width="525" height="213" viewBox="0 0 525 213" fill="none" xmlns="http://www.w3.org/2000/svg">
<path d="M497.477 208.029C501.466 208.025 522.901 207.654 525 208.409V212.938L185.398 212.97C185.352 211.344 185.403 209.64 185.43 208.007L450.864 208.045L497.477 208.029ZM59.875 85.0947C68.7912 85.0755 79.0073 84.8108 87.8057 85.0645C81.1355 93.0741 82.7237 98.9625 82.751 108.803L82.8018 126.934C82.8071 129.304 82.8982 134.726 82.3193 136.888C90.7996 136.817 99.2802 136.797 107.761 136.824C111.613 136.82 118.596 136.591 122.243 136.852C121.839 134.393 122.246 131.406 121.474 128.729C121.325 128.213 121.076 127.736 120.785 127.287C120.671 127.111 120.551 126.938 120.427 126.77C119.808 125.932 119.111 125.189 118.741 124.478C118.709 124.416 118.678 124.356 118.651 124.295C118.541 124.042 118.476 123.792 118.479 123.542L118.556 123.014C118.058 122.69 116.41 122.751 115.517 122.637V122.636C115.538 121.992 115.567 121.31 115.592 120.631C115.604 120.291 115.615 119.952 115.623 119.618C115.631 119.284 115.635 118.955 115.635 118.637H115.636C116.544 118.708 117.502 118.755 118.486 118.784C121.44 118.873 124.629 118.81 127.399 118.81L131.396 118.823C135.392 118.824 139.39 118.784 143.386 118.702V118.703C143.389 119.625 143.373 120.655 143.399 121.622C143.404 121.783 143.41 121.943 143.417 122.1C143.424 122.256 143.432 122.411 143.442 122.562C142.148 122.767 140.11 122.684 139.259 123.166C139.544 123.367 139.695 123.451 139.782 123.523C139.93 123.646 139.897 123.735 140.021 124.296C139.567 125.302 138.186 125.83 137.739 126.979C136.476 130.23 136.352 134.794 136.044 138.273C136.088 138.898 136.057 139.36 136.479 139.829C136.721 140.779 136.602 142.418 136.574 143.449C130.013 143.292 123.449 143.238 116.886 143.286C111.063 143.278 105.613 142.997 99.8779 143.861C98.2472 146.19 97.9032 147.417 97.1191 150.179C92.5314 150.237 87.942 150.227 83.3545 150.147C84.0812 170.49 82.9857 191.894 83.5439 212.422C81.4983 212.351 79.6127 212.41 77.5742 212.472C77.3792 201.95 77.5246 191.039 77.5312 180.501L77.5449 126.581L77.5254 102.576C77.5201 99.9733 78.0784 91.7828 76.8506 90.0781C76.1419 89.809 76.4516 89.8096 75.6787 90.1309C74.9621 91.2037 75.2907 102.318 75.291 104.519L75.2969 132.012L75.2891 212.518C71.7692 212.379 68.548 212.372 65.0225 212.405C64.9274 209.619 64.9289 206.497 64.9912 203.709C65.3796 186.282 64.5356 168.646 65.0547 151.243C61.7673 151.565 55.0333 151.466 51.3926 151.524C51.3836 151.109 51.344 150.693 51.2754 150.283C50.764 147.3 50.3726 145.76 47.9385 144.027C35.9674 143.852 23.9939 143.84 12.0225 143.99L12.0186 140.324C22.2262 140.41 32.4357 140.429 42.6436 140.381C45.8998 140.388 63.796 140.805 65.418 139.843C63.5398 139.089 17.4786 139.497 12.0322 139.474C12.0985 135.171 12.0147 130.543 10.2139 126.556C9.71439 125.451 8.4906 124.644 8.06348 123.712L7.98926 123.523L7.83398 122.661C7.34771 122.658 6.8423 122.649 6.33789 122.648C5.83322 122.648 5.32935 122.655 4.84668 122.685L4.78809 118.584C9.43896 118.727 14.0915 118.81 18.7441 118.834C23.397 118.858 28.0501 118.824 32.7021 118.729C32.7224 119.258 32.8093 119.988 32.8008 120.688C32.8002 120.736 32.7984 120.784 32.7969 120.832C32.7954 120.878 32.7935 120.925 32.791 120.971C32.7878 121.029 32.7824 121.087 32.7773 121.145C32.7739 121.184 32.7709 121.222 32.7666 121.261C32.7612 121.308 32.7539 121.355 32.7471 121.401C32.7394 121.453 32.7323 121.504 32.7227 121.555C32.7161 121.589 32.7077 121.622 32.7002 121.655C32.6874 121.712 32.6741 121.767 32.6582 121.821C32.6406 121.881 32.6222 121.939 32.6006 121.995C32.5131 122.222 32.3906 122.416 32.2227 122.565C32.2144 122.573 32.2067 122.581 32.1982 122.588C32.1381 122.638 32.0729 122.684 32.001 122.722L31.8867 122.774C31.2195 122.875 30.6029 122.921 30.0107 123.241L29.9492 123.553C27.2598 126.818 26.5478 128.707 26.3486 133.016C26.3025 134.013 26.1328 135.902 25.8428 136.844C38.8154 136.764 52.4162 136.624 65.3545 136.892C64.7853 133.521 64.9566 127.63 64.9609 124.044L64.9863 103.411C64.9756 95.3489 65.9962 91.0332 59.875 85.0947ZM390.981 162.055C397.316 162.034 405.598 161.775 411.776 162.122C411.889 163.81 411.792 165.792 411.748 167.508C409.718 167.622 407.259 167.562 405.198 167.564C405.326 172.782 405.358 178.002 405.291 183.22L405.252 189.893C402.625 189.696 400.784 189.753 398.154 189.839C397.857 182.758 398.041 174.673 398.077 167.563L390.917 167.627L390.981 162.055ZM287.538 161.745C289.063 161.859 289.886 162.17 291.334 162.63C293.459 164.986 296.046 172.331 297.502 175.596C298.015 172.734 300.852 164.935 303.105 162.829C304.59 161.443 308.225 162.012 310.25 162.188C311.201 169.588 311.719 182.145 311.731 189.631C309.33 189.59 306.72 189.752 304.306 189.854C304.349 187.247 304.262 184.381 304.236 181.755C304.001 180.034 304.026 177.061 303.993 175.238C302.845 179.081 302.067 182.727 299.591 185.894C297.623 186.053 296.41 186.045 294.429 185.972C292.575 182.544 291.486 178.774 290.278 175.069C289.802 179.008 289.763 185.534 289.594 189.778C287.235 189.635 284.403 189.639 282.006 189.584C282.303 185.373 282.517 165.666 284.039 163.393C284.734 162.358 286.39 162.005 287.538 161.745ZM505.271 162.088C512.413 161.66 515.015 161.256 521.528 164.262C524.11 167.766 524.238 171.137 524.292 175.374C524.354 180.086 524.379 185.995 519.611 188.498C514.408 190.39 507.709 189.72 502.123 189.499C501.677 181.427 501.954 170.429 502.021 162.18C503.082 162.191 504.208 162.128 505.271 162.088ZM239.128 161.413C241.646 161.357 244.369 161.424 246.901 161.444L246.912 189.437C244.387 189.443 241.862 189.481 239.339 189.551C238.808 181.664 239.158 169.737 239.128 161.413ZM450.049 162.729C455.265 160.787 459.565 162.283 465.479 161.992C465.476 163.5 465.389 165.913 465.699 167.305C463.73 167.816 458.285 167.572 456.102 167.498L455.781 167.509C455.143 168.279 454.822 171.937 454.684 173.043C458.29 172.95 461.898 172.953 465.505 173.054C465.484 174.854 465.402 176.541 465.302 178.339C461.936 178.488 458.567 178.515 455.199 178.421C455.063 179.91 455.107 181.745 455.104 183.268L465.874 183.21C465.951 185.17 465.899 187.376 465.896 189.354C462.499 189.527 452.764 189.96 449.891 187.908C448.545 186.833 447.717 183.455 447.804 181.828C448.08 176.628 446.409 166.804 450.049 162.729ZM355.736 189.282C353.34 189.586 350.289 189.429 347.828 189.379C347.879 180.055 347.838 170.732 347.702 161.409L355.788 161.363L355.736 189.282ZM185.483 161.278C187.755 161.258 190.342 161.376 192.638 161.435L192.601 183.242L202.77 183.174C202.816 184.53 203.034 188.054 202.768 189.202L202.307 189.425C197.455 189.481 190.526 189.718 186.267 187.665C186.2 187.543 186.136 187.419 186.076 187.293C185.4 185.88 184.769 183.619 184.677 182.143C184.506 179.403 184.203 163.075 184.735 161.543L185.483 161.278ZM509.739 167.55C509.747 172.831 509.724 178.113 509.676 183.395C511.724 183.219 514.172 183.992 515.254 182.383C517.11 179.07 518.316 170.707 514.426 168.118C513.38 167.423 511.042 167.543 509.739 167.55ZM394.037 26.2402C398.238 25.8913 403.058 26.0135 407.287 26.1787C408.861 26.2402 410.164 26.6415 411.715 26.8457C411.855 26.8639 413.84 26.3538 414.532 26.3682C417.526 26.4317 420.879 27.0951 423.898 27.3867C423.95 27.3918 424.811 28.0836 424.901 28.1602C425.155 27.8476 425.253 27.7523 425.553 27.4844C427.196 27.402 430.836 28.1445 432.687 28.4297L430.315 50.3525C424.566 49.578 418.47 49.1624 412.687 48.5293C407.275 47.9925 402.965 47.4569 397.459 47.8486C389.495 48.4154 383.424 48.95 383.944 58.8789C384.373 67.0421 392.873 68.8011 399.902 70.6582C414.178 74.4308 432.373 80.8682 434.275 98.0254C434.952 107.179 434.906 121.821 428.349 129.098C422.522 135.564 415.019 138.825 406.626 140.395C404.304 140.828 401.104 140.944 398.685 141.15C391.545 141.774 384.411 141.889 377.287 141.099C371.468 140.454 363.642 140.728 358.271 138.114C358.348 132.6 360.263 123.631 360.863 117.764C364.224 117.582 367.705 118.227 371.109 118.579C380.981 119.6 392.022 121.733 401.647 118.373C406.441 116.693 408.564 110.11 407.929 105.524C406.824 97.5597 399.248 95.0416 392.819 92.8672C383.899 89.8513 374.97 87.178 367.443 81.4199C356.418 72.9262 355.765 56.8819 359.933 44.6211C364.16 32.1997 376.987 26.5275 389.33 26.5762C390.909 26.5823 392.474 26.4244 394.037 26.2402ZM221.149 24.7051C234.949 24.1707 243.985 25.3587 257.242 28.3926C257.178 30.3341 256.673 33.451 256.417 35.46L254.723 48.6533C244.742 46.9314 234.306 45.645 224.398 46.6748C208.551 48.3222 204.444 61.4055 205.421 75.2822C206.02 83.7866 204.598 93.4287 205.757 101.907C208.062 118.765 222.61 121.138 236.91 119.574C243.182 118.927 248.688 118.458 254.746 117.566C255.068 120.468 255.417 123.368 255.794 126.264C256.172 130.089 256.833 133.98 257.24 137.865C252.135 138.398 245.817 140.133 240.698 140.522C236.005 140.88 230.271 140.827 225.542 140.737C222.577 140.632 219.209 141.163 216.285 140.784C204.952 139.317 193.503 134.51 187.232 124.576C178.96 111.471 179.581 95.0916 179.328 80.1982C179.079 65.5051 180.478 48.1797 190.509 36.668C195.53 30.8867 203.044 27.7083 210.348 25.8867C213.147 25.1935 218.221 24.9171 221.149 24.7051ZM464.756 31.1426C480.344 21.3417 507.62 24.2494 525 28.2158V36.999C523.929 40.5535 524.034 44.8004 523.26 48.5342C491.229 44.7978 471.2 40.7832 473.723 82.6963C474.697 98.8694 470.374 117.589 494.019 119.697C502.791 120.479 514.772 119.022 523.416 117.358C523.667 120.417 524.005 126.101 524.911 128.936L525 129.2V137.922C521.724 138.372 513.418 140.247 510.452 140.363C502.252 140.686 487.216 141.596 479.454 139.917C470.457 137.97 459.436 132.381 454.93 124.116C452.425 119.525 450.6 115.806 449.495 110.571C447.957 103.619 447.946 96.5015 447.593 89.4258C446.662 70.8806 446.948 42.3378 464.756 31.1426ZM300.365 25.4717C313.657 24.9123 330.007 25.4173 343.562 25.3408C343.901 31.4323 343.813 40.5225 343.618 46.6387L317.83 46.6055C315.201 46.6031 301.801 46.2426 300.608 47.4424C295.726 52.3511 298.386 64.5093 297.586 71.0186C297.468 71.9913 296.706 71.8821 296.483 72.7373C297.478 73.2977 337.372 73.0365 341.914 73.0127C341.991 79.3929 341.978 85.7744 341.875 92.1543C327.079 91.9721 311.944 92.3602 297.209 92.0107C298.206 98.5091 296.953 106.509 298.179 113.011C298.589 115.179 299.845 116.653 301.731 117.749C303.821 118.46 309.106 118.219 311.547 118.215L331.955 118.185C334.959 118.181 340.727 118.015 343.465 118.447C343.824 124.892 343.575 132.905 343.686 139.585C333.196 139.213 322.195 139.557 311.68 139.524C299.498 139.487 289.036 140.462 278.801 132.073C270.111 124.953 271.451 113.567 271.459 103.457L271.464 81.5908L271.457 61.3086C271.457 56.3078 271.323 51.948 271.959 46.9492C273.941 31.4194 286.077 26.5825 300.365 25.4717ZM126.937 57.8047C129.955 58.2941 129.705 65.4919 138.604 66.6553C137.235 68.0643 134.333 69.7331 134.253 71.7939C134.749 72.5381 136.197 72.7774 137.054 72.9727C139.49 73.5284 141.424 74.1635 143.555 75.5107C143.625 76.4978 143.579 77.7108 143.567 78.7168C144.695 78.9643 147.591 79.4426 147.996 80.4863C149.969 85.5754 147.876 92.3252 147.088 97.4395C146.457 101.535 145.887 105.024 145.14 108.94C144.32 113.236 143.122 114.266 139.63 116.468L129.392 116.367C126.102 116.342 122.18 116.307 118.946 116.599C118.751 116.494 118.556 116.386 118.363 116.277C115.566 114.695 113.163 111.989 112.308 108.85C111.29 105.112 107.485 82.5597 109.079 80.1992C110.242 78.4788 113.086 78.8544 114.447 77.2842C114.893 76.7702 115.072 76.066 115.419 75.4883C116.522 73.6512 119.976 72.9839 121.908 72.4824C120.365 69.8669 117.246 68.8501 116.451 66.9062C116.813 66.1148 119.016 66.4718 120.154 65.7422C123.194 63.7933 124.438 60.2878 126.937 57.8047ZM17.6143 57.668C18.3233 58.7505 19.057 59.8172 19.8145 60.8662C21.1173 62.6477 22.6987 64.6173 24.625 65.7773C25.2021 66.125 26.8381 66.1624 27.6221 66.2852L27.8916 66.6729C27.1959 67.7311 24.4681 70.029 23.1562 71.6533C26.2831 72.7187 31.2069 73.9905 33.7627 75.8008C33.9385 77.0682 33.9042 77.5555 33.8242 78.7988C35.4496 79.3975 37.3649 79.4719 38.1768 81.2412C39.5313 84.1948 35.6609 107.563 34.1641 111.318C33.565 112.821 32.4959 115.178 30.9297 115.846C27.9084 117.134 19.4437 116.305 15.8125 116.327C13.8762 116.339 11.8819 116.586 9.95312 116.462C8.98493 116.399 7.99827 116.222 7.10449 115.836C5.1171 114.979 3.98188 113.173 3.23242 111.229C1.43285 106.562 1.81954 98.5948 0 94.9395V79.3564C1.6157 78.6811 2.97809 78.3842 4.67578 77.9707L4.89941 75.5586C6.74507 74.3541 10.8839 72.9529 11.7207 71.5059C11.478 70.6272 7.51193 68.7645 6.07422 67.4629L6.13477 66.9473C14.7321 64.2402 12.1626 61.1525 17.6143 57.668ZM11.9209 80.252C9.46389 80.79 6.04637 81.2156 4.51367 83.2256C4.45413 85.3093 5.40334 90.451 5.78711 92.7178L8.59082 108.843C8.83712 110.225 9.00218 112.134 10.877 112.141C11.5938 111.825 11.9234 111.38 12.209 110.658C13.3374 107.805 13.2649 83.8562 12.5205 80.3389C12.2335 80.2525 12.1963 80.1999 11.9209 80.252ZM123.14 80.5596C122.517 80.2212 121.802 80.4147 121.073 80.5098C119.008 81.0517 117.105 81.5385 115.08 82.2383C115.064 86.0483 116.488 92.7222 117.173 96.7783C117.812 100.567 118.645 107.113 119.629 110.628C120.36 112.519 122.711 111.714 122.873 110.949C123.359 108.648 123.788 104.607 123.507 102.245C122.899 97.1324 124.358 84.9386 123.14 80.5596ZM19.5088 79.6777C18.96 85.523 19.2655 92.599 19.1895 98.5762C19.1547 101.301 19.0943 108.385 19.5127 110.688C23.1736 111.463 28.2156 112.837 29.5889 108.262C30.2296 104.82 33.3922 86.2509 32.7031 84.0176C30.4666 80.9473 23.0967 79.8963 19.5088 79.6777ZM130.2 79.6904C129.797 82.5856 130.015 86.5793 129.974 89.5918C129.881 96.2977 130.131 103.188 129.876 109.88L131.997 111.236L138.041 111.226C139.062 110.167 139.56 109.482 140.105 108.059C141.041 105.148 144.02 85.838 143.314 83.7041C141.588 81.5884 135.052 80.0731 132.435 79.8174C131.692 79.7488 130.946 79.7063 130.2 79.6904ZM91.8965 83.1094C89.3831 83.4363 82.7502 83.2676 80.002 83.2666L56.3916 83.2402L56.1943 78.1641C58.5671 78.2968 61.1338 78.4173 63.5029 78.3535C72.8422 78.1024 82.6833 78.7901 91.9697 78.1328L91.8965 83.1094ZM126.339 73.6064C125.981 73.7469 125.223 73.9549 125.091 74.2139C126.537 74.0519 133.972 75.5781 135.799 75.9824L136.274 76.0264C134.661 74.755 128.673 73.6816 126.339 73.6064ZM72.0488 0C74.2405 3.41753 77.0247 7.68883 80.8633 9.24902C81.7677 9.61658 84.1707 10.6145 84.7617 11.2031C85.6317 13.4715 79.398 15.0391 79.2588 16.5391C79.071 18.5852 90.3057 21.5492 91.9336 22.083L91.9316 25.0176C96.5469 27.016 100.49 27.7789 99.8623 34.0449C99.2481 40.1724 98.0913 46.4695 96.9111 52.5283C95.0334 62.1686 95.7817 76.2941 82.0801 75.6807C76.1045 75.4132 70.192 75.7917 64.2246 75.6211C58.3917 75.3873 55.1802 72.554 54.1748 66.7373C52.2527 55.6172 50.1538 44.3814 48.4717 33.2139C47.6876 27.9872 50.7756 26.425 54.9492 24.7451C54.9134 23.6631 54.9872 22.3727 55.0205 21.2754C56.958 20.2729 62.9984 18.7093 63.3164 16.8936C62.6551 15.4212 58.6698 12.9652 56.9785 11.2734C64.755 8.55237 66.0457 6.7427 70.6475 0H72.0488ZM81.1514 28.4492C79.2929 27.6942 77.0218 27.6511 75.3105 27.7451C74.7811 28.8389 74.6417 30.01 74.5479 31.207C74.1762 35.9456 73.9639 64.9901 75.0098 68.0205C75.2281 68.6536 75.8887 69.0828 76.4834 69.3564C79.929 70.9421 83.9213 70.2438 87.3145 68.9922L88.4189 67.0293C90.3564 61.2707 90.5341 52.4309 91.7314 46.1729C92.1865 43.7942 93.5888 35.6295 92.5332 33.7539C91.1143 31.2343 83.8163 29.5131 81.1514 28.4492ZM64.4541 28.5195C60.4644 28.9849 56.2388 29.5951 54.0996 33.3086C55.1263 40.7798 56.1959 48.2217 57.5225 55.6445C58.1195 58.9848 58.3567 62.8144 59.2139 66.0645C60.4066 69.6818 62.4491 71.2812 65.3662 67.7949C66.2993 64.1133 66.2346 32.6885 65.5625 28.9307C65.0844 28.445 65.2692 28.5836 64.4541 28.5195Z" fill="#0982D4"/>
</svg>
