<svg width="73" height="95" viewBox="0 0 73 95" fill="none" xmlns="http://www.w3.org/2000/svg">
<path d="M12.5928 13.0274L39.2583 13.0215L47.2091 13.0161C48.2762 13.0153 50.4583 12.9558 51.4478 13.0878C52.3542 13.2063 53.1969 13.6171 53.8484 14.2579C55.0556 15.4477 55.0889 16.7722 55.0656 18.3577C55.0503 19.4042 55.0776 20.4879 55.047 21.5319L63.5464 21.5144C64.4853 21.5142 65.4403 21.5193 66.3706 21.5146C68.0447 21.5064 69.5767 21.4772 70.8324 22.7528C71.6738 23.6066 72.0457 24.5688 72.0483 25.7626C72.0537 26.3966 71.9222 27.0243 71.6612 27.6023C71.2309 28.5686 69.7879 30.7856 69.1896 31.7881L62.9693 42.1734L61.1471 45.1939C60.7925 45.7777 60.3422 46.4532 60.0567 47.058C63.8419 53.5619 68.0646 60.0633 71.7588 66.6369C72.1108 67.2631 72.0895 68.7074 71.9069 69.414C71.6227 70.4991 70.9154 71.4248 69.9426 71.9839C68.4325 72.8412 64.3638 72.5842 62.4533 72.5829H52.8596H43.3429C41.0878 72.5829 37.46 72.9926 35.5594 71.7535C33.6131 70.4851 33.7724 68.5055 33.7578 66.443C33.7246 65.8599 33.7831 64.7058 33.797 64.0816L20.5583 64.0928C17.9716 64.0935 15.229 64.1413 12.6629 64.0736L12.6691 64.0417C11.6016 64.0351 4.56333 64.1573 4.06515 63.9873L4.0087 63.717C4.04954 63.0894 4.02158 62.1365 4.02098 61.4864L4.01733 57.3808L4.01753 44.7061L4.01873 24.1411C4.01892 20.4851 4.0767 16.6583 4 13.0196C6.80288 13.0294 9.81254 12.9654 12.5928 13.0274Z" fill="#B77CE4"/>
<circle cx="29" cy="38" r="17" fill="white"/>
<path d="M55.2784 21.2925L63.7778 21.275C64.7168 21.2748 65.6717 21.2799 66.602 21.2752C68.2761 21.267 69.8081 21.2378 71.0639 22.5134C71.9052 23.3672 72.2771 24.3294 72.2798 25.5232C72.2851 26.1572 72.1536 26.7849 71.8926 27.3629C71.4623 28.3292 70.0193 30.5462 69.421 31.5487L63.2007 41.934L61.3785 44.9545C61.0239 45.5383 60.5737 46.2138 60.2881 46.8186C64.0733 53.3225 68.2961 59.8239 71.9902 66.3975C72.3422 67.0237 72.3209 68.468 72.1383 69.1746C71.8541 70.2596 71.1469 71.1854 70.174 71.7445C68.6639 72.6018 64.5952 72.3448 62.6847 72.3435H53.091H43.5743C41.3192 72.3435 37.6914 72.7532 35.7909 71.5141C33.8445 70.2457 34.0039 68.2661 33.9893 66.2036C34.0822 65.9114 33.9939 66.001 34.2111 65.8788C34.9927 65.9532 36.3759 65.9147 37.1914 65.9154L42.7814 65.9187H48.171C49.3889 65.918 50.5815 65.9612 51.7921 65.7972C54.1641 65.4757 55.6317 62.9756 55.2233 60.7058L55.1064 60.6327C55.3355 58.8258 55.2685 57.079 55.2671 55.2589L55.2618 48.1106L55.2612 31.0743C55.2499 27.8137 55.2559 24.553 55.2784 21.2925Z" fill="#9F6BC6"/>
<path d="M55.1067 60.6328L55.2235 60.7059C55.6319 62.9756 54.1644 65.4758 51.7923 65.7972C50.5817 65.9613 49.3891 65.9181 48.1712 65.9188H42.7817L37.1916 65.9154C36.3761 65.9148 34.9929 65.9533 34.2113 65.8789C33.9941 66.0011 34.0824 65.9114 33.9895 66.2036C33.9563 65.6206 34.0147 64.4665 34.0287 63.8422L20.7899 63.8535C18.2032 63.8542 15.4606 63.902 12.8945 63.8343L12.9008 63.8024C13.8213 63.7333 15.3899 63.7805 16.3492 63.7818L22.6047 63.7838L42.8939 63.7864L48.1081 63.7938C49.5591 63.7957 51.8348 63.9604 53.1005 63.2413C54.0913 62.6755 54.8138 61.7358 55.1067 60.6328Z" fill="#1A3A5C" fill-opacity="0.4"/>
<path d="M35.8457 31.9279C36.5244 31.8898 37.0982 32.0359 37.6048 32.5136C38.0192 32.8997 38.2583 33.4385 38.2656 34.0049C38.2669 34.3433 38.1202 34.9278 37.915 35.1749C37.1201 36.1355 36.0729 37.1157 35.1903 37.9994L29.826 43.3681C27.3502 45.8096 26.5589 44.4407 24.4971 42.3998C24.2063 42.1119 23.9075 41.8024 23.6198 41.5106C22.4938 40.4153 20.1466 38.6091 21.8487 36.8666C23.5426 35.1324 25.0239 36.8779 26.2421 38.1199C26.7076 38.5956 27.1788 39.0657 27.6555 39.5301L32.2372 34.9375C33.1729 33.9991 34.6186 32.2807 35.8457 31.9279Z" fill="#00E5FF"/>
<path d="M4.02018 64H4.0787C4.59526 64.1231 11.8931 63.9952 13 64H12.9935C12.8344 64.2683 12.9056 66.5525 12.9055 66.9867L12.9041 74.7913C12.9046 75.6856 12.9902 77.7338 12.874 78.5665C12.8945 78.9319 12.8916 79.2396 12.8783 79.6055C12.8543 80.1262 12.8135 85.6365 12.9158 85.7745L12.9908 85.7837C12.9864 85.7866 12.9811 85.789 12.9776 85.7923C12.7475 86.0116 12.8903 87.5852 12.8926 87.9391L12.9038 90.3743C12.9081 91.7532 13.1077 93.097 11.5661 94.1364C9.77461 95.3452 6.9101 95.2644 5.21096 94.0235C4.72842 93.6763 4.38511 93.2465 4.21552 92.7777C3.96399 92.0839 4.02775 90.5887 4.02809 89.805C4.02148 88.466 4.03388 87.127 4.06534 85.7885C4.0042 83.7677 4.06424 81.6407 4.05454 79.6079C3.94636 75.039 4.07567 70.3782 4.02465 65.7972C3.98685 65.6515 3.99842 64.1808 4.02018 64Z" fill="white"/>
<path d="M4.06752 8.56101C2.89472 8.4879 1.79849 7.95392 1.01788 7.0757C-0.987389 4.81111 0.10174 0.713782 3.13232 0.170645C5.13201 -0.18775 7.69748 0.148399 9.75302 0.0326526C10.8074 -0.0267146 11.9622 0.0384963 13.0231 0.0493869C16.9341 0.202785 18.4902 5.20152 15.4592 7.61253C14.8847 8.06529 14.0465 8.48882 13.3086 8.54713C13.0225 8.60603 13.0304 8.55829 12.8468 8.7257C12.6574 9.59655 12.9491 11.8708 12.7833 12.6637L12.825 12.7881C10.0447 12.7261 7.03508 12.7902 4.23221 12.7803C4.26355 12.0707 4.25472 11.4193 4.24562 10.7104C4.1581 10.1782 4.48973 8.90612 4.06752 8.56101Z" fill="white"/>
</svg>
